G04 #@! TF.FileFunction,Profile,NP*
%FSLAX46Y46*%
G04 Gerber Fmt 4.6, Leading zero omitted, Abs format (unit mm)*
G04 Created by KiCad (PCBNEW 4.0.6) date Sunday, March 03, 2019 'PMt' 03:44:16 PM*
%MOMM*%
%LPD*%
G01*
G04 APERTURE LIST*
%ADD10C,0.150000*%
%ADD11C,0.000100*%
G04 APERTURE END LIST*
D10*
X89500000Y-106500000D02*
X89500000Y-82500000D01*
X171500000Y-109500000D02*
X170950000Y-109500000D01*
X174500000Y-106050000D02*
X174500000Y-106500000D01*
X174500000Y-82500000D02*
X174500000Y-106000000D01*
X92500000Y-109500000D02*
X171000000Y-109500000D01*
X92500000Y-79500000D02*
X171000000Y-79500000D01*
X89500000Y-106500000D02*
G75*
G03X92500000Y-109500000I3000000J0D01*
G01*
X171500000Y-109500000D02*
G75*
G03X174500000Y-106500000I0J3000000D01*
G01*
X171500000Y-79500000D02*
X171000000Y-79500000D01*
X174500000Y-82500000D02*
G75*
G03X171500000Y-79500000I-3000000J0D01*
G01*
X92500000Y-79500000D02*
G75*
G03X89500000Y-82500000I0J-3000000D01*
G01*
D11*
X153350000Y-79500000D02*
X147250000Y-79500000D01*
X147250000Y-79500000D02*
X147250000Y-80800000D01*
X147250000Y-80800000D02*
X142750000Y-80800000D01*
X142750000Y-80800000D02*
X142750000Y-79500000D01*
X142750000Y-79500000D02*
X136150000Y-79500000D01*
D10*
X144870000Y-107470000D02*
X144870000Y-107480000D01*
X144375000Y-107875000D02*
X146125000Y-107875000D01*
X146125000Y-107875000D02*
X146125000Y-107125000D01*
X146125000Y-107125000D02*
X144375000Y-107125000D01*
X144375000Y-107875000D02*
X144375000Y-107125000D01*
X149720000Y-104480000D02*
X149730000Y-104480000D01*
X150125000Y-104975000D02*
X150125000Y-103225000D01*
X150125000Y-103225000D02*
X149375000Y-103225000D01*
X149375000Y-103225000D02*
X149375000Y-104975000D01*
X150125000Y-104975000D02*
X149375000Y-104975000D01*
X142720000Y-101380000D02*
X142730000Y-101380000D01*
X143125000Y-101875000D02*
X143125000Y-100125000D01*
X143125000Y-100125000D02*
X142375000Y-100125000D01*
X142375000Y-100125000D02*
X142375000Y-101875000D01*
X143125000Y-101875000D02*
X142375000Y-101875000D01*
X140020000Y-99980000D02*
X140030000Y-99980000D01*
X140425000Y-100475000D02*
X140425000Y-98725000D01*
X140425000Y-98725000D02*
X139675000Y-98725000D01*
X139675000Y-98725000D02*
X139675000Y-100475000D01*
X140425000Y-100475000D02*
X139675000Y-100475000D01*
X148870000Y-96470000D02*
X148870000Y-96480000D01*
X148375000Y-96875000D02*
X150125000Y-96875000D01*
X150125000Y-96875000D02*
X150125000Y-96125000D01*
X150125000Y-96125000D02*
X148375000Y-96125000D01*
X148375000Y-96875000D02*
X148375000Y-96125000D01*
X159870000Y-107470000D02*
X159870000Y-107480000D01*
X159375000Y-107875000D02*
X161125000Y-107875000D01*
X161125000Y-107875000D02*
X161125000Y-107125000D01*
X161125000Y-107125000D02*
X159375000Y-107125000D01*
X159375000Y-107875000D02*
X159375000Y-107125000D01*
X164720000Y-104480000D02*
X164730000Y-104480000D01*
X165125000Y-104975000D02*
X165125000Y-103225000D01*
X165125000Y-103225000D02*
X164375000Y-103225000D01*
X164375000Y-103225000D02*
X164375000Y-104975000D01*
X165125000Y-104975000D02*
X164375000Y-104975000D01*
X157720000Y-101380000D02*
X157730000Y-101380000D01*
X158125000Y-101875000D02*
X158125000Y-100125000D01*
X158125000Y-100125000D02*
X157375000Y-100125000D01*
X157375000Y-100125000D02*
X157375000Y-101875000D01*
X158125000Y-101875000D02*
X157375000Y-101875000D01*
X155020000Y-99980000D02*
X155030000Y-99980000D01*
X155425000Y-100475000D02*
X155425000Y-98725000D01*
X155425000Y-98725000D02*
X154675000Y-98725000D01*
X154675000Y-98725000D02*
X154675000Y-100475000D01*
X155425000Y-100475000D02*
X154675000Y-100475000D01*
X163870000Y-96470000D02*
X163870000Y-96480000D01*
X163375000Y-96875000D02*
X165125000Y-96875000D01*
X165125000Y-96875000D02*
X165125000Y-96125000D01*
X165125000Y-96125000D02*
X163375000Y-96125000D01*
X163375000Y-96875000D02*
X163375000Y-96125000D01*
D11*
X133350000Y-79500000D02*
X127250000Y-79500000D01*
X127250000Y-79500000D02*
X127250000Y-80800000D01*
X127250000Y-80800000D02*
X122750000Y-80800000D01*
X122750000Y-80800000D02*
X122750000Y-79500000D01*
X122750000Y-79500000D02*
X116150000Y-79500000D01*
D10*
X124870000Y-107470000D02*
X124870000Y-107480000D01*
X124375000Y-107875000D02*
X126125000Y-107875000D01*
X126125000Y-107875000D02*
X126125000Y-107125000D01*
X126125000Y-107125000D02*
X124375000Y-107125000D01*
X124375000Y-107875000D02*
X124375000Y-107125000D01*
X129720000Y-104480000D02*
X129730000Y-104480000D01*
X130125000Y-104975000D02*
X130125000Y-103225000D01*
X130125000Y-103225000D02*
X129375000Y-103225000D01*
X129375000Y-103225000D02*
X129375000Y-104975000D01*
X130125000Y-104975000D02*
X129375000Y-104975000D01*
X122720000Y-101380000D02*
X122730000Y-101380000D01*
X123125000Y-101875000D02*
X123125000Y-100125000D01*
X123125000Y-100125000D02*
X122375000Y-100125000D01*
X122375000Y-100125000D02*
X122375000Y-101875000D01*
X123125000Y-101875000D02*
X122375000Y-101875000D01*
X120020000Y-99980000D02*
X120030000Y-99980000D01*
X120425000Y-100475000D02*
X120425000Y-98725000D01*
X120425000Y-98725000D02*
X119675000Y-98725000D01*
X119675000Y-98725000D02*
X119675000Y-100475000D01*
X120425000Y-100475000D02*
X119675000Y-100475000D01*
X128870000Y-96470000D02*
X128870000Y-96480000D01*
X128375000Y-96875000D02*
X130125000Y-96875000D01*
X130125000Y-96875000D02*
X130125000Y-96125000D01*
X130125000Y-96125000D02*
X128375000Y-96125000D01*
X128375000Y-96875000D02*
X128375000Y-96125000D01*
M02*
