G04 #@! TF.GenerationSoftware,KiCad,Pcbnew,(5.1.0-0)*
G04 #@! TF.CreationDate,2019-04-18T20:26:35-04:00*
G04 #@! TF.ProjectId,ubitx_panel,75626974-785f-4706-916e-656c2e6b6963,0.1*
G04 #@! TF.SameCoordinates,Original*
G04 #@! TF.FileFunction,Soldermask,Top*
G04 #@! TF.FilePolarity,Negative*
%FSLAX46Y46*%
G04 Gerber Fmt 4.6, Leading zero omitted, Abs format (unit mm)*
G04 Created by KiCad (PCBNEW (5.1.0-0)) date 2019-04-18 20:26:35*
%MOMM*%
%LPD*%
G04 APERTURE LIST*
%ADD10C,0.500000*%
%ADD11C,0.150000*%
%ADD12O,1.400000X1.400000*%
%ADD13C,1.400000*%
%ADD14R,1.700000X1.700000*%
%ADD15O,1.700000X1.700000*%
%ADD16C,2.540000*%
%ADD17C,3.000000*%
%ADD18R,1.650000X1.650000*%
%ADD19C,1.650000*%
%ADD20C,1.100000*%
%ADD21O,2.516000X1.258000*%
%ADD22O,1.258000X2.516000*%
%ADD23C,2.000000*%
%ADD24C,3.200000*%
%ADD25R,2.000000X2.000000*%
%ADD26R,1.000000X1.000000*%
%ADD27O,1.000000X1.000000*%
%ADD28C,1.998980*%
%ADD29R,3.000000X3.000000*%
%ADD30R,3.000000X1.800000*%
%ADD31R,1.800000X2.800000*%
%ADD32R,2.800000X1.800000*%
%ADD33C,2.100000*%
%ADD34C,1.750000*%
G04 APERTURE END LIST*
D10*
X164901880Y-91894420D03*
D11*
G36*
X165651880Y-91394420D02*
G01*
X165651880Y-91894420D01*
X165651278Y-91894420D01*
X165651278Y-91918954D01*
X165646468Y-91967785D01*
X165636896Y-92015910D01*
X165622652Y-92062865D01*
X165603875Y-92108198D01*
X165580744Y-92151471D01*
X165553484Y-92192270D01*
X165522356Y-92230199D01*
X165487659Y-92264896D01*
X165449730Y-92296024D01*
X165408931Y-92323284D01*
X165365658Y-92346415D01*
X165320325Y-92365192D01*
X165273370Y-92379436D01*
X165225245Y-92389008D01*
X165176414Y-92393818D01*
X165151880Y-92393818D01*
X165151880Y-92394420D01*
X164651880Y-92394420D01*
X164651880Y-92393818D01*
X164627346Y-92393818D01*
X164578515Y-92389008D01*
X164530390Y-92379436D01*
X164483435Y-92365192D01*
X164438102Y-92346415D01*
X164394829Y-92323284D01*
X164354030Y-92296024D01*
X164316101Y-92264896D01*
X164281404Y-92230199D01*
X164250276Y-92192270D01*
X164223016Y-92151471D01*
X164199885Y-92108198D01*
X164181108Y-92062865D01*
X164166864Y-92015910D01*
X164157292Y-91967785D01*
X164152482Y-91918954D01*
X164152482Y-91894420D01*
X164151880Y-91894420D01*
X164151880Y-91394420D01*
X165651880Y-91394420D01*
X165651880Y-91394420D01*
G37*
D10*
X164901880Y-90594420D03*
D11*
G36*
X164152482Y-90594420D02*
G01*
X164152482Y-90569886D01*
X164157292Y-90521055D01*
X164166864Y-90472930D01*
X164181108Y-90425975D01*
X164199885Y-90380642D01*
X164223016Y-90337369D01*
X164250276Y-90296570D01*
X164281404Y-90258641D01*
X164316101Y-90223944D01*
X164354030Y-90192816D01*
X164394829Y-90165556D01*
X164438102Y-90142425D01*
X164483435Y-90123648D01*
X164530390Y-90109404D01*
X164578515Y-90099832D01*
X164627346Y-90095022D01*
X164651880Y-90095022D01*
X164651880Y-90094420D01*
X165151880Y-90094420D01*
X165151880Y-90095022D01*
X165176414Y-90095022D01*
X165225245Y-90099832D01*
X165273370Y-90109404D01*
X165320325Y-90123648D01*
X165365658Y-90142425D01*
X165408931Y-90165556D01*
X165449730Y-90192816D01*
X165487659Y-90223944D01*
X165522356Y-90258641D01*
X165553484Y-90296570D01*
X165580744Y-90337369D01*
X165603875Y-90380642D01*
X165622652Y-90425975D01*
X165636896Y-90472930D01*
X165646468Y-90521055D01*
X165651278Y-90569886D01*
X165651278Y-90594420D01*
X165651880Y-90594420D01*
X165651880Y-91094420D01*
X164151880Y-91094420D01*
X164151880Y-90594420D01*
X164152482Y-90594420D01*
X164152482Y-90594420D01*
G37*
D12*
X110926880Y-90609420D03*
D13*
X110926880Y-88069420D03*
D12*
X110926880Y-96324420D03*
D13*
X110926880Y-93784420D03*
D12*
X110926880Y-99499420D03*
D13*
X110926880Y-102039420D03*
D10*
X114101880Y-89324420D03*
D11*
G36*
X113352482Y-89324420D02*
G01*
X113352482Y-89299886D01*
X113357292Y-89251055D01*
X113366864Y-89202930D01*
X113381108Y-89155975D01*
X113399885Y-89110642D01*
X113423016Y-89067369D01*
X113450276Y-89026570D01*
X113481404Y-88988641D01*
X113516101Y-88953944D01*
X113554030Y-88922816D01*
X113594829Y-88895556D01*
X113638102Y-88872425D01*
X113683435Y-88853648D01*
X113730390Y-88839404D01*
X113778515Y-88829832D01*
X113827346Y-88825022D01*
X113851880Y-88825022D01*
X113851880Y-88824420D01*
X114351880Y-88824420D01*
X114351880Y-88825022D01*
X114376414Y-88825022D01*
X114425245Y-88829832D01*
X114473370Y-88839404D01*
X114520325Y-88853648D01*
X114565658Y-88872425D01*
X114608931Y-88895556D01*
X114649730Y-88922816D01*
X114687659Y-88953944D01*
X114722356Y-88988641D01*
X114753484Y-89026570D01*
X114780744Y-89067369D01*
X114803875Y-89110642D01*
X114822652Y-89155975D01*
X114836896Y-89202930D01*
X114846468Y-89251055D01*
X114851278Y-89299886D01*
X114851278Y-89324420D01*
X114851880Y-89324420D01*
X114851880Y-89824420D01*
X113351880Y-89824420D01*
X113351880Y-89324420D01*
X113352482Y-89324420D01*
X113352482Y-89324420D01*
G37*
D10*
X114101880Y-90624420D03*
D11*
G36*
X114851880Y-90124420D02*
G01*
X114851880Y-90624420D01*
X114851278Y-90624420D01*
X114851278Y-90648954D01*
X114846468Y-90697785D01*
X114836896Y-90745910D01*
X114822652Y-90792865D01*
X114803875Y-90838198D01*
X114780744Y-90881471D01*
X114753484Y-90922270D01*
X114722356Y-90960199D01*
X114687659Y-90994896D01*
X114649730Y-91026024D01*
X114608931Y-91053284D01*
X114565658Y-91076415D01*
X114520325Y-91095192D01*
X114473370Y-91109436D01*
X114425245Y-91119008D01*
X114376414Y-91123818D01*
X114351880Y-91123818D01*
X114351880Y-91124420D01*
X113851880Y-91124420D01*
X113851880Y-91123818D01*
X113827346Y-91123818D01*
X113778515Y-91119008D01*
X113730390Y-91109436D01*
X113683435Y-91095192D01*
X113638102Y-91076415D01*
X113594829Y-91053284D01*
X113554030Y-91026024D01*
X113516101Y-90994896D01*
X113481404Y-90960199D01*
X113450276Y-90922270D01*
X113423016Y-90881471D01*
X113399885Y-90838198D01*
X113381108Y-90792865D01*
X113366864Y-90745910D01*
X113357292Y-90697785D01*
X113352482Y-90648954D01*
X113352482Y-90624420D01*
X113351880Y-90624420D01*
X113351880Y-90124420D01*
X114851880Y-90124420D01*
X114851880Y-90124420D01*
G37*
D10*
X114101880Y-98849420D03*
D11*
G36*
X113351880Y-99349420D02*
G01*
X113351880Y-98849420D01*
X113352482Y-98849420D01*
X113352482Y-98824886D01*
X113357292Y-98776055D01*
X113366864Y-98727930D01*
X113381108Y-98680975D01*
X113399885Y-98635642D01*
X113423016Y-98592369D01*
X113450276Y-98551570D01*
X113481404Y-98513641D01*
X113516101Y-98478944D01*
X113554030Y-98447816D01*
X113594829Y-98420556D01*
X113638102Y-98397425D01*
X113683435Y-98378648D01*
X113730390Y-98364404D01*
X113778515Y-98354832D01*
X113827346Y-98350022D01*
X113851880Y-98350022D01*
X113851880Y-98349420D01*
X114351880Y-98349420D01*
X114351880Y-98350022D01*
X114376414Y-98350022D01*
X114425245Y-98354832D01*
X114473370Y-98364404D01*
X114520325Y-98378648D01*
X114565658Y-98397425D01*
X114608931Y-98420556D01*
X114649730Y-98447816D01*
X114687659Y-98478944D01*
X114722356Y-98513641D01*
X114753484Y-98551570D01*
X114780744Y-98592369D01*
X114803875Y-98635642D01*
X114822652Y-98680975D01*
X114836896Y-98727930D01*
X114846468Y-98776055D01*
X114851278Y-98824886D01*
X114851278Y-98849420D01*
X114851880Y-98849420D01*
X114851880Y-99349420D01*
X113351880Y-99349420D01*
X113351880Y-99349420D01*
G37*
D10*
X114101880Y-100149420D03*
D11*
G36*
X114851278Y-100149420D02*
G01*
X114851278Y-100173954D01*
X114846468Y-100222785D01*
X114836896Y-100270910D01*
X114822652Y-100317865D01*
X114803875Y-100363198D01*
X114780744Y-100406471D01*
X114753484Y-100447270D01*
X114722356Y-100485199D01*
X114687659Y-100519896D01*
X114649730Y-100551024D01*
X114608931Y-100578284D01*
X114565658Y-100601415D01*
X114520325Y-100620192D01*
X114473370Y-100634436D01*
X114425245Y-100644008D01*
X114376414Y-100648818D01*
X114351880Y-100648818D01*
X114351880Y-100649420D01*
X113851880Y-100649420D01*
X113851880Y-100648818D01*
X113827346Y-100648818D01*
X113778515Y-100644008D01*
X113730390Y-100634436D01*
X113683435Y-100620192D01*
X113638102Y-100601415D01*
X113594829Y-100578284D01*
X113554030Y-100551024D01*
X113516101Y-100519896D01*
X113481404Y-100485199D01*
X113450276Y-100447270D01*
X113423016Y-100406471D01*
X113399885Y-100363198D01*
X113381108Y-100317865D01*
X113366864Y-100270910D01*
X113357292Y-100222785D01*
X113352482Y-100173954D01*
X113352482Y-100149420D01*
X113351880Y-100149420D01*
X113351880Y-99649420D01*
X114851880Y-99649420D01*
X114851880Y-100149420D01*
X114851278Y-100149420D01*
X114851278Y-100149420D01*
G37*
D14*
X135000000Y-90000000D03*
D15*
X135000000Y-92540000D03*
X135000000Y-95080000D03*
X135000000Y-97620000D03*
X135000000Y-100160000D03*
D16*
X117948120Y-83810580D03*
X167000000Y-108000000D03*
D17*
X112500000Y-106500000D03*
X112500000Y-82500000D03*
X171500000Y-82500000D03*
X171500000Y-106500000D03*
D18*
X149800000Y-82400000D03*
D19*
X141400000Y-87400000D03*
X146600000Y-90500000D03*
X140500000Y-82400000D03*
D20*
X145000000Y-82400000D03*
X145000000Y-87400000D03*
D19*
X143400000Y-90500000D03*
D14*
X170000000Y-91000000D03*
D15*
X169911880Y-93799420D03*
X169911880Y-96339420D03*
X169911880Y-98879420D03*
X169911880Y-101419420D03*
D21*
X145250000Y-107500000D03*
D22*
X140050000Y-99700000D03*
X142750000Y-101100000D03*
D21*
X149250000Y-96500000D03*
D22*
X149750000Y-104100000D03*
D21*
X160250000Y-107500000D03*
D22*
X155050000Y-99700000D03*
X157750000Y-101100000D03*
D21*
X164250000Y-96500000D03*
D22*
X164750000Y-104100000D03*
D14*
X93000000Y-105000000D03*
D15*
X95540000Y-105000000D03*
X98080000Y-105000000D03*
X100620000Y-105000000D03*
X103160000Y-105000000D03*
D23*
X100000000Y-85500000D03*
X95000000Y-85500000D03*
D24*
X103100000Y-92500000D03*
X91900000Y-92500000D03*
D23*
X100000000Y-100000000D03*
X97500000Y-100000000D03*
D25*
X95000000Y-100000000D03*
D18*
X129800000Y-82400000D03*
D19*
X121400000Y-87400000D03*
X126600000Y-90500000D03*
X120500000Y-82400000D03*
D20*
X125000000Y-82400000D03*
X125000000Y-87400000D03*
D19*
X123400000Y-90500000D03*
D21*
X125250000Y-107500000D03*
D22*
X120050000Y-99700000D03*
X122750000Y-101100000D03*
D21*
X129250000Y-96500000D03*
D22*
X129750000Y-104100000D03*
D26*
X107750000Y-80500000D03*
D27*
X107750000Y-81770000D03*
X107750000Y-83040000D03*
X107750000Y-84310000D03*
X107750000Y-85580000D03*
X107750000Y-86850000D03*
X107750000Y-88120000D03*
X107750000Y-89390000D03*
X107750000Y-90660000D03*
X107750000Y-91930000D03*
X107750000Y-93200000D03*
X107750000Y-94470000D03*
X107750000Y-95740000D03*
X107750000Y-97010000D03*
X107750000Y-98280000D03*
X107750000Y-99550000D03*
X107750000Y-100820000D03*
X107750000Y-102090000D03*
X107750000Y-103360000D03*
X107750000Y-104630000D03*
X107750000Y-105900000D03*
X107750000Y-107170000D03*
X107750000Y-108440000D03*
D28*
X135000000Y-107000000D03*
X131911880Y-88259420D03*
X166000000Y-84000000D03*
X153000000Y-93000000D03*
X103000000Y-82000000D03*
X117000000Y-107000000D03*
D13*
X156500000Y-81509420D03*
X156500000Y-86009420D03*
D29*
X153500000Y-82009420D03*
X161200000Y-82009420D03*
D30*
X152300000Y-86009420D03*
X160700000Y-86009420D03*
D31*
X156500000Y-89009420D03*
D32*
X159300000Y-88509420D03*
X153700000Y-88509420D03*
D28*
X92000000Y-102000000D03*
D14*
X117276880Y-88069420D03*
D15*
X117276880Y-90609420D03*
X117276880Y-93149420D03*
X117276880Y-95689420D03*
X117276880Y-98229420D03*
X117276880Y-100769420D03*
D14*
X170911880Y-87259420D03*
D15*
X168371880Y-87259420D03*
D14*
X142875000Y-93657420D03*
X139700000Y-93657420D03*
X165911880Y-81259420D03*
D28*
X131246880Y-91244420D03*
D33*
X138760000Y-85490000D03*
D34*
X137500000Y-83000000D03*
X133000000Y-83000000D03*
D33*
X131750000Y-85490000D03*
M02*
