G04 #@! TF.GenerationSoftware,KiCad,Pcbnew,(5.1.0-0)*
G04 #@! TF.CreationDate,2019-04-18T20:26:35-04:00*
G04 #@! TF.ProjectId,ubitx_panel,75626974-785f-4706-916e-656c2e6b6963,0.1*
G04 #@! TF.SameCoordinates,Original*
G04 #@! TF.FileFunction,Drawing*
%FSLAX46Y46*%
G04 Gerber Fmt 4.6, Leading zero omitted, Abs format (unit mm)*
G04 Created by KiCad (PCBNEW (5.1.0-0)) date 2019-04-18 20:26:35*
%MOMM*%
%LPD*%
G04 APERTURE LIST*
%ADD10C,0.200000*%
%ADD11C,0.127000*%
G04 APERTURE END LIST*
D10*
X126325641Y-73257372D02*
X126230403Y-73209753D01*
X126182784Y-73162134D01*
X126135165Y-73066896D01*
X126135165Y-73019277D01*
X126182784Y-72924039D01*
X126230403Y-72876420D01*
X126325641Y-72828800D01*
X126516118Y-72828800D01*
X126611356Y-72876420D01*
X126658975Y-72924039D01*
X126706594Y-73019277D01*
X126706594Y-73066896D01*
X126658975Y-73162134D01*
X126611356Y-73209753D01*
X126516118Y-73257372D01*
X126325641Y-73257372D01*
X126230403Y-73304991D01*
X126182784Y-73352610D01*
X126135165Y-73447848D01*
X126135165Y-73638324D01*
X126182784Y-73733562D01*
X126230403Y-73781181D01*
X126325641Y-73828800D01*
X126516118Y-73828800D01*
X126611356Y-73781181D01*
X126658975Y-73733562D01*
X126706594Y-73638324D01*
X126706594Y-73447848D01*
X126658975Y-73352610D01*
X126611356Y-73304991D01*
X126516118Y-73257372D01*
X127135165Y-73733562D02*
X127182784Y-73781181D01*
X127135165Y-73828800D01*
X127087546Y-73781181D01*
X127135165Y-73733562D01*
X127135165Y-73828800D01*
X127516118Y-72828800D02*
X128135165Y-72828800D01*
X127801832Y-73209753D01*
X127944689Y-73209753D01*
X128039927Y-73257372D01*
X128087546Y-73304991D01*
X128135165Y-73400229D01*
X128135165Y-73638324D01*
X128087546Y-73733562D01*
X128039927Y-73781181D01*
X127944689Y-73828800D01*
X127658975Y-73828800D01*
X127563737Y-73781181D01*
X127516118Y-73733562D01*
X128563737Y-73828800D02*
X128563737Y-73162134D01*
X128563737Y-73257372D02*
X128611356Y-73209753D01*
X128706594Y-73162134D01*
X128849451Y-73162134D01*
X128944689Y-73209753D01*
X128992308Y-73304991D01*
X128992308Y-73828800D01*
X128992308Y-73304991D02*
X129039927Y-73209753D01*
X129135165Y-73162134D01*
X129278022Y-73162134D01*
X129373260Y-73209753D01*
X129420880Y-73304991D01*
X129420880Y-73828800D01*
X129897070Y-73828800D02*
X129897070Y-73162134D01*
X129897070Y-73257372D02*
X129944689Y-73209753D01*
X130039927Y-73162134D01*
X130182784Y-73162134D01*
X130278022Y-73209753D01*
X130325641Y-73304991D01*
X130325641Y-73828800D01*
X130325641Y-73304991D02*
X130373260Y-73209753D01*
X130468499Y-73162134D01*
X130611356Y-73162134D01*
X130706594Y-73209753D01*
X130754213Y-73304991D01*
X130754213Y-73828800D01*
X131135165Y-73495467D02*
X131992308Y-73495467D01*
X132278022Y-73495467D02*
X133135165Y-73495467D01*
X133516118Y-73162134D02*
X134278022Y-73447848D01*
X133516118Y-73733562D01*
X120516118Y-75528800D02*
X120516118Y-74528800D01*
X120897070Y-74528800D01*
X120992308Y-74576420D01*
X121039927Y-74624039D01*
X121087546Y-74719277D01*
X121087546Y-74862134D01*
X121039927Y-74957372D01*
X120992308Y-75004991D01*
X120897070Y-75052610D01*
X120516118Y-75052610D01*
X121373260Y-74528800D02*
X121944689Y-74528800D01*
X121658975Y-75528800D02*
X121658975Y-74528800D01*
X122135165Y-74528800D02*
X122706594Y-74528800D01*
X122420880Y-75528800D02*
X122420880Y-74528800D01*
X123754213Y-75481181D02*
X123849451Y-75528800D01*
X124039927Y-75528800D01*
X124135165Y-75481181D01*
X124182784Y-75385943D01*
X124182784Y-75338324D01*
X124135165Y-75243086D01*
X124039927Y-75195467D01*
X123897070Y-75195467D01*
X123801832Y-75147848D01*
X123754213Y-75052610D01*
X123754213Y-75004991D01*
X123801832Y-74909753D01*
X123897070Y-74862134D01*
X124039927Y-74862134D01*
X124135165Y-74909753D01*
X124516118Y-74862134D02*
X124706594Y-75528800D01*
X124897070Y-75052610D01*
X125087546Y-75528800D01*
X125278022Y-74862134D01*
X125658975Y-75528800D02*
X125658975Y-74862134D01*
X125658975Y-74528800D02*
X125611356Y-74576420D01*
X125658975Y-74624039D01*
X125706594Y-74576420D01*
X125658975Y-74528800D01*
X125658975Y-74624039D01*
X125992308Y-74862134D02*
X126373260Y-74862134D01*
X126135165Y-74528800D02*
X126135165Y-75385943D01*
X126182784Y-75481181D01*
X126278022Y-75528800D01*
X126373260Y-75528800D01*
X127135165Y-75481181D02*
X127039927Y-75528800D01*
X126849451Y-75528800D01*
X126754213Y-75481181D01*
X126706594Y-75433562D01*
X126658975Y-75338324D01*
X126658975Y-75052610D01*
X126706594Y-74957372D01*
X126754213Y-74909753D01*
X126849451Y-74862134D01*
X127039927Y-74862134D01*
X127135165Y-74909753D01*
X127563737Y-75528800D02*
X127563737Y-74528800D01*
X127992308Y-75528800D02*
X127992308Y-75004991D01*
X127944689Y-74909753D01*
X127849451Y-74862134D01*
X127706594Y-74862134D01*
X127611356Y-74909753D01*
X127563737Y-74957372D01*
X129182784Y-75481181D02*
X129278022Y-75528800D01*
X129468499Y-75528800D01*
X129563737Y-75481181D01*
X129611356Y-75385943D01*
X129611356Y-75338324D01*
X129563737Y-75243086D01*
X129468499Y-75195467D01*
X129325641Y-75195467D01*
X129230403Y-75147848D01*
X129182784Y-75052610D01*
X129182784Y-75004991D01*
X129230403Y-74909753D01*
X129325641Y-74862134D01*
X129468499Y-74862134D01*
X129563737Y-74909753D01*
X129897070Y-74862134D02*
X130278022Y-74862134D01*
X130039927Y-74528800D02*
X130039927Y-75385943D01*
X130087546Y-75481181D01*
X130182784Y-75528800D01*
X130278022Y-75528800D01*
X130992308Y-75481181D02*
X130897070Y-75528800D01*
X130706594Y-75528800D01*
X130611356Y-75481181D01*
X130563737Y-75385943D01*
X130563737Y-75004991D01*
X130611356Y-74909753D01*
X130706594Y-74862134D01*
X130897070Y-74862134D01*
X130992308Y-74909753D01*
X131039927Y-75004991D01*
X131039927Y-75100229D01*
X130563737Y-75195467D01*
X131468499Y-75528800D02*
X131468499Y-74862134D01*
X131468499Y-74957372D02*
X131516118Y-74909753D01*
X131611356Y-74862134D01*
X131754213Y-74862134D01*
X131849451Y-74909753D01*
X131897070Y-75004991D01*
X131897070Y-75528800D01*
X131897070Y-75004991D02*
X131944689Y-74909753D01*
X132039927Y-74862134D01*
X132182784Y-74862134D01*
X132278022Y-74909753D01*
X132325641Y-75004991D01*
X132325641Y-75528800D01*
D11*
X149700000Y-79500000D02*
X149700000Y-90500000D01*
X149700000Y-90500000D02*
X140700000Y-90500000D01*
X149700000Y-79500000D02*
X148000000Y-79500000D01*
X148000000Y-79500000D02*
X147250000Y-79500000D01*
X147250000Y-79500000D02*
X147250000Y-80800000D01*
X147250000Y-80800000D02*
X142750000Y-80800000D01*
X142750000Y-80800000D02*
X142750000Y-79500000D01*
X142750000Y-79500000D02*
X142000000Y-79500000D01*
X142000000Y-79500000D02*
X140700000Y-79500000D01*
X140700000Y-79500000D02*
X140700000Y-90500000D01*
X148000000Y-79500000D02*
X148000000Y-76500000D01*
X148000000Y-76500000D02*
X142000000Y-76500000D01*
X142000000Y-76500000D02*
X142000000Y-79500000D01*
X150750000Y-109500000D02*
X148250000Y-109500000D01*
X148250000Y-109500000D02*
X142250000Y-109500000D01*
X142250000Y-109500000D02*
X139250000Y-109500000D01*
X139250000Y-109500000D02*
X139250000Y-95500000D01*
X139250000Y-95500000D02*
X150750000Y-95500000D01*
X150750000Y-95500000D02*
X150750000Y-109500000D01*
D10*
X145350000Y-108600000D02*
G75*
G03X145350000Y-108600000I-100000J0D01*
G01*
D11*
X142250000Y-109500000D02*
X142250000Y-113000000D01*
X142250000Y-113000000D02*
X148250000Y-113000000D01*
X148250000Y-113000000D02*
X148250000Y-109500000D01*
X165750000Y-109500000D02*
X163250000Y-109500000D01*
X163250000Y-109500000D02*
X157250000Y-109500000D01*
X157250000Y-109500000D02*
X154250000Y-109500000D01*
X154250000Y-109500000D02*
X154250000Y-95500000D01*
X154250000Y-95500000D02*
X165750000Y-95500000D01*
X165750000Y-95500000D02*
X165750000Y-109500000D01*
D10*
X160350000Y-108600000D02*
G75*
G03X160350000Y-108600000I-100000J0D01*
G01*
D11*
X157250000Y-109500000D02*
X157250000Y-113000000D01*
X157250000Y-113000000D02*
X163250000Y-113000000D01*
X163250000Y-113000000D02*
X163250000Y-109500000D01*
X129700000Y-79500000D02*
X129700000Y-90500000D01*
X129700000Y-90500000D02*
X120700000Y-90500000D01*
X129700000Y-79500000D02*
X128000000Y-79500000D01*
X128000000Y-79500000D02*
X127250000Y-79500000D01*
X127250000Y-79500000D02*
X127250000Y-80800000D01*
X127250000Y-80800000D02*
X122750000Y-80800000D01*
X122750000Y-80800000D02*
X122750000Y-79500000D01*
X122750000Y-79500000D02*
X122000000Y-79500000D01*
X122000000Y-79500000D02*
X120700000Y-79500000D01*
X120700000Y-79500000D02*
X120700000Y-90500000D01*
X128000000Y-79500000D02*
X128000000Y-76500000D01*
X128000000Y-76500000D02*
X122000000Y-76500000D01*
X122000000Y-76500000D02*
X122000000Y-79500000D01*
X130750000Y-109500000D02*
X128250000Y-109500000D01*
X128250000Y-109500000D02*
X122250000Y-109500000D01*
X122250000Y-109500000D02*
X119250000Y-109500000D01*
X119250000Y-109500000D02*
X119250000Y-95500000D01*
X119250000Y-95500000D02*
X130750000Y-95500000D01*
X130750000Y-95500000D02*
X130750000Y-109500000D01*
D10*
X125350000Y-108600000D02*
G75*
G03X125350000Y-108600000I-100000J0D01*
G01*
D11*
X122250000Y-109500000D02*
X122250000Y-113000000D01*
X122250000Y-113000000D02*
X128250000Y-113000000D01*
X128250000Y-113000000D02*
X128250000Y-109500000D01*
X160500000Y-79509420D02*
X160500000Y-89009420D01*
X160500000Y-89009420D02*
X152500000Y-89009420D01*
X152500000Y-89009420D02*
X152500000Y-79509420D01*
X152500000Y-79509420D02*
X154000000Y-79509420D01*
X154000000Y-79509420D02*
X159000000Y-79509420D01*
X159000000Y-79509420D02*
X160500000Y-79509420D01*
X159000000Y-79509420D02*
X159000000Y-77009420D01*
X159000000Y-77009420D02*
X154000000Y-77009420D01*
X154000000Y-77009420D02*
X154000000Y-79509420D01*
D10*
X157235000Y-87188420D02*
G75*
G03X157235000Y-87188420I-100000J0D01*
G01*
M02*
