G04 #@! TF.GenerationSoftware,KiCad,Pcbnew,(5.1.0-0)*
G04 #@! TF.CreationDate,2019-04-18T20:26:35-04:00*
G04 #@! TF.ProjectId,ubitx_panel,75626974-785f-4706-916e-656c2e6b6963,0.1*
G04 #@! TF.SameCoordinates,Original*
G04 #@! TF.FileFunction,Legend,Top*
G04 #@! TF.FilePolarity,Positive*
%FSLAX46Y46*%
G04 Gerber Fmt 4.6, Leading zero omitted, Abs format (unit mm)*
G04 Created by KiCad (PCBNEW (5.1.0-0)) date 2019-04-18 20:26:35*
%MOMM*%
%LPD*%
G04 APERTURE LIST*
%ADD10C,0.150000*%
%ADD11C,0.300000*%
%ADD12C,0.200000*%
%ADD13C,0.250000*%
%ADD14C,0.120000*%
%ADD15C,0.127000*%
%ADD16C,0.400000*%
%ADD17C,0.050000*%
G04 APERTURE END LIST*
D10*
X166259260Y-92077753D02*
X166973546Y-92077753D01*
X167116403Y-92125372D01*
X167211641Y-92220610D01*
X167259260Y-92363467D01*
X167259260Y-92458705D01*
X167259260Y-91601562D02*
X166259260Y-91601562D01*
X166259260Y-91220610D01*
X166306880Y-91125372D01*
X166354499Y-91077753D01*
X166449737Y-91030134D01*
X166592594Y-91030134D01*
X166687832Y-91077753D01*
X166735451Y-91125372D01*
X166783070Y-91220610D01*
X166783070Y-91601562D01*
X167259260Y-90077753D02*
X167259260Y-90649181D01*
X167259260Y-90363467D02*
X166259260Y-90363467D01*
X166402118Y-90458705D01*
X166497356Y-90553943D01*
X166544975Y-90649181D01*
X113268546Y-96792800D02*
X113268546Y-97507086D01*
X113220927Y-97649943D01*
X113125689Y-97745181D01*
X112982832Y-97792800D01*
X112887594Y-97792800D01*
X113744737Y-97792800D02*
X113744737Y-96792800D01*
X114125689Y-96792800D01*
X114220927Y-96840420D01*
X114268546Y-96888039D01*
X114316165Y-96983277D01*
X114316165Y-97126134D01*
X114268546Y-97221372D01*
X114220927Y-97268991D01*
X114125689Y-97316610D01*
X113744737Y-97316610D01*
X114697118Y-96888039D02*
X114744737Y-96840420D01*
X114839975Y-96792800D01*
X115078070Y-96792800D01*
X115173308Y-96840420D01*
X115220927Y-96888039D01*
X115268546Y-96983277D01*
X115268546Y-97078515D01*
X115220927Y-97221372D01*
X114649499Y-97792800D01*
X115268546Y-97792800D01*
X113268546Y-87013800D02*
X113268546Y-87728086D01*
X113220927Y-87870943D01*
X113125689Y-87966181D01*
X112982832Y-88013800D01*
X112887594Y-88013800D01*
X113744737Y-88013800D02*
X113744737Y-87013800D01*
X114125689Y-87013800D01*
X114220927Y-87061420D01*
X114268546Y-87109039D01*
X114316165Y-87204277D01*
X114316165Y-87347134D01*
X114268546Y-87442372D01*
X114220927Y-87489991D01*
X114125689Y-87537610D01*
X113744737Y-87537610D01*
X114649499Y-87013800D02*
X115268546Y-87013800D01*
X114935213Y-87394753D01*
X115078070Y-87394753D01*
X115173308Y-87442372D01*
X115220927Y-87489991D01*
X115268546Y-87585229D01*
X115268546Y-87823324D01*
X115220927Y-87918562D01*
X115173308Y-87966181D01*
X115078070Y-88013800D01*
X114792356Y-88013800D01*
X114697118Y-87966181D01*
X114649499Y-87918562D01*
X134033070Y-81282800D02*
X134033070Y-80282800D01*
X134414022Y-80282800D01*
X134509260Y-80330420D01*
X134556880Y-80378039D01*
X134604499Y-80473277D01*
X134604499Y-80616134D01*
X134556880Y-80711372D01*
X134509260Y-80758991D01*
X134414022Y-80806610D01*
X134033070Y-80806610D01*
X134890213Y-80282800D02*
X135461641Y-80282800D01*
X135175927Y-81282800D02*
X135175927Y-80282800D01*
X135652118Y-80282800D02*
X136223546Y-80282800D01*
X135937832Y-81282800D02*
X135937832Y-80282800D01*
D11*
X132770880Y-91244420D02*
G75*
G03X133151880Y-89085420I-889000J1270000D01*
G01*
D12*
X112903260Y-101364658D02*
X112903260Y-101936086D01*
X112903260Y-101650372D02*
X111903260Y-101650372D01*
X112046118Y-101745610D01*
X112141356Y-101840848D01*
X112188975Y-101936086D01*
X111903260Y-100745610D02*
X111903260Y-100650372D01*
X111950880Y-100555134D01*
X111998499Y-100507515D01*
X112093737Y-100459896D01*
X112284213Y-100412277D01*
X112522308Y-100412277D01*
X112712784Y-100459896D01*
X112808022Y-100507515D01*
X112855641Y-100555134D01*
X112903260Y-100650372D01*
X112903260Y-100745610D01*
X112855641Y-100840848D01*
X112808022Y-100888467D01*
X112712784Y-100936086D01*
X112522308Y-100983705D01*
X112284213Y-100983705D01*
X112093737Y-100936086D01*
X111998499Y-100888467D01*
X111950880Y-100840848D01*
X111903260Y-100745610D01*
X112903260Y-99983705D02*
X111903260Y-99983705D01*
X112522308Y-99888467D02*
X112903260Y-99602753D01*
X112236594Y-99602753D02*
X112617546Y-99983705D01*
X111998499Y-90760086D02*
X111950880Y-90712467D01*
X111903260Y-90617229D01*
X111903260Y-90379134D01*
X111950880Y-90283896D01*
X111998499Y-90236277D01*
X112093737Y-90188658D01*
X112188975Y-90188658D01*
X112331832Y-90236277D01*
X112903260Y-90807705D01*
X112903260Y-90188658D01*
X112903260Y-89760086D02*
X111903260Y-89760086D01*
X112522308Y-89664848D02*
X112903260Y-89379134D01*
X112236594Y-89379134D02*
X112617546Y-89760086D01*
X111998499Y-88998181D02*
X111950880Y-88950562D01*
X111903260Y-88855324D01*
X111903260Y-88617229D01*
X111950880Y-88521991D01*
X111998499Y-88474372D01*
X112093737Y-88426753D01*
X112188975Y-88426753D01*
X112331832Y-88474372D01*
X112903260Y-89045800D01*
X112903260Y-88426753D01*
D13*
X133628308Y-104619134D02*
X133866403Y-105285800D01*
X134104499Y-104619134D01*
X134675927Y-104285800D02*
X134771165Y-104285800D01*
X134866403Y-104333420D01*
X134914022Y-104381039D01*
X134961641Y-104476277D01*
X135009260Y-104666753D01*
X135009260Y-104904848D01*
X134961641Y-105095324D01*
X134914022Y-105190562D01*
X134866403Y-105238181D01*
X134771165Y-105285800D01*
X134675927Y-105285800D01*
X134580689Y-105238181D01*
X134533070Y-105190562D01*
X134485451Y-105095324D01*
X134437832Y-104904848D01*
X134437832Y-104666753D01*
X134485451Y-104476277D01*
X134533070Y-104381039D01*
X134580689Y-104333420D01*
X134675927Y-104285800D01*
X135437832Y-105190562D02*
X135485451Y-105238181D01*
X135437832Y-105285800D01*
X135390213Y-105238181D01*
X135437832Y-105190562D01*
X135437832Y-105285800D01*
X135818784Y-104285800D02*
X136437832Y-104285800D01*
X136104499Y-104666753D01*
X136247356Y-104666753D01*
X136342594Y-104714372D01*
X136390213Y-104761991D01*
X136437832Y-104857229D01*
X136437832Y-105095324D01*
X136390213Y-105190562D01*
X136342594Y-105238181D01*
X136247356Y-105285800D01*
X135961641Y-105285800D01*
X135866403Y-105238181D01*
X135818784Y-105190562D01*
X90733308Y-84045134D02*
X90971403Y-84711800D01*
X91209499Y-84045134D01*
X91780927Y-83711800D02*
X91876165Y-83711800D01*
X91971403Y-83759420D01*
X92019022Y-83807039D01*
X92066641Y-83902277D01*
X92114260Y-84092753D01*
X92114260Y-84330848D01*
X92066641Y-84521324D01*
X92019022Y-84616562D01*
X91971403Y-84664181D01*
X91876165Y-84711800D01*
X91780927Y-84711800D01*
X91685689Y-84664181D01*
X91638070Y-84616562D01*
X91590451Y-84521324D01*
X91542832Y-84330848D01*
X91542832Y-84092753D01*
X91590451Y-83902277D01*
X91638070Y-83807039D01*
X91685689Y-83759420D01*
X91780927Y-83711800D01*
X92542832Y-84616562D02*
X92590451Y-84664181D01*
X92542832Y-84711800D01*
X92495213Y-84664181D01*
X92542832Y-84616562D01*
X92542832Y-84711800D01*
X92923784Y-83711800D02*
X93542832Y-83711800D01*
X93209499Y-84092753D01*
X93352356Y-84092753D01*
X93447594Y-84140372D01*
X93495213Y-84187991D01*
X93542832Y-84283229D01*
X93542832Y-84521324D01*
X93495213Y-84616562D01*
X93447594Y-84664181D01*
X93352356Y-84711800D01*
X93066641Y-84711800D01*
X92971403Y-84664181D01*
X92923784Y-84616562D01*
D12*
X118971403Y-106045134D02*
X118971403Y-106854658D01*
X118923784Y-106949896D01*
X118876165Y-106997515D01*
X118780927Y-107045134D01*
X118638070Y-107045134D01*
X118542832Y-106997515D01*
X118971403Y-106664181D02*
X118876165Y-106711800D01*
X118685689Y-106711800D01*
X118590451Y-106664181D01*
X118542832Y-106616562D01*
X118495213Y-106521324D01*
X118495213Y-106235610D01*
X118542832Y-106140372D01*
X118590451Y-106092753D01*
X118685689Y-106045134D01*
X118876165Y-106045134D01*
X118971403Y-106092753D01*
X119447594Y-106045134D02*
X119447594Y-106711800D01*
X119447594Y-106140372D02*
X119495213Y-106092753D01*
X119590451Y-106045134D01*
X119733308Y-106045134D01*
X119828546Y-106092753D01*
X119876165Y-106187991D01*
X119876165Y-106711800D01*
X120780927Y-106711800D02*
X120780927Y-105711800D01*
X120780927Y-106664181D02*
X120685689Y-106711800D01*
X120495213Y-106711800D01*
X120399975Y-106664181D01*
X120352356Y-106616562D01*
X120304737Y-106521324D01*
X120304737Y-106235610D01*
X120352356Y-106140372D01*
X120399975Y-106092753D01*
X120495213Y-106045134D01*
X120685689Y-106045134D01*
X120780927Y-106092753D01*
D13*
X166346403Y-89831277D02*
X166441641Y-89640800D01*
X166441641Y-89259848D01*
X166346403Y-89069372D01*
X166155927Y-88974134D01*
X166060689Y-88974134D01*
X165870213Y-89069372D01*
X165774975Y-89259848D01*
X165774975Y-89545562D01*
X165679737Y-89736039D01*
X165489260Y-89831277D01*
X165394022Y-89831277D01*
X165203546Y-89736039D01*
X165108308Y-89545562D01*
X165108308Y-89259848D01*
X165203546Y-89069372D01*
X165108308Y-88116991D02*
X167108308Y-88116991D01*
X165203546Y-88116991D02*
X165108308Y-87926515D01*
X165108308Y-87545562D01*
X165203546Y-87355086D01*
X165298784Y-87259848D01*
X165489260Y-87164610D01*
X166060689Y-87164610D01*
X166251165Y-87259848D01*
X166346403Y-87355086D01*
X166441641Y-87545562D01*
X166441641Y-87926515D01*
X166346403Y-88116991D01*
X166441641Y-86307467D02*
X164441641Y-86307467D01*
X165679737Y-86116991D02*
X166441641Y-85545562D01*
X165108308Y-85545562D02*
X165870213Y-86307467D01*
X137402451Y-107884705D02*
X138402451Y-107884705D01*
X137402451Y-108527562D02*
X138188165Y-108527562D01*
X138331022Y-108456134D01*
X138402451Y-108313277D01*
X138402451Y-108098991D01*
X138331022Y-107956134D01*
X138259594Y-107884705D01*
X137616737Y-106670420D02*
X137688165Y-106456134D01*
X137759594Y-106384705D01*
X137902451Y-106313277D01*
X138116737Y-106313277D01*
X138259594Y-106384705D01*
X138331022Y-106456134D01*
X138402451Y-106598991D01*
X138402451Y-107170420D01*
X136902451Y-107170420D01*
X136902451Y-106670420D01*
X136973880Y-106527562D01*
X137045308Y-106456134D01*
X137188165Y-106384705D01*
X137331022Y-106384705D01*
X137473880Y-106456134D01*
X137545308Y-106527562D01*
X137616737Y-106670420D01*
X137616737Y-107170420D01*
X138402451Y-105670420D02*
X137402451Y-105670420D01*
X136902451Y-105670420D02*
X136973880Y-105741848D01*
X137045308Y-105670420D01*
X136973880Y-105598991D01*
X136902451Y-105670420D01*
X137045308Y-105670420D01*
X137402451Y-105170420D02*
X137402451Y-104598991D01*
X136902451Y-104956134D02*
X138188165Y-104956134D01*
X138331022Y-104884705D01*
X138402451Y-104741848D01*
X138402451Y-104598991D01*
X138402451Y-104241848D02*
X137402451Y-103456134D01*
X137402451Y-104241848D02*
X138402451Y-103456134D01*
X137402451Y-101741848D02*
X138902451Y-101741848D01*
X137473880Y-101741848D02*
X137402451Y-101598991D01*
X137402451Y-101313277D01*
X137473880Y-101170420D01*
X137545308Y-101098991D01*
X137688165Y-101027562D01*
X138116737Y-101027562D01*
X138259594Y-101098991D01*
X138331022Y-101170420D01*
X138402451Y-101313277D01*
X138402451Y-101598991D01*
X138331022Y-101741848D01*
X138402451Y-99741848D02*
X137616737Y-99741848D01*
X137473880Y-99813277D01*
X137402451Y-99956134D01*
X137402451Y-100241848D01*
X137473880Y-100384705D01*
X138331022Y-99741848D02*
X138402451Y-99884705D01*
X138402451Y-100241848D01*
X138331022Y-100384705D01*
X138188165Y-100456134D01*
X138045308Y-100456134D01*
X137902451Y-100384705D01*
X137831022Y-100241848D01*
X137831022Y-99884705D01*
X137759594Y-99741848D01*
X137402451Y-99027562D02*
X138402451Y-99027562D01*
X137545308Y-99027562D02*
X137473880Y-98956134D01*
X137402451Y-98813277D01*
X137402451Y-98598991D01*
X137473880Y-98456134D01*
X137616737Y-98384705D01*
X138402451Y-98384705D01*
X138331022Y-97098991D02*
X138402451Y-97241848D01*
X138402451Y-97527562D01*
X138331022Y-97670420D01*
X138188165Y-97741848D01*
X137616737Y-97741848D01*
X137473880Y-97670420D01*
X137402451Y-97527562D01*
X137402451Y-97241848D01*
X137473880Y-97098991D01*
X137616737Y-97027562D01*
X137759594Y-97027562D01*
X137902451Y-97741848D01*
X138402451Y-96170420D02*
X138331022Y-96313277D01*
X138188165Y-96384705D01*
X136902451Y-96384705D01*
D12*
X154721403Y-91545134D02*
X154721403Y-92354658D01*
X154673784Y-92449896D01*
X154626165Y-92497515D01*
X154530927Y-92545134D01*
X154388070Y-92545134D01*
X154292832Y-92497515D01*
X154721403Y-92164181D02*
X154626165Y-92211800D01*
X154435689Y-92211800D01*
X154340451Y-92164181D01*
X154292832Y-92116562D01*
X154245213Y-92021324D01*
X154245213Y-91735610D01*
X154292832Y-91640372D01*
X154340451Y-91592753D01*
X154435689Y-91545134D01*
X154626165Y-91545134D01*
X154721403Y-91592753D01*
X155197594Y-91545134D02*
X155197594Y-92211800D01*
X155197594Y-91640372D02*
X155245213Y-91592753D01*
X155340451Y-91545134D01*
X155483308Y-91545134D01*
X155578546Y-91592753D01*
X155626165Y-91687991D01*
X155626165Y-92211800D01*
X156530927Y-92211800D02*
X156530927Y-91211800D01*
X156530927Y-92164181D02*
X156435689Y-92211800D01*
X156245213Y-92211800D01*
X156149975Y-92164181D01*
X156102356Y-92116562D01*
X156054737Y-92021324D01*
X156054737Y-91735610D01*
X156102356Y-91640372D01*
X156149975Y-91592753D01*
X156245213Y-91545134D01*
X156435689Y-91545134D01*
X156530927Y-91592753D01*
X167447594Y-84699896D02*
X168257118Y-84699896D01*
X168352356Y-84747515D01*
X168399975Y-84795134D01*
X168447594Y-84890372D01*
X168447594Y-85033229D01*
X168399975Y-85128467D01*
X168066641Y-84699896D02*
X168114260Y-84795134D01*
X168114260Y-84985610D01*
X168066641Y-85080848D01*
X168019022Y-85128467D01*
X167923784Y-85176086D01*
X167638070Y-85176086D01*
X167542832Y-85128467D01*
X167495213Y-85080848D01*
X167447594Y-84985610D01*
X167447594Y-84795134D01*
X167495213Y-84699896D01*
X167447594Y-84223705D02*
X168114260Y-84223705D01*
X167542832Y-84223705D02*
X167495213Y-84176086D01*
X167447594Y-84080848D01*
X167447594Y-83937991D01*
X167495213Y-83842753D01*
X167590451Y-83795134D01*
X168114260Y-83795134D01*
X168114260Y-82890372D02*
X167114260Y-82890372D01*
X168066641Y-82890372D02*
X168114260Y-82985610D01*
X168114260Y-83176086D01*
X168066641Y-83271324D01*
X168019022Y-83318943D01*
X167923784Y-83366562D01*
X167638070Y-83366562D01*
X167542832Y-83318943D01*
X167495213Y-83271324D01*
X167447594Y-83176086D01*
X167447594Y-82985610D01*
X167495213Y-82890372D01*
X133731403Y-87220134D02*
X133731403Y-88029658D01*
X133683784Y-88124896D01*
X133636165Y-88172515D01*
X133540927Y-88220134D01*
X133398070Y-88220134D01*
X133302832Y-88172515D01*
X133731403Y-87839181D02*
X133636165Y-87886800D01*
X133445689Y-87886800D01*
X133350451Y-87839181D01*
X133302832Y-87791562D01*
X133255213Y-87696324D01*
X133255213Y-87410610D01*
X133302832Y-87315372D01*
X133350451Y-87267753D01*
X133445689Y-87220134D01*
X133636165Y-87220134D01*
X133731403Y-87267753D01*
X134207594Y-87220134D02*
X134207594Y-87886800D01*
X134207594Y-87315372D02*
X134255213Y-87267753D01*
X134350451Y-87220134D01*
X134493308Y-87220134D01*
X134588546Y-87267753D01*
X134636165Y-87362991D01*
X134636165Y-87886800D01*
X135540927Y-87886800D02*
X135540927Y-86886800D01*
X135540927Y-87839181D02*
X135445689Y-87886800D01*
X135255213Y-87886800D01*
X135159975Y-87839181D01*
X135112356Y-87791562D01*
X135064737Y-87696324D01*
X135064737Y-87410610D01*
X135112356Y-87315372D01*
X135159975Y-87267753D01*
X135255213Y-87220134D01*
X135445689Y-87220134D01*
X135540927Y-87267753D01*
X131191403Y-106905134D02*
X131191403Y-107714658D01*
X131143784Y-107809896D01*
X131096165Y-107857515D01*
X131000927Y-107905134D01*
X130858070Y-107905134D01*
X130762832Y-107857515D01*
X131191403Y-107524181D02*
X131096165Y-107571800D01*
X130905689Y-107571800D01*
X130810451Y-107524181D01*
X130762832Y-107476562D01*
X130715213Y-107381324D01*
X130715213Y-107095610D01*
X130762832Y-107000372D01*
X130810451Y-106952753D01*
X130905689Y-106905134D01*
X131096165Y-106905134D01*
X131191403Y-106952753D01*
X131667594Y-106905134D02*
X131667594Y-107571800D01*
X131667594Y-107000372D02*
X131715213Y-106952753D01*
X131810451Y-106905134D01*
X131953308Y-106905134D01*
X132048546Y-106952753D01*
X132096165Y-107047991D01*
X132096165Y-107571800D01*
X133000927Y-107571800D02*
X133000927Y-106571800D01*
X133000927Y-107524181D02*
X132905689Y-107571800D01*
X132715213Y-107571800D01*
X132619975Y-107524181D01*
X132572356Y-107476562D01*
X132524737Y-107381324D01*
X132524737Y-107095610D01*
X132572356Y-107000372D01*
X132619975Y-106952753D01*
X132715213Y-106905134D01*
X132905689Y-106905134D01*
X133000927Y-106952753D01*
X93721403Y-102045134D02*
X93721403Y-102854658D01*
X93673784Y-102949896D01*
X93626165Y-102997515D01*
X93530927Y-103045134D01*
X93388070Y-103045134D01*
X93292832Y-102997515D01*
X93721403Y-102664181D02*
X93626165Y-102711800D01*
X93435689Y-102711800D01*
X93340451Y-102664181D01*
X93292832Y-102616562D01*
X93245213Y-102521324D01*
X93245213Y-102235610D01*
X93292832Y-102140372D01*
X93340451Y-102092753D01*
X93435689Y-102045134D01*
X93626165Y-102045134D01*
X93721403Y-102092753D01*
X94197594Y-102045134D02*
X94197594Y-102711800D01*
X94197594Y-102140372D02*
X94245213Y-102092753D01*
X94340451Y-102045134D01*
X94483308Y-102045134D01*
X94578546Y-102092753D01*
X94626165Y-102187991D01*
X94626165Y-102711800D01*
X95530927Y-102711800D02*
X95530927Y-101711800D01*
X95530927Y-102664181D02*
X95435689Y-102711800D01*
X95245213Y-102711800D01*
X95149975Y-102664181D01*
X95102356Y-102616562D01*
X95054737Y-102521324D01*
X95054737Y-102235610D01*
X95102356Y-102140372D01*
X95149975Y-102092753D01*
X95245213Y-102045134D01*
X95435689Y-102045134D01*
X95530927Y-102092753D01*
X102721403Y-83545134D02*
X102721403Y-84354658D01*
X102673784Y-84449896D01*
X102626165Y-84497515D01*
X102530927Y-84545134D01*
X102388070Y-84545134D01*
X102292832Y-84497515D01*
X102721403Y-84164181D02*
X102626165Y-84211800D01*
X102435689Y-84211800D01*
X102340451Y-84164181D01*
X102292832Y-84116562D01*
X102245213Y-84021324D01*
X102245213Y-83735610D01*
X102292832Y-83640372D01*
X102340451Y-83592753D01*
X102435689Y-83545134D01*
X102626165Y-83545134D01*
X102721403Y-83592753D01*
X103197594Y-83545134D02*
X103197594Y-84211800D01*
X103197594Y-83640372D02*
X103245213Y-83592753D01*
X103340451Y-83545134D01*
X103483308Y-83545134D01*
X103578546Y-83592753D01*
X103626165Y-83687991D01*
X103626165Y-84211800D01*
X104530927Y-84211800D02*
X104530927Y-83211800D01*
X104530927Y-84164181D02*
X104435689Y-84211800D01*
X104245213Y-84211800D01*
X104149975Y-84164181D01*
X104102356Y-84116562D01*
X104054737Y-84021324D01*
X104054737Y-83735610D01*
X104102356Y-83640372D01*
X104149975Y-83592753D01*
X104245213Y-83545134D01*
X104435689Y-83545134D01*
X104530927Y-83592753D01*
D13*
X91358308Y-81991562D02*
X91358308Y-82824896D01*
X90822594Y-81991562D02*
X90822594Y-82646324D01*
X90882118Y-82765372D01*
X91001165Y-82824896D01*
X91179737Y-82824896D01*
X91298784Y-82765372D01*
X91358308Y-82705848D01*
X92370213Y-82170134D02*
X92548784Y-82229658D01*
X92608308Y-82289181D01*
X92667832Y-82408229D01*
X92667832Y-82586800D01*
X92608308Y-82705848D01*
X92548784Y-82765372D01*
X92429737Y-82824896D01*
X91953546Y-82824896D01*
X91953546Y-81574896D01*
X92370213Y-81574896D01*
X92489260Y-81634420D01*
X92548784Y-81693943D01*
X92608308Y-81812991D01*
X92608308Y-81932039D01*
X92548784Y-82051086D01*
X92489260Y-82110610D01*
X92370213Y-82170134D01*
X91953546Y-82170134D01*
X93203546Y-82824896D02*
X93203546Y-81991562D01*
X93203546Y-81574896D02*
X93144022Y-81634420D01*
X93203546Y-81693943D01*
X93263070Y-81634420D01*
X93203546Y-81574896D01*
X93203546Y-81693943D01*
X93620213Y-81991562D02*
X94096403Y-81991562D01*
X93798784Y-81574896D02*
X93798784Y-82646324D01*
X93858308Y-82765372D01*
X93977356Y-82824896D01*
X94096403Y-82824896D01*
X94394022Y-82824896D02*
X95048784Y-81991562D01*
X94394022Y-81991562D02*
X95048784Y-82824896D01*
X96477356Y-81991562D02*
X96477356Y-83241562D01*
X96477356Y-82051086D02*
X96596403Y-81991562D01*
X96834499Y-81991562D01*
X96953546Y-82051086D01*
X97013070Y-82110610D01*
X97072594Y-82229658D01*
X97072594Y-82586800D01*
X97013070Y-82705848D01*
X96953546Y-82765372D01*
X96834499Y-82824896D01*
X96596403Y-82824896D01*
X96477356Y-82765372D01*
X98144022Y-82824896D02*
X98144022Y-82170134D01*
X98084499Y-82051086D01*
X97965451Y-81991562D01*
X97727356Y-81991562D01*
X97608308Y-82051086D01*
X98144022Y-82765372D02*
X98024975Y-82824896D01*
X97727356Y-82824896D01*
X97608308Y-82765372D01*
X97548784Y-82646324D01*
X97548784Y-82527277D01*
X97608308Y-82408229D01*
X97727356Y-82348705D01*
X98024975Y-82348705D01*
X98144022Y-82289181D01*
X98739260Y-81991562D02*
X98739260Y-82824896D01*
X98739260Y-82110610D02*
X98798784Y-82051086D01*
X98917832Y-81991562D01*
X99096403Y-81991562D01*
X99215451Y-82051086D01*
X99274975Y-82170134D01*
X99274975Y-82824896D01*
X100346403Y-82765372D02*
X100227356Y-82824896D01*
X99989260Y-82824896D01*
X99870213Y-82765372D01*
X99810689Y-82646324D01*
X99810689Y-82170134D01*
X99870213Y-82051086D01*
X99989260Y-81991562D01*
X100227356Y-81991562D01*
X100346403Y-82051086D01*
X100405927Y-82170134D01*
X100405927Y-82289181D01*
X99810689Y-82408229D01*
X101120213Y-82824896D02*
X101001165Y-82765372D01*
X100941641Y-82646324D01*
X100941641Y-81574896D01*
D11*
X105500000Y-80500000D02*
X105500000Y-108500000D01*
D13*
X154649975Y-95092753D02*
X154602356Y-95045134D01*
X154507118Y-94902277D01*
X154459499Y-94807039D01*
X154411880Y-94664181D01*
X154364260Y-94426086D01*
X154364260Y-94235610D01*
X154411880Y-93997515D01*
X154459499Y-93854658D01*
X154507118Y-93759420D01*
X154602356Y-93616562D01*
X154649975Y-93568943D01*
X155602356Y-94616562D02*
X155554737Y-94664181D01*
X155411880Y-94711800D01*
X155316641Y-94711800D01*
X155173784Y-94664181D01*
X155078546Y-94568943D01*
X155030927Y-94473705D01*
X154983308Y-94283229D01*
X154983308Y-94140372D01*
X155030927Y-93949896D01*
X155078546Y-93854658D01*
X155173784Y-93759420D01*
X155316641Y-93711800D01*
X155411880Y-93711800D01*
X155554737Y-93759420D01*
X155602356Y-93807039D01*
X155935689Y-95092753D02*
X155983308Y-95045134D01*
X156078546Y-94902277D01*
X156126165Y-94807039D01*
X156173784Y-94664181D01*
X156221403Y-94426086D01*
X156221403Y-94235610D01*
X156173784Y-93997515D01*
X156126165Y-93854658D01*
X156078546Y-93759420D01*
X155983308Y-93616562D01*
X155935689Y-93568943D01*
X156649975Y-93807039D02*
X156697594Y-93759420D01*
X156792832Y-93711800D01*
X157030927Y-93711800D01*
X157126165Y-93759420D01*
X157173784Y-93807039D01*
X157221403Y-93902277D01*
X157221403Y-93997515D01*
X157173784Y-94140372D01*
X156602356Y-94711800D01*
X157221403Y-94711800D01*
X157840451Y-93711800D02*
X157935689Y-93711800D01*
X158030927Y-93759420D01*
X158078546Y-93807039D01*
X158126165Y-93902277D01*
X158173784Y-94092753D01*
X158173784Y-94330848D01*
X158126165Y-94521324D01*
X158078546Y-94616562D01*
X158030927Y-94664181D01*
X157935689Y-94711800D01*
X157840451Y-94711800D01*
X157745213Y-94664181D01*
X157697594Y-94616562D01*
X157649975Y-94521324D01*
X157602356Y-94330848D01*
X157602356Y-94092753D01*
X157649975Y-93902277D01*
X157697594Y-93807039D01*
X157745213Y-93759420D01*
X157840451Y-93711800D01*
X159126165Y-94711800D02*
X158554737Y-94711800D01*
X158840451Y-94711800D02*
X158840451Y-93711800D01*
X158745213Y-93854658D01*
X158649975Y-93949896D01*
X158554737Y-93997515D01*
X159602356Y-94711800D02*
X159792832Y-94711800D01*
X159888070Y-94664181D01*
X159935689Y-94616562D01*
X160030927Y-94473705D01*
X160078546Y-94283229D01*
X160078546Y-93902277D01*
X160030927Y-93807039D01*
X159983308Y-93759420D01*
X159888070Y-93711800D01*
X159697594Y-93711800D01*
X159602356Y-93759420D01*
X159554737Y-93807039D01*
X159507118Y-93902277D01*
X159507118Y-94140372D01*
X159554737Y-94235610D01*
X159602356Y-94283229D01*
X159697594Y-94330848D01*
X159888070Y-94330848D01*
X159983308Y-94283229D01*
X160030927Y-94235610D01*
X160078546Y-94140372D01*
X161221403Y-94426086D02*
X161697594Y-94426086D01*
X161126165Y-94711800D02*
X161459499Y-93711800D01*
X161792832Y-94711800D01*
X162697594Y-94616562D02*
X162649975Y-94664181D01*
X162507118Y-94711800D01*
X162411880Y-94711800D01*
X162269022Y-94664181D01*
X162173784Y-94568943D01*
X162126165Y-94473705D01*
X162078546Y-94283229D01*
X162078546Y-94140372D01*
X162126165Y-93949896D01*
X162173784Y-93854658D01*
X162269022Y-93759420D01*
X162411880Y-93711800D01*
X162507118Y-93711800D01*
X162649975Y-93759420D01*
X162697594Y-93807039D01*
X163269022Y-94140372D02*
X163173784Y-94092753D01*
X163126165Y-94045134D01*
X163078546Y-93949896D01*
X163078546Y-93902277D01*
X163126165Y-93807039D01*
X163173784Y-93759420D01*
X163269022Y-93711800D01*
X163459499Y-93711800D01*
X163554737Y-93759420D01*
X163602356Y-93807039D01*
X163649975Y-93902277D01*
X163649975Y-93949896D01*
X163602356Y-94045134D01*
X163554737Y-94092753D01*
X163459499Y-94140372D01*
X163269022Y-94140372D01*
X163173784Y-94187991D01*
X163126165Y-94235610D01*
X163078546Y-94330848D01*
X163078546Y-94521324D01*
X163126165Y-94616562D01*
X163173784Y-94664181D01*
X163269022Y-94711800D01*
X163459499Y-94711800D01*
X163554737Y-94664181D01*
X163602356Y-94616562D01*
X163649975Y-94521324D01*
X163649975Y-94330848D01*
X163602356Y-94235610D01*
X163554737Y-94187991D01*
X163459499Y-94140372D01*
X164078546Y-94187991D02*
X164411880Y-94187991D01*
X164554737Y-94711800D02*
X164078546Y-94711800D01*
X164078546Y-93711800D01*
X164554737Y-93711800D01*
X164935689Y-94664181D02*
X165078546Y-94711800D01*
X165316641Y-94711800D01*
X165411880Y-94664181D01*
X165459499Y-94616562D01*
X165507118Y-94521324D01*
X165507118Y-94426086D01*
X165459499Y-94330848D01*
X165411880Y-94283229D01*
X165316641Y-94235610D01*
X165126165Y-94187991D01*
X165030927Y-94140372D01*
X164983308Y-94092753D01*
X164935689Y-93997515D01*
X164935689Y-93902277D01*
X164983308Y-93807039D01*
X165030927Y-93759420D01*
X165126165Y-93711800D01*
X165364260Y-93711800D01*
X165507118Y-93759420D01*
X92649975Y-108592753D02*
X92602356Y-108545134D01*
X92507118Y-108402277D01*
X92459499Y-108307039D01*
X92411880Y-108164181D01*
X92364260Y-107926086D01*
X92364260Y-107735610D01*
X92411880Y-107497515D01*
X92459499Y-107354658D01*
X92507118Y-107259420D01*
X92602356Y-107116562D01*
X92649975Y-107068943D01*
X93602356Y-108116562D02*
X93554737Y-108164181D01*
X93411880Y-108211800D01*
X93316641Y-108211800D01*
X93173784Y-108164181D01*
X93078546Y-108068943D01*
X93030927Y-107973705D01*
X92983308Y-107783229D01*
X92983308Y-107640372D01*
X93030927Y-107449896D01*
X93078546Y-107354658D01*
X93173784Y-107259420D01*
X93316641Y-107211800D01*
X93411880Y-107211800D01*
X93554737Y-107259420D01*
X93602356Y-107307039D01*
X93935689Y-108592753D02*
X93983308Y-108545134D01*
X94078546Y-108402277D01*
X94126165Y-108307039D01*
X94173784Y-108164181D01*
X94221403Y-107926086D01*
X94221403Y-107735610D01*
X94173784Y-107497515D01*
X94126165Y-107354658D01*
X94078546Y-107259420D01*
X93983308Y-107116562D01*
X93935689Y-107068943D01*
X94649975Y-107307039D02*
X94697594Y-107259420D01*
X94792832Y-107211800D01*
X95030927Y-107211800D01*
X95126165Y-107259420D01*
X95173784Y-107307039D01*
X95221403Y-107402277D01*
X95221403Y-107497515D01*
X95173784Y-107640372D01*
X94602356Y-108211800D01*
X95221403Y-108211800D01*
X95840451Y-107211800D02*
X95935689Y-107211800D01*
X96030927Y-107259420D01*
X96078546Y-107307039D01*
X96126165Y-107402277D01*
X96173784Y-107592753D01*
X96173784Y-107830848D01*
X96126165Y-108021324D01*
X96078546Y-108116562D01*
X96030927Y-108164181D01*
X95935689Y-108211800D01*
X95840451Y-108211800D01*
X95745213Y-108164181D01*
X95697594Y-108116562D01*
X95649975Y-108021324D01*
X95602356Y-107830848D01*
X95602356Y-107592753D01*
X95649975Y-107402277D01*
X95697594Y-107307039D01*
X95745213Y-107259420D01*
X95840451Y-107211800D01*
X97126165Y-108211800D02*
X96554737Y-108211800D01*
X96840451Y-108211800D02*
X96840451Y-107211800D01*
X96745213Y-107354658D01*
X96649975Y-107449896D01*
X96554737Y-107497515D01*
X97602356Y-108211800D02*
X97792832Y-108211800D01*
X97888070Y-108164181D01*
X97935689Y-108116562D01*
X98030927Y-107973705D01*
X98078546Y-107783229D01*
X98078546Y-107402277D01*
X98030927Y-107307039D01*
X97983308Y-107259420D01*
X97888070Y-107211800D01*
X97697594Y-107211800D01*
X97602356Y-107259420D01*
X97554737Y-107307039D01*
X97507118Y-107402277D01*
X97507118Y-107640372D01*
X97554737Y-107735610D01*
X97602356Y-107783229D01*
X97697594Y-107830848D01*
X97888070Y-107830848D01*
X97983308Y-107783229D01*
X98030927Y-107735610D01*
X98078546Y-107640372D01*
X99221403Y-107926086D02*
X99697594Y-107926086D01*
X99126165Y-108211800D02*
X99459499Y-107211800D01*
X99792832Y-108211800D01*
X100697594Y-108116562D02*
X100649975Y-108164181D01*
X100507118Y-108211800D01*
X100411880Y-108211800D01*
X100269022Y-108164181D01*
X100173784Y-108068943D01*
X100126165Y-107973705D01*
X100078546Y-107783229D01*
X100078546Y-107640372D01*
X100126165Y-107449896D01*
X100173784Y-107354658D01*
X100269022Y-107259420D01*
X100411880Y-107211800D01*
X100507118Y-107211800D01*
X100649975Y-107259420D01*
X100697594Y-107307039D01*
X101269022Y-107640372D02*
X101173784Y-107592753D01*
X101126165Y-107545134D01*
X101078546Y-107449896D01*
X101078546Y-107402277D01*
X101126165Y-107307039D01*
X101173784Y-107259420D01*
X101269022Y-107211800D01*
X101459499Y-107211800D01*
X101554737Y-107259420D01*
X101602356Y-107307039D01*
X101649975Y-107402277D01*
X101649975Y-107449896D01*
X101602356Y-107545134D01*
X101554737Y-107592753D01*
X101459499Y-107640372D01*
X101269022Y-107640372D01*
X101173784Y-107687991D01*
X101126165Y-107735610D01*
X101078546Y-107830848D01*
X101078546Y-108021324D01*
X101126165Y-108116562D01*
X101173784Y-108164181D01*
X101269022Y-108211800D01*
X101459499Y-108211800D01*
X101554737Y-108164181D01*
X101602356Y-108116562D01*
X101649975Y-108021324D01*
X101649975Y-107830848D01*
X101602356Y-107735610D01*
X101554737Y-107687991D01*
X101459499Y-107640372D01*
X102078546Y-107687991D02*
X102411880Y-107687991D01*
X102554737Y-108211800D02*
X102078546Y-108211800D01*
X102078546Y-107211800D01*
X102554737Y-107211800D01*
X102935689Y-108164181D02*
X103078546Y-108211800D01*
X103316641Y-108211800D01*
X103411880Y-108164181D01*
X103459499Y-108116562D01*
X103507118Y-108021324D01*
X103507118Y-107926086D01*
X103459499Y-107830848D01*
X103411880Y-107783229D01*
X103316641Y-107735610D01*
X103126165Y-107687991D01*
X103030927Y-107640372D01*
X102983308Y-107592753D01*
X102935689Y-107497515D01*
X102935689Y-107402277D01*
X102983308Y-107307039D01*
X103030927Y-107259420D01*
X103126165Y-107211800D01*
X103364260Y-107211800D01*
X103507118Y-107259420D01*
D12*
X112617594Y-95744896D02*
X113284260Y-95744896D01*
X112236641Y-95982991D02*
X112950927Y-96221086D01*
X112950927Y-95602039D01*
X113284260Y-95221086D02*
X112284260Y-95221086D01*
X112903308Y-95125848D02*
X113284260Y-94840134D01*
X112617594Y-94840134D02*
X112998546Y-95221086D01*
X112284260Y-94506800D02*
X112284260Y-93840134D01*
X113284260Y-94268705D01*
D11*
X150911880Y-81259420D02*
X150911880Y-80259420D01*
X150911880Y-93759420D02*
X150911880Y-87759420D01*
X152411880Y-95259420D02*
X150911880Y-93759420D01*
X152411880Y-108259420D02*
X152411880Y-95259420D01*
X132000000Y-80500000D02*
X132000000Y-108500000D01*
X101030927Y-102818943D02*
X100840451Y-102914181D01*
X100459499Y-102914181D01*
X100269022Y-102818943D01*
X100173784Y-102628467D01*
X100173784Y-101866562D01*
X100269022Y-101676086D01*
X100459499Y-101580848D01*
X100840451Y-101580848D01*
X101030927Y-101676086D01*
X101126165Y-101866562D01*
X101126165Y-102057039D01*
X100173784Y-102247515D01*
X101983308Y-101580848D02*
X101983308Y-102914181D01*
X101983308Y-101771324D02*
X102078546Y-101676086D01*
X102269022Y-101580848D01*
X102554737Y-101580848D01*
X102745213Y-101676086D01*
X102840451Y-101866562D01*
X102840451Y-102914181D01*
X104649975Y-102818943D02*
X104459499Y-102914181D01*
X104078546Y-102914181D01*
X103888070Y-102818943D01*
X103792832Y-102723705D01*
X103697594Y-102533229D01*
X103697594Y-101961800D01*
X103792832Y-101771324D01*
X103888070Y-101676086D01*
X104078546Y-101580848D01*
X104459499Y-101580848D01*
X104649975Y-101676086D01*
X120975641Y-94847800D02*
X118975641Y-94847800D01*
X120213737Y-94657324D02*
X120975641Y-94085896D01*
X119642308Y-94085896D02*
X120404213Y-94847800D01*
X120880403Y-92466848D02*
X120975641Y-92657324D01*
X120975641Y-93038277D01*
X120880403Y-93228753D01*
X120689927Y-93323991D01*
X119928022Y-93323991D01*
X119737546Y-93228753D01*
X119642308Y-93038277D01*
X119642308Y-92657324D01*
X119737546Y-92466848D01*
X119928022Y-92371610D01*
X120118499Y-92371610D01*
X120308975Y-93323991D01*
X119642308Y-91704943D02*
X120975641Y-91228753D01*
X119642308Y-90752562D02*
X120975641Y-91228753D01*
X121451832Y-91419229D01*
X121547070Y-91514467D01*
X121642308Y-91704943D01*
D13*
X132231403Y-103579181D02*
X132231403Y-102245848D01*
X132231403Y-102436324D02*
X132326641Y-102341086D01*
X132517118Y-102245848D01*
X132802832Y-102245848D01*
X132993308Y-102341086D01*
X133088546Y-102531562D01*
X133088546Y-103579181D01*
X133088546Y-102531562D02*
X133183784Y-102341086D01*
X133374260Y-102245848D01*
X133659975Y-102245848D01*
X133850451Y-102341086D01*
X133945689Y-102531562D01*
X133945689Y-103579181D01*
X134898070Y-103579181D02*
X134898070Y-102245848D01*
X134898070Y-101579181D02*
X134802832Y-101674420D01*
X134898070Y-101769658D01*
X134993308Y-101674420D01*
X134898070Y-101579181D01*
X134898070Y-101769658D01*
X136707594Y-103483943D02*
X136517118Y-103579181D01*
X136136165Y-103579181D01*
X135945689Y-103483943D01*
X135850451Y-103388705D01*
X135755213Y-103198229D01*
X135755213Y-102626800D01*
X135850451Y-102436324D01*
X135945689Y-102341086D01*
X136136165Y-102245848D01*
X136517118Y-102245848D01*
X136707594Y-102341086D01*
D14*
X163901880Y-91944420D02*
X163901880Y-90544420D01*
X164601880Y-89844420D02*
X165201880Y-89844420D01*
X165901880Y-90544420D02*
X165901880Y-91944420D01*
X165201880Y-92644420D02*
X164601880Y-92644420D01*
X164601880Y-92644420D02*
G75*
G02X163901880Y-91944420I0J700000D01*
G01*
X165901880Y-91944420D02*
G75*
G02X165201880Y-92644420I-700000J0D01*
G01*
X165201880Y-89844420D02*
G75*
G02X165901880Y-90544420I0J-700000D01*
G01*
X163901880Y-90544420D02*
G75*
G02X164601880Y-89844420I700000J0D01*
G01*
X110926880Y-88989420D02*
X110926880Y-89609420D01*
X111846880Y-88069420D02*
G75*
G03X111846880Y-88069420I-920000J0D01*
G01*
X110926880Y-94704420D02*
X110926880Y-95324420D01*
X111846880Y-93784420D02*
G75*
G03X111846880Y-93784420I-920000J0D01*
G01*
X110926880Y-101119420D02*
X110926880Y-100499420D01*
X111846880Y-102039420D02*
G75*
G03X111846880Y-102039420I-920000J0D01*
G01*
X113101880Y-89274420D02*
G75*
G02X113801880Y-88574420I700000J0D01*
G01*
X114401880Y-88574420D02*
G75*
G02X115101880Y-89274420I0J-700000D01*
G01*
X115101880Y-90674420D02*
G75*
G02X114401880Y-91374420I-700000J0D01*
G01*
X113801880Y-91374420D02*
G75*
G02X113101880Y-90674420I0J700000D01*
G01*
X114401880Y-91374420D02*
X113801880Y-91374420D01*
X115101880Y-89274420D02*
X115101880Y-90674420D01*
X113801880Y-88574420D02*
X114401880Y-88574420D01*
X113101880Y-90674420D02*
X113101880Y-89274420D01*
X115101880Y-98799420D02*
X115101880Y-100199420D01*
X114401880Y-100899420D02*
X113801880Y-100899420D01*
X113101880Y-100199420D02*
X113101880Y-98799420D01*
X113801880Y-98099420D02*
X114401880Y-98099420D01*
X114401880Y-98099420D02*
G75*
G02X115101880Y-98799420I0J-700000D01*
G01*
X113101880Y-98799420D02*
G75*
G02X113801880Y-98099420I700000J0D01*
G01*
X113801880Y-100899420D02*
G75*
G02X113101880Y-100199420I0J700000D01*
G01*
X115101880Y-100199420D02*
G75*
G02X114401880Y-100899420I-700000J0D01*
G01*
X133610000Y-91270000D02*
X133610000Y-101550000D01*
X133610000Y-101550000D02*
X136390000Y-101550000D01*
X136390000Y-101550000D02*
X136390000Y-91270000D01*
X136390000Y-91270000D02*
X133610000Y-91270000D01*
X133610000Y-90000000D02*
X133610000Y-88610000D01*
X133610000Y-88610000D02*
X135000000Y-88610000D01*
D15*
X149700000Y-81400000D02*
X149700000Y-79500000D01*
X149700000Y-79500000D02*
X148000000Y-79500000D01*
X148000000Y-79500000D02*
X147250000Y-79500000D01*
X147250000Y-79500000D02*
X147250000Y-80800000D01*
X147250000Y-80800000D02*
X142750000Y-80800000D01*
X142750000Y-80800000D02*
X142750000Y-79500000D01*
X142750000Y-79500000D02*
X142000000Y-79500000D01*
X142000000Y-79500000D02*
X140700000Y-79500000D01*
X140700000Y-79500000D02*
X140700000Y-81250000D01*
X142000000Y-79500000D02*
X142000000Y-76500000D01*
X142000000Y-76500000D02*
X148000000Y-76500000D01*
X148000000Y-76500000D02*
X148000000Y-79500000D01*
X149700000Y-83400000D02*
X149700000Y-90500000D01*
X149700000Y-90500000D02*
X147700000Y-90500000D01*
X142000000Y-90500000D02*
X140700000Y-90500000D01*
X140700000Y-90500000D02*
X140700000Y-88400000D01*
X140700000Y-86500000D02*
X140700000Y-83450000D01*
D16*
X150700000Y-81000000D02*
G75*
G03X150700000Y-81000000I-200000J0D01*
G01*
D14*
X168521880Y-92529420D02*
X168521880Y-102809420D01*
X168521880Y-102809420D02*
X171301880Y-102809420D01*
X171301880Y-102809420D02*
X171301880Y-92529420D01*
X171301880Y-92529420D02*
X168521880Y-92529420D01*
X168521880Y-91259420D02*
X168521880Y-89869420D01*
X168521880Y-89869420D02*
X169911880Y-89869420D01*
D15*
X139250000Y-109500000D02*
X139250000Y-95500000D01*
X139250000Y-95500000D02*
X150750000Y-95500000D01*
X150750000Y-95500000D02*
X150750000Y-109500000D01*
X150750000Y-109500000D02*
X148250000Y-109500000D01*
X148250000Y-109500000D02*
X142250000Y-109500000D01*
X142250000Y-109500000D02*
X139250000Y-109500000D01*
D12*
X151350000Y-107600000D02*
G75*
G03X151350000Y-107600000I-100000J0D01*
G01*
D15*
X142250000Y-109500000D02*
X142250000Y-113000000D01*
X142250000Y-113000000D02*
X148250000Y-113000000D01*
X148250000Y-113000000D02*
X148250000Y-109500000D01*
X154250000Y-109500000D02*
X154250000Y-95500000D01*
X154250000Y-95500000D02*
X165750000Y-95500000D01*
X165750000Y-95500000D02*
X165750000Y-109500000D01*
X165750000Y-109500000D02*
X163250000Y-109500000D01*
X163250000Y-109500000D02*
X157250000Y-109500000D01*
X157250000Y-109500000D02*
X154250000Y-109500000D01*
D12*
X166350000Y-107600000D02*
G75*
G03X166350000Y-107600000I-100000J0D01*
G01*
D15*
X157250000Y-109500000D02*
X157250000Y-113000000D01*
X157250000Y-113000000D02*
X163250000Y-113000000D01*
X163250000Y-113000000D02*
X163250000Y-109500000D01*
D14*
X94270000Y-106390000D02*
X104550000Y-106390000D01*
X104550000Y-106390000D02*
X104550000Y-103610000D01*
X104550000Y-103610000D02*
X94270000Y-103610000D01*
X94270000Y-103610000D02*
X94270000Y-106390000D01*
X93000000Y-106390000D02*
X91610000Y-106390000D01*
X91610000Y-106390000D02*
X91610000Y-105000000D01*
X97500000Y-93000000D02*
X97500000Y-92000000D01*
X97000000Y-92500000D02*
X98000000Y-92500000D01*
X101000000Y-86400000D02*
X103400000Y-86400000D01*
X96200000Y-86400000D02*
X98800000Y-86400000D01*
X91600000Y-86400000D02*
X94000000Y-86400000D01*
X93400000Y-99700000D02*
X93700000Y-100000000D01*
X93400000Y-100300000D02*
X93400000Y-99700000D01*
X93700000Y-100000000D02*
X93400000Y-100300000D01*
X91600000Y-98600000D02*
X103400000Y-98600000D01*
X91600000Y-94500000D02*
X91600000Y-98600000D01*
X103400000Y-94500000D02*
X103400000Y-98600000D01*
X103400000Y-86400000D02*
X103400000Y-90500000D01*
X91600000Y-90500000D02*
X91600000Y-86400000D01*
X100500000Y-92500000D02*
G75*
G03X100500000Y-92500000I-3000000J0D01*
G01*
D15*
X129700000Y-81400000D02*
X129700000Y-79500000D01*
X129700000Y-79500000D02*
X128000000Y-79500000D01*
X128000000Y-79500000D02*
X127250000Y-79500000D01*
X127250000Y-79500000D02*
X127250000Y-80800000D01*
X127250000Y-80800000D02*
X122750000Y-80800000D01*
X122750000Y-80800000D02*
X122750000Y-79500000D01*
X122750000Y-79500000D02*
X122000000Y-79500000D01*
X122000000Y-79500000D02*
X120700000Y-79500000D01*
X120700000Y-79500000D02*
X120700000Y-81250000D01*
X122000000Y-79500000D02*
X122000000Y-76500000D01*
X122000000Y-76500000D02*
X128000000Y-76500000D01*
X128000000Y-76500000D02*
X128000000Y-79500000D01*
X129700000Y-83400000D02*
X129700000Y-90500000D01*
X129700000Y-90500000D02*
X127700000Y-90500000D01*
X122000000Y-90500000D02*
X120700000Y-90500000D01*
X120700000Y-90500000D02*
X120700000Y-88400000D01*
X120700000Y-86500000D02*
X120700000Y-83450000D01*
D16*
X130700000Y-81000000D02*
G75*
G03X130700000Y-81000000I-200000J0D01*
G01*
D15*
X119250000Y-109500000D02*
X119250000Y-95500000D01*
X119250000Y-95500000D02*
X130750000Y-95500000D01*
X130750000Y-95500000D02*
X130750000Y-109500000D01*
X130750000Y-109500000D02*
X128250000Y-109500000D01*
X128250000Y-109500000D02*
X122250000Y-109500000D01*
X122250000Y-109500000D02*
X119250000Y-109500000D01*
D12*
X131350000Y-107600000D02*
G75*
G03X131350000Y-107600000I-100000J0D01*
G01*
D15*
X122250000Y-109500000D02*
X122250000Y-113000000D01*
X122250000Y-113000000D02*
X128250000Y-113000000D01*
X128250000Y-113000000D02*
X128250000Y-109500000D01*
D14*
X106360000Y-81135000D02*
X106360000Y-109195000D01*
X106360000Y-109195000D02*
X109140000Y-109195000D01*
X109140000Y-109195000D02*
X109140000Y-81135000D01*
X109140000Y-81135000D02*
X106360000Y-81135000D01*
X106360000Y-80500000D02*
X106360000Y-79745000D01*
X106360000Y-79745000D02*
X107750000Y-79745000D01*
D15*
X160500000Y-80009420D02*
X160500000Y-79509420D01*
X160500000Y-79509420D02*
X159000000Y-79509420D01*
X159000000Y-79509420D02*
X154000000Y-79509420D01*
X154000000Y-79509420D02*
X152500000Y-79509420D01*
X152500000Y-79509420D02*
X152500000Y-80009420D01*
X159000000Y-79509420D02*
X159000000Y-77009420D01*
X159000000Y-77009420D02*
X154000000Y-77009420D01*
X154000000Y-77009420D02*
X154000000Y-79509420D01*
X152500000Y-84009420D02*
X152500000Y-84509420D01*
X160500000Y-84009420D02*
X160500000Y-84509420D01*
D12*
X156600000Y-90759420D02*
G75*
G03X156600000Y-90759420I-100000J0D01*
G01*
D14*
X115886880Y-89339420D02*
X115886880Y-102159420D01*
X115886880Y-102159420D02*
X118666880Y-102159420D01*
X118666880Y-102159420D02*
X118666880Y-89339420D01*
X118666880Y-89339420D02*
X115886880Y-89339420D01*
X115886880Y-88069420D02*
X115886880Y-86679420D01*
X115886880Y-86679420D02*
X117276880Y-86679420D01*
X169641880Y-85869420D02*
X166981880Y-85869420D01*
X166981880Y-85869420D02*
X166981880Y-88649420D01*
X166981880Y-88649420D02*
X169641880Y-88649420D01*
X169641880Y-88649420D02*
X169641880Y-85869420D01*
X170911880Y-85869420D02*
X172301880Y-85869420D01*
X172301880Y-85869420D02*
X172301880Y-87259420D01*
X141545000Y-94927420D02*
X141545000Y-94987420D01*
X141545000Y-94987420D02*
X144205000Y-94987420D01*
X144205000Y-94987420D02*
X144205000Y-94927420D01*
X144205000Y-94927420D02*
X141545000Y-94927420D01*
X141545000Y-93657420D02*
X141545000Y-92327420D01*
X141545000Y-92327420D02*
X142875000Y-92327420D01*
X138370000Y-94927420D02*
X138370000Y-94987420D01*
X138370000Y-94987420D02*
X141030000Y-94987420D01*
X141030000Y-94987420D02*
X141030000Y-94927420D01*
X141030000Y-94927420D02*
X138370000Y-94927420D01*
X138370000Y-93657420D02*
X138370000Y-92327420D01*
X138370000Y-92327420D02*
X139700000Y-92327420D01*
X164581880Y-82529420D02*
X164581880Y-82589420D01*
X164581880Y-82589420D02*
X167241880Y-82589420D01*
X167241880Y-82589420D02*
X167241880Y-82529420D01*
X167241880Y-82529420D02*
X164581880Y-82529420D01*
X164581880Y-81259420D02*
X164581880Y-79929420D01*
X164581880Y-79929420D02*
X165911880Y-79929420D01*
D10*
X131603000Y-81730000D02*
X138900000Y-81730000D01*
X138900000Y-81730000D02*
X138900000Y-84300000D01*
X133000000Y-86030000D02*
X137500000Y-86030000D01*
X131603000Y-81730000D02*
X131603000Y-84300000D01*
D17*
X138998591Y-83945339D02*
X139021450Y-83876762D01*
X139021450Y-83762467D01*
X138998591Y-83716749D01*
X138975732Y-83693890D01*
X138930014Y-83671030D01*
X138884296Y-83671030D01*
X138838578Y-83693890D01*
X138815719Y-83716749D01*
X138792860Y-83762467D01*
X138770001Y-83853903D01*
X138747142Y-83899621D01*
X138724283Y-83922480D01*
X138678565Y-83945339D01*
X138632847Y-83945339D01*
X138587129Y-83922480D01*
X138564270Y-83899621D01*
X138541410Y-83853903D01*
X138541410Y-83739608D01*
X138564270Y-83671030D01*
X138541410Y-83328145D02*
X138884296Y-83328145D01*
X138952873Y-83351004D01*
X138998591Y-83396722D01*
X139021450Y-83465299D01*
X139021450Y-83511017D01*
X138838578Y-83099554D02*
X138838578Y-82733810D01*
X138701424Y-82299488D02*
X139021450Y-82299488D01*
X138518551Y-82413783D02*
X138861437Y-82528078D01*
X138861437Y-82230910D01*
X138541410Y-82093756D02*
X138541410Y-81796589D01*
X138724283Y-81956602D01*
X138724283Y-81888025D01*
X138747142Y-81842307D01*
X138770001Y-81819448D01*
X138815719Y-81796589D01*
X138930014Y-81796589D01*
X138975732Y-81819448D01*
X138998591Y-81842307D01*
X139021450Y-81888025D01*
X139021450Y-82025179D01*
X138998591Y-82070897D01*
X138975732Y-82093756D01*
X138541410Y-81362267D02*
X138541410Y-81590857D01*
X138770001Y-81613716D01*
X138747142Y-81590857D01*
X138724283Y-81545139D01*
X138724283Y-81430844D01*
X138747142Y-81385126D01*
X138770001Y-81362267D01*
X138815719Y-81339408D01*
X138930014Y-81339408D01*
X138975732Y-81362267D01*
X138998591Y-81385126D01*
X139021450Y-81430844D01*
X139021450Y-81545139D01*
X138998591Y-81590857D01*
X138975732Y-81613716D01*
X139021450Y-80882227D02*
X139021450Y-81156535D01*
X139021450Y-81019381D02*
X138541410Y-81019381D01*
X138609988Y-81065099D01*
X138655706Y-81110817D01*
X138678565Y-81156535D01*
X138541410Y-80447905D02*
X138541410Y-80676495D01*
X138770001Y-80699354D01*
X138747142Y-80676495D01*
X138724283Y-80630777D01*
X138724283Y-80516482D01*
X138747142Y-80470764D01*
X138770001Y-80447905D01*
X138815719Y-80425046D01*
X138930014Y-80425046D01*
X138975732Y-80447905D01*
X138998591Y-80470764D01*
X139021450Y-80516482D01*
X139021450Y-80630777D01*
X138998591Y-80676495D01*
X138975732Y-80699354D01*
X138541410Y-80287891D02*
X138541410Y-80013583D01*
X139021450Y-80150737D02*
X138541410Y-80150737D01*
X138998591Y-79876429D02*
X139021450Y-79807851D01*
X139021450Y-79693556D01*
X138998591Y-79647838D01*
X138975732Y-79624979D01*
X138930014Y-79602120D01*
X138884296Y-79602120D01*
X138838578Y-79624979D01*
X138815719Y-79647838D01*
X138792860Y-79693556D01*
X138770001Y-79784992D01*
X138747142Y-79830710D01*
X138724283Y-79853570D01*
X138678565Y-79876429D01*
X138632847Y-79876429D01*
X138587129Y-79853570D01*
X138564270Y-79830710D01*
X138541410Y-79784992D01*
X138541410Y-79670697D01*
X138564270Y-79602120D01*
X151698967Y-110792378D02*
X151698967Y-110395841D01*
X151942990Y-110609361D01*
X151942990Y-110517852D01*
X151973492Y-110456847D01*
X152003995Y-110426344D01*
X152065001Y-110395841D01*
X152217515Y-110395841D01*
X152278521Y-110426344D01*
X152309023Y-110456847D01*
X152339526Y-110517852D01*
X152339526Y-110700869D01*
X152309023Y-110761875D01*
X152278521Y-110792378D01*
X151698967Y-109816288D02*
X151698967Y-110121316D01*
X152003995Y-110151819D01*
X151973492Y-110121316D01*
X151942990Y-110060310D01*
X151942990Y-109907796D01*
X151973492Y-109846791D01*
X152003995Y-109816288D01*
X152065001Y-109785785D01*
X152217515Y-109785785D01*
X152278521Y-109816288D01*
X152309023Y-109846791D01*
X152339526Y-109907796D01*
X152339526Y-110060310D01*
X152309023Y-110121316D01*
X152278521Y-110151819D01*
X152339526Y-109145226D02*
X152034498Y-109358746D01*
X152339526Y-109511260D02*
X151698967Y-109511260D01*
X151698967Y-109267237D01*
X151729470Y-109206232D01*
X151759973Y-109175729D01*
X151820978Y-109145226D01*
X151912487Y-109145226D01*
X151973492Y-109175729D01*
X152003995Y-109206232D01*
X152034498Y-109267237D01*
X152034498Y-109511260D01*
X152156509Y-108901203D02*
X152156509Y-108596175D01*
X152339526Y-108962209D02*
X151698967Y-108748689D01*
X152339526Y-108535170D01*
X152339526Y-108321650D02*
X151698967Y-108321650D01*
X151698967Y-108077628D01*
X151729470Y-108016622D01*
X151759973Y-107986119D01*
X151820978Y-107955616D01*
X151912487Y-107955616D01*
X151973492Y-107986119D01*
X152003995Y-108016622D01*
X152034498Y-108077628D01*
X152034498Y-108321650D01*
X152278521Y-107315057D02*
X152309023Y-107345560D01*
X152339526Y-107437069D01*
X152339526Y-107498074D01*
X152309023Y-107589583D01*
X152248018Y-107650588D01*
X152187012Y-107681091D01*
X152065001Y-107711594D01*
X151973492Y-107711594D01*
X151851481Y-107681091D01*
X151790476Y-107650588D01*
X151729470Y-107589583D01*
X151698967Y-107498074D01*
X151698967Y-107437069D01*
X151729470Y-107345560D01*
X151759973Y-107315057D01*
X151912487Y-106766007D02*
X152339526Y-106766007D01*
X151668464Y-106918521D02*
X152126007Y-107071035D01*
X152126007Y-106674498D01*
X152003995Y-106216956D02*
X152034498Y-106125448D01*
X152065001Y-106094945D01*
X152126007Y-106064442D01*
X152217515Y-106064442D01*
X152278521Y-106094945D01*
X152309023Y-106125448D01*
X152339526Y-106186453D01*
X152339526Y-106430476D01*
X151698967Y-106430476D01*
X151698967Y-106216956D01*
X151729470Y-106155951D01*
X151759973Y-106125448D01*
X151820978Y-106094945D01*
X151881984Y-106094945D01*
X151942990Y-106125448D01*
X151973492Y-106155951D01*
X152003995Y-106216956D01*
X152003995Y-106430476D01*
X152339526Y-105789917D02*
X151698967Y-105789917D01*
X152003995Y-105789917D02*
X152003995Y-105423883D01*
X152339526Y-105423883D02*
X151698967Y-105423883D01*
X151698967Y-105179861D02*
X151698967Y-104783324D01*
X151942990Y-104996844D01*
X151942990Y-104905335D01*
X151973492Y-104844330D01*
X152003995Y-104813827D01*
X152065001Y-104783324D01*
X152217515Y-104783324D01*
X152278521Y-104813827D01*
X152309023Y-104844330D01*
X152339526Y-104905335D01*
X152339526Y-105088352D01*
X152309023Y-105149358D01*
X152278521Y-105179861D01*
X166698967Y-110792378D02*
X166698967Y-110395841D01*
X166942990Y-110609361D01*
X166942990Y-110517852D01*
X166973492Y-110456847D01*
X167003995Y-110426344D01*
X167065001Y-110395841D01*
X167217515Y-110395841D01*
X167278521Y-110426344D01*
X167309023Y-110456847D01*
X167339526Y-110517852D01*
X167339526Y-110700869D01*
X167309023Y-110761875D01*
X167278521Y-110792378D01*
X166698967Y-109816288D02*
X166698967Y-110121316D01*
X167003995Y-110151819D01*
X166973492Y-110121316D01*
X166942990Y-110060310D01*
X166942990Y-109907796D01*
X166973492Y-109846791D01*
X167003995Y-109816288D01*
X167065001Y-109785785D01*
X167217515Y-109785785D01*
X167278521Y-109816288D01*
X167309023Y-109846791D01*
X167339526Y-109907796D01*
X167339526Y-110060310D01*
X167309023Y-110121316D01*
X167278521Y-110151819D01*
X167339526Y-109145226D02*
X167034498Y-109358746D01*
X167339526Y-109511260D02*
X166698967Y-109511260D01*
X166698967Y-109267237D01*
X166729470Y-109206232D01*
X166759973Y-109175729D01*
X166820978Y-109145226D01*
X166912487Y-109145226D01*
X166973492Y-109175729D01*
X167003995Y-109206232D01*
X167034498Y-109267237D01*
X167034498Y-109511260D01*
X167156509Y-108901203D02*
X167156509Y-108596175D01*
X167339526Y-108962209D02*
X166698967Y-108748689D01*
X167339526Y-108535170D01*
X167339526Y-108321650D02*
X166698967Y-108321650D01*
X166698967Y-108077628D01*
X166729470Y-108016622D01*
X166759973Y-107986119D01*
X166820978Y-107955616D01*
X166912487Y-107955616D01*
X166973492Y-107986119D01*
X167003995Y-108016622D01*
X167034498Y-108077628D01*
X167034498Y-108321650D01*
X167278521Y-107315057D02*
X167309023Y-107345560D01*
X167339526Y-107437069D01*
X167339526Y-107498074D01*
X167309023Y-107589583D01*
X167248018Y-107650588D01*
X167187012Y-107681091D01*
X167065001Y-107711594D01*
X166973492Y-107711594D01*
X166851481Y-107681091D01*
X166790476Y-107650588D01*
X166729470Y-107589583D01*
X166698967Y-107498074D01*
X166698967Y-107437069D01*
X166729470Y-107345560D01*
X166759973Y-107315057D01*
X166912487Y-106766007D02*
X167339526Y-106766007D01*
X166668464Y-106918521D02*
X167126007Y-107071035D01*
X167126007Y-106674498D01*
X167003995Y-106216956D02*
X167034498Y-106125448D01*
X167065001Y-106094945D01*
X167126007Y-106064442D01*
X167217515Y-106064442D01*
X167278521Y-106094945D01*
X167309023Y-106125448D01*
X167339526Y-106186453D01*
X167339526Y-106430476D01*
X166698967Y-106430476D01*
X166698967Y-106216956D01*
X166729470Y-106155951D01*
X166759973Y-106125448D01*
X166820978Y-106094945D01*
X166881984Y-106094945D01*
X166942990Y-106125448D01*
X166973492Y-106155951D01*
X167003995Y-106216956D01*
X167003995Y-106430476D01*
X167339526Y-105789917D02*
X166698967Y-105789917D01*
X167003995Y-105789917D02*
X167003995Y-105423883D01*
X167339526Y-105423883D02*
X166698967Y-105423883D01*
X166698967Y-105179861D02*
X166698967Y-104783324D01*
X166942990Y-104996844D01*
X166942990Y-104905335D01*
X166973492Y-104844330D01*
X167003995Y-104813827D01*
X167065001Y-104783324D01*
X167217515Y-104783324D01*
X167278521Y-104813827D01*
X167309023Y-104844330D01*
X167339526Y-104905335D01*
X167339526Y-105088352D01*
X167309023Y-105149358D01*
X167278521Y-105179861D01*
X118998591Y-83945339D02*
X119021450Y-83876762D01*
X119021450Y-83762467D01*
X118998591Y-83716749D01*
X118975732Y-83693890D01*
X118930014Y-83671030D01*
X118884296Y-83671030D01*
X118838578Y-83693890D01*
X118815719Y-83716749D01*
X118792860Y-83762467D01*
X118770001Y-83853903D01*
X118747142Y-83899621D01*
X118724283Y-83922480D01*
X118678565Y-83945339D01*
X118632847Y-83945339D01*
X118587129Y-83922480D01*
X118564270Y-83899621D01*
X118541410Y-83853903D01*
X118541410Y-83739608D01*
X118564270Y-83671030D01*
X118541410Y-83328145D02*
X118884296Y-83328145D01*
X118952873Y-83351004D01*
X118998591Y-83396722D01*
X119021450Y-83465299D01*
X119021450Y-83511017D01*
X118838578Y-83099554D02*
X118838578Y-82733810D01*
X118701424Y-82299488D02*
X119021450Y-82299488D01*
X118518551Y-82413783D02*
X118861437Y-82528078D01*
X118861437Y-82230910D01*
X118541410Y-82093756D02*
X118541410Y-81796589D01*
X118724283Y-81956602D01*
X118724283Y-81888025D01*
X118747142Y-81842307D01*
X118770001Y-81819448D01*
X118815719Y-81796589D01*
X118930014Y-81796589D01*
X118975732Y-81819448D01*
X118998591Y-81842307D01*
X119021450Y-81888025D01*
X119021450Y-82025179D01*
X118998591Y-82070897D01*
X118975732Y-82093756D01*
X118541410Y-81362267D02*
X118541410Y-81590857D01*
X118770001Y-81613716D01*
X118747142Y-81590857D01*
X118724283Y-81545139D01*
X118724283Y-81430844D01*
X118747142Y-81385126D01*
X118770001Y-81362267D01*
X118815719Y-81339408D01*
X118930014Y-81339408D01*
X118975732Y-81362267D01*
X118998591Y-81385126D01*
X119021450Y-81430844D01*
X119021450Y-81545139D01*
X118998591Y-81590857D01*
X118975732Y-81613716D01*
X119021450Y-80882227D02*
X119021450Y-81156535D01*
X119021450Y-81019381D02*
X118541410Y-81019381D01*
X118609988Y-81065099D01*
X118655706Y-81110817D01*
X118678565Y-81156535D01*
X118541410Y-80447905D02*
X118541410Y-80676495D01*
X118770001Y-80699354D01*
X118747142Y-80676495D01*
X118724283Y-80630777D01*
X118724283Y-80516482D01*
X118747142Y-80470764D01*
X118770001Y-80447905D01*
X118815719Y-80425046D01*
X118930014Y-80425046D01*
X118975732Y-80447905D01*
X118998591Y-80470764D01*
X119021450Y-80516482D01*
X119021450Y-80630777D01*
X118998591Y-80676495D01*
X118975732Y-80699354D01*
X118541410Y-80287891D02*
X118541410Y-80013583D01*
X119021450Y-80150737D02*
X118541410Y-80150737D01*
X118998591Y-79876429D02*
X119021450Y-79807851D01*
X119021450Y-79693556D01*
X118998591Y-79647838D01*
X118975732Y-79624979D01*
X118930014Y-79602120D01*
X118884296Y-79602120D01*
X118838578Y-79624979D01*
X118815719Y-79647838D01*
X118792860Y-79693556D01*
X118770001Y-79784992D01*
X118747142Y-79830710D01*
X118724283Y-79853570D01*
X118678565Y-79876429D01*
X118632847Y-79876429D01*
X118587129Y-79853570D01*
X118564270Y-79830710D01*
X118541410Y-79784992D01*
X118541410Y-79670697D01*
X118564270Y-79602120D01*
X131698967Y-110792378D02*
X131698967Y-110395841D01*
X131942990Y-110609361D01*
X131942990Y-110517852D01*
X131973492Y-110456847D01*
X132003995Y-110426344D01*
X132065001Y-110395841D01*
X132217515Y-110395841D01*
X132278521Y-110426344D01*
X132309023Y-110456847D01*
X132339526Y-110517852D01*
X132339526Y-110700869D01*
X132309023Y-110761875D01*
X132278521Y-110792378D01*
X131698967Y-109816288D02*
X131698967Y-110121316D01*
X132003995Y-110151819D01*
X131973492Y-110121316D01*
X131942990Y-110060310D01*
X131942990Y-109907796D01*
X131973492Y-109846791D01*
X132003995Y-109816288D01*
X132065001Y-109785785D01*
X132217515Y-109785785D01*
X132278521Y-109816288D01*
X132309023Y-109846791D01*
X132339526Y-109907796D01*
X132339526Y-110060310D01*
X132309023Y-110121316D01*
X132278521Y-110151819D01*
X132339526Y-109145226D02*
X132034498Y-109358746D01*
X132339526Y-109511260D02*
X131698967Y-109511260D01*
X131698967Y-109267237D01*
X131729470Y-109206232D01*
X131759973Y-109175729D01*
X131820978Y-109145226D01*
X131912487Y-109145226D01*
X131973492Y-109175729D01*
X132003995Y-109206232D01*
X132034498Y-109267237D01*
X132034498Y-109511260D01*
X132156509Y-108901203D02*
X132156509Y-108596175D01*
X132339526Y-108962209D02*
X131698967Y-108748689D01*
X132339526Y-108535170D01*
X132339526Y-108321650D02*
X131698967Y-108321650D01*
X131698967Y-108077628D01*
X131729470Y-108016622D01*
X131759973Y-107986119D01*
X131820978Y-107955616D01*
X131912487Y-107955616D01*
X131973492Y-107986119D01*
X132003995Y-108016622D01*
X132034498Y-108077628D01*
X132034498Y-108321650D01*
X132278521Y-107315057D02*
X132309023Y-107345560D01*
X132339526Y-107437069D01*
X132339526Y-107498074D01*
X132309023Y-107589583D01*
X132248018Y-107650588D01*
X132187012Y-107681091D01*
X132065001Y-107711594D01*
X131973492Y-107711594D01*
X131851481Y-107681091D01*
X131790476Y-107650588D01*
X131729470Y-107589583D01*
X131698967Y-107498074D01*
X131698967Y-107437069D01*
X131729470Y-107345560D01*
X131759973Y-107315057D01*
X131912487Y-106766007D02*
X132339526Y-106766007D01*
X131668464Y-106918521D02*
X132126007Y-107071035D01*
X132126007Y-106674498D01*
X132003995Y-106216956D02*
X132034498Y-106125448D01*
X132065001Y-106094945D01*
X132126007Y-106064442D01*
X132217515Y-106064442D01*
X132278521Y-106094945D01*
X132309023Y-106125448D01*
X132339526Y-106186453D01*
X132339526Y-106430476D01*
X131698967Y-106430476D01*
X131698967Y-106216956D01*
X131729470Y-106155951D01*
X131759973Y-106125448D01*
X131820978Y-106094945D01*
X131881984Y-106094945D01*
X131942990Y-106125448D01*
X131973492Y-106155951D01*
X132003995Y-106216956D01*
X132003995Y-106430476D01*
X132339526Y-105789917D02*
X131698967Y-105789917D01*
X132003995Y-105789917D02*
X132003995Y-105423883D01*
X132339526Y-105423883D02*
X131698967Y-105423883D01*
X131698967Y-105179861D02*
X131698967Y-104783324D01*
X131942990Y-104996844D01*
X131942990Y-104905335D01*
X131973492Y-104844330D01*
X132003995Y-104813827D01*
X132065001Y-104783324D01*
X132217515Y-104783324D01*
X132278521Y-104813827D01*
X132309023Y-104844330D01*
X132339526Y-104905335D01*
X132339526Y-105088352D01*
X132309023Y-105149358D01*
X132278521Y-105179861D01*
X149663670Y-88749380D02*
X149717010Y-88589360D01*
X149717010Y-88322660D01*
X149663670Y-88215980D01*
X149610330Y-88162640D01*
X149503650Y-88109300D01*
X149396970Y-88109300D01*
X149290290Y-88162640D01*
X149236950Y-88215980D01*
X149183610Y-88322660D01*
X149130270Y-88536020D01*
X149076930Y-88642700D01*
X149023590Y-88696040D01*
X148916910Y-88749380D01*
X148810230Y-88749380D01*
X148703550Y-88696040D01*
X148650210Y-88642700D01*
X148596870Y-88536020D01*
X148596870Y-88269320D01*
X148650210Y-88109300D01*
X148596870Y-87309200D02*
X149396970Y-87309200D01*
X149556990Y-87362540D01*
X149663670Y-87469220D01*
X149717010Y-87629240D01*
X149717010Y-87735920D01*
X149717010Y-86189060D02*
X149717010Y-86829140D01*
X149717010Y-86509100D02*
X148596870Y-86509100D01*
X148756890Y-86615780D01*
X148863570Y-86722460D01*
X148916910Y-86829140D01*
X149290290Y-85709000D02*
X149290290Y-84855560D01*
X148970250Y-83842100D02*
X149717010Y-83842100D01*
X148543530Y-84108800D02*
X149343630Y-84375500D01*
X149343630Y-83682080D01*
X148703550Y-83308700D02*
X148650210Y-83255360D01*
X148596870Y-83148680D01*
X148596870Y-82881980D01*
X148650210Y-82775300D01*
X148703550Y-82721960D01*
X148810230Y-82668620D01*
X148916910Y-82668620D01*
X149076930Y-82721960D01*
X149717010Y-83362040D01*
X149717010Y-82668620D01*
X148596870Y-81655160D02*
X148596870Y-82188560D01*
X149130270Y-82241900D01*
X149076930Y-82188560D01*
X149023590Y-82081880D01*
X149023590Y-81815180D01*
X149076930Y-81708500D01*
X149130270Y-81655160D01*
X149236950Y-81601820D01*
X149503650Y-81601820D01*
X149610330Y-81655160D01*
X149663670Y-81708500D01*
X149717010Y-81815180D01*
X149717010Y-82081880D01*
X149663670Y-82188560D01*
X149610330Y-82241900D01*
X148596870Y-81228440D02*
X148596870Y-80535020D01*
X149023590Y-80908400D01*
X149023590Y-80748380D01*
X149076930Y-80641700D01*
X149130270Y-80588360D01*
X149236950Y-80535020D01*
X149503650Y-80535020D01*
X149610330Y-80588360D01*
X149663670Y-80641700D01*
X149717010Y-80748380D01*
X149717010Y-81068420D01*
X149663670Y-81175100D01*
X149610330Y-81228440D01*
X148596870Y-79574900D02*
X148596870Y-79788260D01*
X148650210Y-79894940D01*
X148703550Y-79948280D01*
X148863570Y-80054960D01*
X149076930Y-80108300D01*
X149503650Y-80108300D01*
X149610330Y-80054960D01*
X149663670Y-80001620D01*
X149717010Y-79894940D01*
X149717010Y-79681580D01*
X149663670Y-79574900D01*
X149610330Y-79521560D01*
X149503650Y-79468220D01*
X149236950Y-79468220D01*
X149130270Y-79521560D01*
X149076930Y-79574900D01*
X149023590Y-79681580D01*
X149023590Y-79894940D01*
X149076930Y-80001620D01*
X149130270Y-80054960D01*
X149236950Y-80108300D01*
X149290290Y-78988160D02*
X149290290Y-78134720D01*
X149663670Y-77654660D02*
X149717010Y-77494640D01*
X149717010Y-77227940D01*
X149663670Y-77121260D01*
X149610330Y-77067920D01*
X149503650Y-77014580D01*
X149396970Y-77014580D01*
X149290290Y-77067920D01*
X149236950Y-77121260D01*
X149183610Y-77227940D01*
X149130270Y-77441300D01*
X149076930Y-77547980D01*
X149023590Y-77601320D01*
X148916910Y-77654660D01*
X148810230Y-77654660D01*
X148703550Y-77601320D01*
X148650210Y-77547980D01*
X148596870Y-77441300D01*
X148596870Y-77174600D01*
X148650210Y-77014580D01*
X149717010Y-76534520D02*
X148596870Y-76534520D01*
X149396970Y-76161140D01*
X148596870Y-75787760D01*
X149717010Y-75787760D01*
X148596870Y-75414380D02*
X148596870Y-74774300D01*
X149717010Y-75094340D02*
X148596870Y-75094340D01*
M02*
