G04 #@! TF.FileFunction,Legend,Bot*
%FSLAX46Y46*%
G04 Gerber Fmt 4.6, Leading zero omitted, Abs format (unit mm)*
G04 Created by KiCad (PCBNEW 4.0.6) date Sunday, March 03, 2019 'PMt' 03:44:16 PM*
%MOMM*%
%LPD*%
G01*
G04 APERTURE LIST*
%ADD10C,0.150000*%
%ADD11C,0.200000*%
%ADD12C,0.250000*%
G04 APERTURE END LIST*
D10*
D11*
X171892727Y-102051870D02*
X172229445Y-101715152D01*
X171623353Y-101917183D02*
X172566162Y-102388588D01*
X172094758Y-101445779D01*
X172936552Y-101344763D02*
X173003896Y-101210077D01*
X173003895Y-101142732D01*
X172970223Y-101041717D01*
X172869208Y-100940702D01*
X172768193Y-100907030D01*
X172700850Y-100907030D01*
X172599835Y-100940702D01*
X172330460Y-101210077D01*
X173037567Y-101917183D01*
X173273270Y-101681481D01*
X173306941Y-101580465D01*
X173306941Y-101513122D01*
X173273270Y-101412107D01*
X173205926Y-101344763D01*
X173104911Y-101311092D01*
X173037568Y-101311092D01*
X172936552Y-101344763D01*
X172700850Y-101580466D01*
X173037567Y-100502970D02*
X173744674Y-101210077D01*
X173441628Y-100098908D01*
X174148735Y-100806015D01*
X171782563Y-91875034D02*
X172119281Y-91538316D01*
X171513190Y-91740347D02*
X172455998Y-92211752D01*
X171984594Y-91268942D01*
X172826389Y-91167927D02*
X172893732Y-91033240D01*
X172893731Y-90965896D01*
X172860060Y-90864881D01*
X172759044Y-90763866D01*
X172658029Y-90730194D01*
X172590686Y-90730194D01*
X172489671Y-90763866D01*
X172220296Y-91033240D01*
X172927403Y-91740347D01*
X173163106Y-91504644D01*
X173196778Y-91403629D01*
X173196778Y-91336286D01*
X173163106Y-91235271D01*
X173095762Y-91167927D01*
X172994747Y-91134256D01*
X172927404Y-91134256D01*
X172826389Y-91167927D01*
X172590686Y-91403630D01*
X172927403Y-90326134D02*
X173634510Y-91033240D01*
X173331464Y-89922072D02*
X173432480Y-90629180D01*
X174038571Y-90629179D02*
X173230449Y-90629179D01*
X131632265Y-100656332D02*
X131968983Y-100319614D01*
X131362892Y-100521645D02*
X132305700Y-100993050D01*
X131834296Y-100050240D01*
X132676090Y-100622660D02*
X132204685Y-99679851D01*
X133147495Y-100151256D01*
X132676090Y-99208447D02*
X133383197Y-99915553D01*
X130906861Y-92976675D02*
X131613968Y-93683782D01*
X131782327Y-93515424D01*
X131849671Y-93380736D01*
X131849671Y-93246049D01*
X131815999Y-93145034D01*
X131714984Y-92976675D01*
X131613968Y-92875660D01*
X131445609Y-92774644D01*
X131344594Y-92740973D01*
X131209907Y-92740973D01*
X131075220Y-92808317D01*
X130906861Y-92976675D01*
X132455762Y-92841989D02*
X132590449Y-92707301D01*
X132624121Y-92606286D01*
X132624121Y-92471599D01*
X132523106Y-92303240D01*
X132287403Y-92067538D01*
X132119044Y-91966522D01*
X131984358Y-91966522D01*
X131883342Y-92000194D01*
X131748655Y-92134882D01*
X131714983Y-92235897D01*
X131714983Y-92370584D01*
X131815998Y-92538942D01*
X132051701Y-92774645D01*
X132220060Y-92875660D01*
X132354747Y-92875660D01*
X132455762Y-92841989D01*
X132758808Y-91124729D02*
X132859823Y-91697149D01*
X132354747Y-91528790D02*
X133061853Y-92235897D01*
X133331228Y-91966522D01*
X133364899Y-91865507D01*
X133364899Y-91798164D01*
X133331228Y-91697149D01*
X133230213Y-91596134D01*
X133129197Y-91562462D01*
X133061854Y-91562462D01*
X132960839Y-91596134D01*
X132691464Y-91865508D01*
X131125727Y-90748870D02*
X131462445Y-90412152D01*
X130856353Y-90614183D02*
X131799162Y-91085588D01*
X131327758Y-90142779D01*
X132169552Y-90041763D02*
X132236896Y-89907077D01*
X132236895Y-89839732D01*
X132203223Y-89738717D01*
X132102208Y-89637702D01*
X132001193Y-89604030D01*
X131933850Y-89604030D01*
X131832835Y-89637702D01*
X131563460Y-89907077D01*
X132270567Y-90614183D01*
X132506270Y-90378481D01*
X132539941Y-90277465D01*
X132539941Y-90210122D01*
X132506270Y-90109107D01*
X132438926Y-90041763D01*
X132337911Y-90008092D01*
X132270568Y-90008092D01*
X132169552Y-90041763D01*
X131933850Y-90277466D01*
X132977674Y-89907077D02*
X132405254Y-89334657D01*
X132371582Y-89233642D01*
X132371582Y-89166298D01*
X132405254Y-89065283D01*
X132539941Y-88930595D01*
X132640956Y-88896924D01*
X132708300Y-88896924D01*
X132809315Y-88930595D01*
X133381735Y-89503015D01*
X113253861Y-101358675D02*
X113960968Y-102065782D01*
X114129327Y-101897424D01*
X114196671Y-101762736D01*
X114196671Y-101628049D01*
X114162999Y-101527034D01*
X114061984Y-101358675D01*
X113960968Y-101257660D01*
X113792609Y-101156644D01*
X113691594Y-101122973D01*
X113556907Y-101122973D01*
X113422220Y-101190317D01*
X113253861Y-101358675D01*
X115004793Y-100954614D02*
X114971121Y-101055629D01*
X114870106Y-101156644D01*
X114735418Y-101223989D01*
X114600731Y-101223989D01*
X114499716Y-101190317D01*
X114331358Y-101089302D01*
X114230342Y-100988286D01*
X114129327Y-100819927D01*
X114095655Y-100718912D01*
X114095655Y-100584225D01*
X114162999Y-100449538D01*
X114230342Y-100382194D01*
X114365029Y-100314851D01*
X114432373Y-100314851D01*
X114668075Y-100550553D01*
X114533388Y-100685240D01*
X114668075Y-99944462D02*
X115375182Y-100651569D01*
X115072136Y-99540401D01*
X115779243Y-100247507D01*
X113253861Y-98818675D02*
X113960968Y-99525782D01*
X114129327Y-99357424D01*
X114196671Y-99222736D01*
X114196671Y-99088049D01*
X114162999Y-98987034D01*
X114061984Y-98818675D01*
X113960968Y-98717660D01*
X113792609Y-98616644D01*
X113691594Y-98582973D01*
X113556907Y-98582973D01*
X113422220Y-98650317D01*
X113253861Y-98818675D01*
X114567060Y-98246256D02*
X114634404Y-98111569D01*
X114634403Y-98044224D01*
X114600731Y-97943209D01*
X114499716Y-97842194D01*
X114398701Y-97808522D01*
X114331358Y-97808522D01*
X114230342Y-97842194D01*
X113960968Y-98111569D01*
X114668075Y-98818675D01*
X114903778Y-98582973D01*
X114937449Y-98481958D01*
X114937449Y-98414614D01*
X114903778Y-98313599D01*
X114836434Y-98246256D01*
X114735419Y-98212584D01*
X114668076Y-98212584D01*
X114567060Y-98246256D01*
X114331358Y-98481958D01*
X115375182Y-98111569D02*
X114802762Y-97539149D01*
X114769090Y-97438134D01*
X114769090Y-97370790D01*
X114802762Y-97269775D01*
X114937449Y-97135087D01*
X115038464Y-97101416D01*
X115105808Y-97101416D01*
X115206823Y-97135087D01*
X115779243Y-97707507D01*
X113515548Y-88523989D02*
X114222655Y-89231095D01*
X114391013Y-89062737D01*
X114458358Y-88928049D01*
X114458358Y-88793362D01*
X114424686Y-88692347D01*
X114323671Y-88523989D01*
X114222655Y-88422973D01*
X114054296Y-88321958D01*
X113953281Y-88288286D01*
X113818594Y-88288286D01*
X113683907Y-88355630D01*
X113515548Y-88523989D01*
X114694060Y-88018913D02*
X114357342Y-87682195D01*
X114828747Y-88625004D02*
X114694060Y-88018913D01*
X115300151Y-88153599D01*
X115165464Y-86874072D02*
X114828747Y-87210790D01*
X115535853Y-87917897D01*
X102085548Y-103001989D02*
X102792655Y-103709095D01*
X102961013Y-103540737D01*
X103028358Y-103406049D01*
X103028358Y-103271362D01*
X102994686Y-103170347D01*
X102893671Y-103001989D01*
X102792655Y-102900973D01*
X102624296Y-102799958D01*
X102523281Y-102766286D01*
X102388594Y-102766286D01*
X102253907Y-102833630D01*
X102085548Y-103001989D01*
X103264060Y-102496913D02*
X102927342Y-102160195D01*
X103398747Y-103103004D02*
X103264060Y-102496913D01*
X103870151Y-102631599D01*
X103735464Y-101352072D02*
X103398747Y-101688790D01*
X104105853Y-102395897D01*
X99808697Y-102992840D02*
X100515804Y-103699947D01*
X100684162Y-103531588D01*
X100751506Y-103396901D01*
X100751506Y-103262214D01*
X100717835Y-103161198D01*
X100616819Y-102992840D01*
X100515804Y-102891824D01*
X100347445Y-102790809D01*
X100246430Y-102757137D01*
X100111743Y-102757137D01*
X99977055Y-102824481D01*
X99808697Y-102992840D01*
X100919865Y-101881672D02*
X101020880Y-102454092D01*
X100515804Y-102285733D02*
X101222910Y-102992840D01*
X101492285Y-102723465D01*
X101525956Y-102622450D01*
X101525956Y-102555107D01*
X101492285Y-102454092D01*
X101391270Y-102353077D01*
X101290254Y-102319405D01*
X101222911Y-102319405D01*
X101121896Y-102353077D01*
X100852521Y-102622451D01*
X101222910Y-101578626D02*
X101930017Y-102285733D01*
X102098376Y-102117375D01*
X102165720Y-101982687D01*
X102165720Y-101848000D01*
X102132048Y-101746985D01*
X102031033Y-101578626D01*
X101930017Y-101477610D01*
X101761658Y-101376595D01*
X101660643Y-101342924D01*
X101525956Y-101342924D01*
X101391269Y-101410268D01*
X101222910Y-101578626D01*
X96997861Y-103009675D02*
X97704968Y-103716782D01*
X97873327Y-103548424D01*
X97940671Y-103413736D01*
X97940671Y-103279049D01*
X97906999Y-103178034D01*
X97805984Y-103009675D01*
X97704968Y-102908660D01*
X97536609Y-102807644D01*
X97435594Y-102773973D01*
X97300907Y-102773973D01*
X97166220Y-102841317D01*
X96997861Y-103009675D01*
X98311060Y-102437256D02*
X98378404Y-102302569D01*
X98378403Y-102235224D01*
X98344731Y-102134209D01*
X98243716Y-102033194D01*
X98142701Y-101999522D01*
X98075358Y-101999522D01*
X97974342Y-102033194D01*
X97704968Y-102302569D01*
X98412075Y-103009675D01*
X98647778Y-102773973D01*
X98681449Y-102672958D01*
X98681449Y-102605614D01*
X98647778Y-102504599D01*
X98580434Y-102437256D01*
X98479419Y-102403584D01*
X98412076Y-102403584D01*
X98311060Y-102437256D01*
X98075358Y-102672958D01*
X98412075Y-101595462D02*
X99119182Y-102302569D01*
X98816136Y-101191401D01*
X99523243Y-101898507D01*
X92823697Y-103119840D02*
X93530804Y-103826947D01*
X93699162Y-103658588D01*
X93766506Y-103523901D01*
X93766506Y-103389214D01*
X93732835Y-103288198D01*
X93631819Y-103119840D01*
X93530804Y-103018824D01*
X93362445Y-102917809D01*
X93261430Y-102884137D01*
X93126743Y-102884137D01*
X92992055Y-102951481D01*
X92823697Y-103119840D01*
X94136896Y-102547420D02*
X94204239Y-102412733D01*
X94204239Y-102345389D01*
X94170567Y-102244374D01*
X94069552Y-102143359D01*
X93968537Y-102109687D01*
X93901193Y-102109687D01*
X93800178Y-102143359D01*
X93530804Y-102412733D01*
X94237910Y-103119840D01*
X94473613Y-102884137D01*
X94507285Y-102783122D01*
X94507285Y-102715779D01*
X94473613Y-102614763D01*
X94406270Y-102547420D01*
X94305254Y-102513748D01*
X94237911Y-102513748D01*
X94136896Y-102547420D01*
X93901193Y-102783123D01*
X94237910Y-101705626D02*
X94945017Y-102412733D01*
X94641972Y-101301565D02*
X94742987Y-102008673D01*
X95349078Y-102008672D02*
X94540956Y-102008672D01*
D12*
X100947594Y-94711801D02*
X100947594Y-93711801D01*
X100566641Y-93711801D01*
X100471403Y-93759420D01*
X100423784Y-93807039D01*
X100376165Y-93902277D01*
X100376165Y-94045134D01*
X100423784Y-94140372D01*
X100471403Y-94187991D01*
X100566641Y-94235610D01*
X100947594Y-94235610D01*
X99947594Y-94187991D02*
X99614260Y-94187991D01*
X99471403Y-94711801D02*
X99947594Y-94711801D01*
X99947594Y-93711801D01*
X99471403Y-93711801D01*
X98471403Y-94616563D02*
X98519022Y-94664182D01*
X98661879Y-94711801D01*
X98757117Y-94711801D01*
X98899975Y-94664182D01*
X98995213Y-94568944D01*
X99042832Y-94473706D01*
X99090451Y-94283230D01*
X99090451Y-94140372D01*
X99042832Y-93949896D01*
X98995213Y-93854658D01*
X98899975Y-93759420D01*
X98757117Y-93711801D01*
X98661879Y-93711801D01*
X98519022Y-93759420D01*
X98471403Y-93807039D01*
X97519022Y-94711801D02*
X98090451Y-94711801D01*
X97804737Y-94711801D02*
X97804737Y-93711801D01*
X97899975Y-93854658D01*
X97995213Y-93949896D01*
X98090451Y-93997515D01*
X96566641Y-94711801D02*
X97138070Y-94711801D01*
X96852356Y-94711801D02*
X96852356Y-93711801D01*
X96947594Y-93854658D01*
X97042832Y-93949896D01*
X97138070Y-93997515D01*
X95566641Y-94711801D02*
X95899975Y-94235610D01*
X96138070Y-94711801D02*
X96138070Y-93711801D01*
X95757117Y-93711801D01*
X95661879Y-93759420D01*
X95614260Y-93807039D01*
X95566641Y-93902277D01*
X95566641Y-94045134D01*
X95614260Y-94140372D01*
X95661879Y-94187991D01*
X95757117Y-94235610D01*
X96138070Y-94235610D01*
X95138070Y-94330849D02*
X94376165Y-94330849D01*
X99947594Y-95795134D02*
X99947594Y-96461801D01*
X100185690Y-95414182D02*
X100423785Y-96128468D01*
X99804737Y-96128468D01*
X99233309Y-95461801D02*
X99138070Y-95461801D01*
X99042832Y-95509420D01*
X98995213Y-95557039D01*
X98947594Y-95652277D01*
X98899975Y-95842753D01*
X98899975Y-96080849D01*
X98947594Y-96271325D01*
X98995213Y-96366563D01*
X99042832Y-96414182D01*
X99138070Y-96461801D01*
X99233309Y-96461801D01*
X99328547Y-96414182D01*
X99376166Y-96366563D01*
X99423785Y-96271325D01*
X99471404Y-96080849D01*
X99471404Y-95842753D01*
X99423785Y-95652277D01*
X99376166Y-95557039D01*
X99328547Y-95509420D01*
X99233309Y-95461801D01*
X97947594Y-96461801D02*
X98519023Y-96461801D01*
X98233309Y-96461801D02*
X98233309Y-95461801D01*
X98328547Y-95604658D01*
X98423785Y-95699896D01*
X98519023Y-95747515D01*
X97042832Y-95461801D02*
X97519023Y-95461801D01*
X97566642Y-95937991D01*
X97519023Y-95890372D01*
X97423785Y-95842753D01*
X97185689Y-95842753D01*
X97090451Y-95890372D01*
X97042832Y-95937991D01*
X96995213Y-96033230D01*
X96995213Y-96271325D01*
X97042832Y-96366563D01*
X97090451Y-96414182D01*
X97185689Y-96461801D01*
X97423785Y-96461801D01*
X97519023Y-96414182D01*
X97566642Y-96366563D01*
X96233308Y-95937991D02*
X96566642Y-95937991D01*
X96566642Y-96461801D02*
X96566642Y-95461801D01*
X96090451Y-95461801D01*
X95709499Y-96080849D02*
X94947594Y-96080849D01*
X99852356Y-98164182D02*
X99709499Y-98211801D01*
X99471403Y-98211801D01*
X99376165Y-98164182D01*
X99328546Y-98116563D01*
X99280927Y-98021325D01*
X99280927Y-97926087D01*
X99328546Y-97830849D01*
X99376165Y-97783230D01*
X99471403Y-97735610D01*
X99661880Y-97687991D01*
X99757118Y-97640372D01*
X99804737Y-97592753D01*
X99852356Y-97497515D01*
X99852356Y-97402277D01*
X99804737Y-97307039D01*
X99757118Y-97259420D01*
X99661880Y-97211801D01*
X99423784Y-97211801D01*
X99280927Y-97259420D01*
X98661880Y-97211801D02*
X98566641Y-97211801D01*
X98471403Y-97259420D01*
X98423784Y-97307039D01*
X98376165Y-97402277D01*
X98328546Y-97592753D01*
X98328546Y-97830849D01*
X98376165Y-98021325D01*
X98423784Y-98116563D01*
X98471403Y-98164182D01*
X98566641Y-98211801D01*
X98661880Y-98211801D01*
X98757118Y-98164182D01*
X98804737Y-98116563D01*
X98852356Y-98021325D01*
X98899975Y-97830849D01*
X98899975Y-97592753D01*
X98852356Y-97402277D01*
X98804737Y-97307039D01*
X98757118Y-97259420D01*
X98661880Y-97211801D01*
X97709499Y-97211801D02*
X97614260Y-97211801D01*
X97519022Y-97259420D01*
X97471403Y-97307039D01*
X97423784Y-97402277D01*
X97376165Y-97592753D01*
X97376165Y-97830849D01*
X97423784Y-98021325D01*
X97471403Y-98116563D01*
X97519022Y-98164182D01*
X97614260Y-98211801D01*
X97709499Y-98211801D01*
X97804737Y-98164182D01*
X97852356Y-98116563D01*
X97899975Y-98021325D01*
X97947594Y-97830849D01*
X97947594Y-97592753D01*
X97899975Y-97402277D01*
X97852356Y-97307039D01*
X97804737Y-97259420D01*
X97709499Y-97211801D01*
X96995213Y-97307039D02*
X96947594Y-97259420D01*
X96852356Y-97211801D01*
X96614260Y-97211801D01*
X96519022Y-97259420D01*
X96471403Y-97307039D01*
X96423784Y-97402277D01*
X96423784Y-97497515D01*
X96471403Y-97640372D01*
X97042832Y-98211801D01*
X96423784Y-98211801D01*
X95566641Y-97545134D02*
X95566641Y-98211801D01*
X95804737Y-97164182D02*
X96042832Y-97878468D01*
X95423784Y-97878468D01*
D11*
X159202356Y-83433182D02*
X159059499Y-83480801D01*
X158821403Y-83480801D01*
X158726165Y-83433182D01*
X158678546Y-83385563D01*
X158630927Y-83290325D01*
X158630927Y-83195087D01*
X158678546Y-83099849D01*
X158726165Y-83052230D01*
X158821403Y-83004610D01*
X159011880Y-82956991D01*
X159107118Y-82909372D01*
X159154737Y-82861753D01*
X159202356Y-82766515D01*
X159202356Y-82671277D01*
X159154737Y-82576039D01*
X159107118Y-82528420D01*
X159011880Y-82480801D01*
X158773784Y-82480801D01*
X158630927Y-82528420D01*
X157916641Y-82480801D02*
X157916641Y-83195087D01*
X157964261Y-83337944D01*
X158059499Y-83433182D01*
X158202356Y-83480801D01*
X158297594Y-83480801D01*
X156916641Y-83480801D02*
X157488070Y-83480801D01*
X157202356Y-83480801D02*
X157202356Y-82480801D01*
X157297594Y-82623658D01*
X157392832Y-82718896D01*
X157488070Y-82766515D01*
X156488070Y-83099849D02*
X155726165Y-83099849D01*
X154821403Y-82814134D02*
X154821403Y-83480801D01*
X155059499Y-82433182D02*
X155297594Y-83147468D01*
X154678546Y-83147468D01*
X154345213Y-82576039D02*
X154297594Y-82528420D01*
X154202356Y-82480801D01*
X153964260Y-82480801D01*
X153869022Y-82528420D01*
X153821403Y-82576039D01*
X153773784Y-82671277D01*
X153773784Y-82766515D01*
X153821403Y-82909372D01*
X154392832Y-83480801D01*
X153773784Y-83480801D01*
X152869022Y-82480801D02*
X153345213Y-82480801D01*
X153392832Y-82956991D01*
X153345213Y-82909372D01*
X153249975Y-82861753D01*
X153011879Y-82861753D01*
X152916641Y-82909372D01*
X152869022Y-82956991D01*
X152821403Y-83052230D01*
X152821403Y-83290325D01*
X152869022Y-83385563D01*
X152916641Y-83433182D01*
X153011879Y-83480801D01*
X153249975Y-83480801D01*
X153345213Y-83433182D01*
X153392832Y-83385563D01*
X158869023Y-84180801D02*
X158249975Y-84180801D01*
X158583309Y-84561753D01*
X158440451Y-84561753D01*
X158345213Y-84609372D01*
X158297594Y-84656991D01*
X158249975Y-84752230D01*
X158249975Y-84990325D01*
X158297594Y-85085563D01*
X158345213Y-85133182D01*
X158440451Y-85180801D01*
X158726166Y-85180801D01*
X158821404Y-85133182D01*
X158869023Y-85085563D01*
X157392832Y-84180801D02*
X157583309Y-84180801D01*
X157678547Y-84228420D01*
X157726166Y-84276039D01*
X157821404Y-84418896D01*
X157869023Y-84609372D01*
X157869023Y-84990325D01*
X157821404Y-85085563D01*
X157773785Y-85133182D01*
X157678547Y-85180801D01*
X157488070Y-85180801D01*
X157392832Y-85133182D01*
X157345213Y-85085563D01*
X157297594Y-84990325D01*
X157297594Y-84752230D01*
X157345213Y-84656991D01*
X157392832Y-84609372D01*
X157488070Y-84561753D01*
X157678547Y-84561753D01*
X157773785Y-84609372D01*
X157821404Y-84656991D01*
X157869023Y-84752230D01*
X156869023Y-84799849D02*
X156107118Y-84799849D01*
X155678547Y-85133182D02*
X155535690Y-85180801D01*
X155297594Y-85180801D01*
X155202356Y-85133182D01*
X155154737Y-85085563D01*
X155107118Y-84990325D01*
X155107118Y-84895087D01*
X155154737Y-84799849D01*
X155202356Y-84752230D01*
X155297594Y-84704610D01*
X155488071Y-84656991D01*
X155583309Y-84609372D01*
X155630928Y-84561753D01*
X155678547Y-84466515D01*
X155678547Y-84371277D01*
X155630928Y-84276039D01*
X155583309Y-84228420D01*
X155488071Y-84180801D01*
X155249975Y-84180801D01*
X155107118Y-84228420D01*
X154678547Y-85180801D02*
X154678547Y-84180801D01*
X154345213Y-84895087D01*
X154011880Y-84180801D01*
X154011880Y-85180801D01*
X153678547Y-84180801D02*
X153107118Y-84180801D01*
X153392833Y-85180801D02*
X153392833Y-84180801D01*
D12*
X129547690Y-85680182D02*
X129404833Y-85727801D01*
X129166737Y-85727801D01*
X129071499Y-85680182D01*
X129023880Y-85632563D01*
X128976261Y-85537325D01*
X128976261Y-85442087D01*
X129023880Y-85346849D01*
X129071499Y-85299230D01*
X129166737Y-85251610D01*
X129357214Y-85203991D01*
X129452452Y-85156372D01*
X129500071Y-85108753D01*
X129547690Y-85013515D01*
X129547690Y-84918277D01*
X129500071Y-84823039D01*
X129452452Y-84775420D01*
X129357214Y-84727801D01*
X129119118Y-84727801D01*
X128976261Y-84775420D01*
X128261975Y-84727801D02*
X128261975Y-85442087D01*
X128309595Y-85584944D01*
X128404833Y-85680182D01*
X128547690Y-85727801D01*
X128642928Y-85727801D01*
X127785785Y-85346849D02*
X127023880Y-85346849D01*
X126119118Y-85061134D02*
X126119118Y-85727801D01*
X126357214Y-84680182D02*
X126595309Y-85394468D01*
X125976261Y-85394468D01*
X125690547Y-84727801D02*
X125071499Y-84727801D01*
X125404833Y-85108753D01*
X125261975Y-85108753D01*
X125166737Y-85156372D01*
X125119118Y-85203991D01*
X125071499Y-85299230D01*
X125071499Y-85537325D01*
X125119118Y-85632563D01*
X125166737Y-85680182D01*
X125261975Y-85727801D01*
X125547690Y-85727801D01*
X125642928Y-85680182D01*
X125690547Y-85632563D01*
X124166737Y-84727801D02*
X124642928Y-84727801D01*
X124690547Y-85203991D01*
X124642928Y-85156372D01*
X124547690Y-85108753D01*
X124309594Y-85108753D01*
X124214356Y-85156372D01*
X124166737Y-85203991D01*
X124119118Y-85299230D01*
X124119118Y-85537325D01*
X124166737Y-85632563D01*
X124214356Y-85680182D01*
X124309594Y-85727801D01*
X124547690Y-85727801D01*
X124642928Y-85680182D01*
X124690547Y-85632563D01*
X123166737Y-85727801D02*
X123738166Y-85727801D01*
X123452452Y-85727801D02*
X123452452Y-84727801D01*
X123547690Y-84870658D01*
X123642928Y-84965896D01*
X123738166Y-85013515D01*
X122261975Y-84727801D02*
X122738166Y-84727801D01*
X122785785Y-85203991D01*
X122738166Y-85156372D01*
X122642928Y-85108753D01*
X122404832Y-85108753D01*
X122309594Y-85156372D01*
X122261975Y-85203991D01*
X122214356Y-85299230D01*
X122214356Y-85537325D01*
X122261975Y-85632563D01*
X122309594Y-85680182D01*
X122404832Y-85727801D01*
X122642928Y-85727801D01*
X122738166Y-85680182D01*
X122785785Y-85632563D01*
X121928642Y-84727801D02*
X121357213Y-84727801D01*
X121642928Y-85727801D02*
X121642928Y-84727801D01*
X121071499Y-85680182D02*
X120928642Y-85727801D01*
X120690546Y-85727801D01*
X120595308Y-85680182D01*
X120547689Y-85632563D01*
X120500070Y-85537325D01*
X120500070Y-85442087D01*
X120547689Y-85346849D01*
X120595308Y-85299230D01*
X120690546Y-85251610D01*
X120881023Y-85203991D01*
X120976261Y-85156372D01*
X121023880Y-85108753D01*
X121071499Y-85013515D01*
X121071499Y-84918277D01*
X121023880Y-84823039D01*
X120976261Y-84775420D01*
X120881023Y-84727801D01*
X120642927Y-84727801D01*
X120500070Y-84775420D01*
X149867690Y-85934182D02*
X149724833Y-85981801D01*
X149486737Y-85981801D01*
X149391499Y-85934182D01*
X149343880Y-85886563D01*
X149296261Y-85791325D01*
X149296261Y-85696087D01*
X149343880Y-85600849D01*
X149391499Y-85553230D01*
X149486737Y-85505610D01*
X149677214Y-85457991D01*
X149772452Y-85410372D01*
X149820071Y-85362753D01*
X149867690Y-85267515D01*
X149867690Y-85172277D01*
X149820071Y-85077039D01*
X149772452Y-85029420D01*
X149677214Y-84981801D01*
X149439118Y-84981801D01*
X149296261Y-85029420D01*
X148581975Y-84981801D02*
X148581975Y-85696087D01*
X148629595Y-85838944D01*
X148724833Y-85934182D01*
X148867690Y-85981801D01*
X148962928Y-85981801D01*
X148105785Y-85600849D02*
X147343880Y-85600849D01*
X146439118Y-85315134D02*
X146439118Y-85981801D01*
X146677214Y-84934182D02*
X146915309Y-85648468D01*
X146296261Y-85648468D01*
X146010547Y-84981801D02*
X145391499Y-84981801D01*
X145724833Y-85362753D01*
X145581975Y-85362753D01*
X145486737Y-85410372D01*
X145439118Y-85457991D01*
X145391499Y-85553230D01*
X145391499Y-85791325D01*
X145439118Y-85886563D01*
X145486737Y-85934182D01*
X145581975Y-85981801D01*
X145867690Y-85981801D01*
X145962928Y-85934182D01*
X146010547Y-85886563D01*
X144486737Y-84981801D02*
X144962928Y-84981801D01*
X145010547Y-85457991D01*
X144962928Y-85410372D01*
X144867690Y-85362753D01*
X144629594Y-85362753D01*
X144534356Y-85410372D01*
X144486737Y-85457991D01*
X144439118Y-85553230D01*
X144439118Y-85791325D01*
X144486737Y-85886563D01*
X144534356Y-85934182D01*
X144629594Y-85981801D01*
X144867690Y-85981801D01*
X144962928Y-85934182D01*
X145010547Y-85886563D01*
X143486737Y-85981801D02*
X144058166Y-85981801D01*
X143772452Y-85981801D02*
X143772452Y-84981801D01*
X143867690Y-85124658D01*
X143962928Y-85219896D01*
X144058166Y-85267515D01*
X142581975Y-84981801D02*
X143058166Y-84981801D01*
X143105785Y-85457991D01*
X143058166Y-85410372D01*
X142962928Y-85362753D01*
X142724832Y-85362753D01*
X142629594Y-85410372D01*
X142581975Y-85457991D01*
X142534356Y-85553230D01*
X142534356Y-85791325D01*
X142581975Y-85886563D01*
X142629594Y-85934182D01*
X142724832Y-85981801D01*
X142962928Y-85981801D01*
X143058166Y-85934182D01*
X143105785Y-85886563D01*
X142248642Y-84981801D02*
X141677213Y-84981801D01*
X141962928Y-85981801D02*
X141962928Y-84981801D01*
X141391499Y-85934182D02*
X141248642Y-85981801D01*
X141010546Y-85981801D01*
X140915308Y-85934182D01*
X140867689Y-85886563D01*
X140820070Y-85791325D01*
X140820070Y-85696087D01*
X140867689Y-85600849D01*
X140915308Y-85553230D01*
X141010546Y-85505610D01*
X141201023Y-85457991D01*
X141296261Y-85410372D01*
X141343880Y-85362753D01*
X141391499Y-85267515D01*
X141391499Y-85172277D01*
X141343880Y-85077039D01*
X141296261Y-85029420D01*
X141201023Y-84981801D01*
X140962927Y-84981801D01*
X140820070Y-85029420D01*
X130500166Y-97935801D02*
X129881118Y-97935801D01*
X130214452Y-98316753D01*
X130071594Y-98316753D01*
X129976356Y-98364372D01*
X129928737Y-98411991D01*
X129881118Y-98507230D01*
X129881118Y-98745325D01*
X129928737Y-98840563D01*
X129976356Y-98888182D01*
X130071594Y-98935801D01*
X130357309Y-98935801D01*
X130452547Y-98888182D01*
X130500166Y-98840563D01*
X128976356Y-97935801D02*
X129452547Y-97935801D01*
X129500166Y-98411991D01*
X129452547Y-98364372D01*
X129357309Y-98316753D01*
X129119213Y-98316753D01*
X129023975Y-98364372D01*
X128976356Y-98411991D01*
X128928737Y-98507230D01*
X128928737Y-98745325D01*
X128976356Y-98840563D01*
X129023975Y-98888182D01*
X129119213Y-98935801D01*
X129357309Y-98935801D01*
X129452547Y-98888182D01*
X129500166Y-98840563D01*
X127928737Y-98935801D02*
X128262071Y-98459610D01*
X128500166Y-98935801D02*
X128500166Y-97935801D01*
X128119213Y-97935801D01*
X128023975Y-97983420D01*
X127976356Y-98031039D01*
X127928737Y-98126277D01*
X127928737Y-98269134D01*
X127976356Y-98364372D01*
X128023975Y-98411991D01*
X128119213Y-98459610D01*
X128500166Y-98459610D01*
X127547785Y-98650087D02*
X127071594Y-98650087D01*
X127643023Y-98935801D02*
X127309690Y-97935801D01*
X126976356Y-98935801D01*
X126643023Y-98935801D02*
X126643023Y-97935801D01*
X126262070Y-97935801D01*
X126166832Y-97983420D01*
X126119213Y-98031039D01*
X126071594Y-98126277D01*
X126071594Y-98269134D01*
X126119213Y-98364372D01*
X126166832Y-98411991D01*
X126262070Y-98459610D01*
X126643023Y-98459610D01*
X125071594Y-98840563D02*
X125119213Y-98888182D01*
X125262070Y-98935801D01*
X125357308Y-98935801D01*
X125500166Y-98888182D01*
X125595404Y-98792944D01*
X125643023Y-98697706D01*
X125690642Y-98507230D01*
X125690642Y-98364372D01*
X125643023Y-98173896D01*
X125595404Y-98078658D01*
X125500166Y-97983420D01*
X125357308Y-97935801D01*
X125262070Y-97935801D01*
X125119213Y-97983420D01*
X125071594Y-98031039D01*
X124214451Y-98269134D02*
X124214451Y-98935801D01*
X124452547Y-97888182D02*
X124690642Y-98602468D01*
X124071594Y-98602468D01*
X123357308Y-98411991D02*
X123214451Y-98459610D01*
X123166832Y-98507230D01*
X123119213Y-98602468D01*
X123119213Y-98745325D01*
X123166832Y-98840563D01*
X123214451Y-98888182D01*
X123309689Y-98935801D01*
X123690642Y-98935801D01*
X123690642Y-97935801D01*
X123357308Y-97935801D01*
X123262070Y-97983420D01*
X123214451Y-98031039D01*
X123166832Y-98126277D01*
X123166832Y-98221515D01*
X123214451Y-98316753D01*
X123262070Y-98364372D01*
X123357308Y-98411991D01*
X123690642Y-98411991D01*
X122690642Y-98935801D02*
X122690642Y-97935801D01*
X122690642Y-98411991D02*
X122119213Y-98411991D01*
X122119213Y-98935801D02*
X122119213Y-97935801D01*
X121738261Y-97935801D02*
X121119213Y-97935801D01*
X121452547Y-98316753D01*
X121309689Y-98316753D01*
X121214451Y-98364372D01*
X121166832Y-98411991D01*
X121119213Y-98507230D01*
X121119213Y-98745325D01*
X121166832Y-98840563D01*
X121214451Y-98888182D01*
X121309689Y-98935801D01*
X121595404Y-98935801D01*
X121690642Y-98888182D01*
X121738261Y-98840563D01*
X150626166Y-97711801D02*
X150007118Y-97711801D01*
X150340452Y-98092753D01*
X150197594Y-98092753D01*
X150102356Y-98140372D01*
X150054737Y-98187991D01*
X150007118Y-98283230D01*
X150007118Y-98521325D01*
X150054737Y-98616563D01*
X150102356Y-98664182D01*
X150197594Y-98711801D01*
X150483309Y-98711801D01*
X150578547Y-98664182D01*
X150626166Y-98616563D01*
X149102356Y-97711801D02*
X149578547Y-97711801D01*
X149626166Y-98187991D01*
X149578547Y-98140372D01*
X149483309Y-98092753D01*
X149245213Y-98092753D01*
X149149975Y-98140372D01*
X149102356Y-98187991D01*
X149054737Y-98283230D01*
X149054737Y-98521325D01*
X149102356Y-98616563D01*
X149149975Y-98664182D01*
X149245213Y-98711801D01*
X149483309Y-98711801D01*
X149578547Y-98664182D01*
X149626166Y-98616563D01*
X148054737Y-98711801D02*
X148388071Y-98235610D01*
X148626166Y-98711801D02*
X148626166Y-97711801D01*
X148245213Y-97711801D01*
X148149975Y-97759420D01*
X148102356Y-97807039D01*
X148054737Y-97902277D01*
X148054737Y-98045134D01*
X148102356Y-98140372D01*
X148149975Y-98187991D01*
X148245213Y-98235610D01*
X148626166Y-98235610D01*
X147673785Y-98426087D02*
X147197594Y-98426087D01*
X147769023Y-98711801D02*
X147435690Y-97711801D01*
X147102356Y-98711801D01*
X146769023Y-98711801D02*
X146769023Y-97711801D01*
X146388070Y-97711801D01*
X146292832Y-97759420D01*
X146245213Y-97807039D01*
X146197594Y-97902277D01*
X146197594Y-98045134D01*
X146245213Y-98140372D01*
X146292832Y-98187991D01*
X146388070Y-98235610D01*
X146769023Y-98235610D01*
X145197594Y-98616563D02*
X145245213Y-98664182D01*
X145388070Y-98711801D01*
X145483308Y-98711801D01*
X145626166Y-98664182D01*
X145721404Y-98568944D01*
X145769023Y-98473706D01*
X145816642Y-98283230D01*
X145816642Y-98140372D01*
X145769023Y-97949896D01*
X145721404Y-97854658D01*
X145626166Y-97759420D01*
X145483308Y-97711801D01*
X145388070Y-97711801D01*
X145245213Y-97759420D01*
X145197594Y-97807039D01*
X144340451Y-98045134D02*
X144340451Y-98711801D01*
X144578547Y-97664182D02*
X144816642Y-98378468D01*
X144197594Y-98378468D01*
X143483308Y-98187991D02*
X143340451Y-98235610D01*
X143292832Y-98283230D01*
X143245213Y-98378468D01*
X143245213Y-98521325D01*
X143292832Y-98616563D01*
X143340451Y-98664182D01*
X143435689Y-98711801D01*
X143816642Y-98711801D01*
X143816642Y-97711801D01*
X143483308Y-97711801D01*
X143388070Y-97759420D01*
X143340451Y-97807039D01*
X143292832Y-97902277D01*
X143292832Y-97997515D01*
X143340451Y-98092753D01*
X143388070Y-98140372D01*
X143483308Y-98187991D01*
X143816642Y-98187991D01*
X142816642Y-98711801D02*
X142816642Y-97711801D01*
X142816642Y-98187991D02*
X142245213Y-98187991D01*
X142245213Y-98711801D02*
X142245213Y-97711801D01*
X141864261Y-97711801D02*
X141245213Y-97711801D01*
X141578547Y-98092753D01*
X141435689Y-98092753D01*
X141340451Y-98140372D01*
X141292832Y-98187991D01*
X141245213Y-98283230D01*
X141245213Y-98521325D01*
X141292832Y-98616563D01*
X141340451Y-98664182D01*
X141435689Y-98711801D01*
X141721404Y-98711801D01*
X141816642Y-98664182D01*
X141864261Y-98616563D01*
X165626166Y-97711801D02*
X165007118Y-97711801D01*
X165340452Y-98092753D01*
X165197594Y-98092753D01*
X165102356Y-98140372D01*
X165054737Y-98187991D01*
X165007118Y-98283230D01*
X165007118Y-98521325D01*
X165054737Y-98616563D01*
X165102356Y-98664182D01*
X165197594Y-98711801D01*
X165483309Y-98711801D01*
X165578547Y-98664182D01*
X165626166Y-98616563D01*
X164102356Y-97711801D02*
X164578547Y-97711801D01*
X164626166Y-98187991D01*
X164578547Y-98140372D01*
X164483309Y-98092753D01*
X164245213Y-98092753D01*
X164149975Y-98140372D01*
X164102356Y-98187991D01*
X164054737Y-98283230D01*
X164054737Y-98521325D01*
X164102356Y-98616563D01*
X164149975Y-98664182D01*
X164245213Y-98711801D01*
X164483309Y-98711801D01*
X164578547Y-98664182D01*
X164626166Y-98616563D01*
X163054737Y-98711801D02*
X163388071Y-98235610D01*
X163626166Y-98711801D02*
X163626166Y-97711801D01*
X163245213Y-97711801D01*
X163149975Y-97759420D01*
X163102356Y-97807039D01*
X163054737Y-97902277D01*
X163054737Y-98045134D01*
X163102356Y-98140372D01*
X163149975Y-98187991D01*
X163245213Y-98235610D01*
X163626166Y-98235610D01*
X162673785Y-98426087D02*
X162197594Y-98426087D01*
X162769023Y-98711801D02*
X162435690Y-97711801D01*
X162102356Y-98711801D01*
X161769023Y-98711801D02*
X161769023Y-97711801D01*
X161388070Y-97711801D01*
X161292832Y-97759420D01*
X161245213Y-97807039D01*
X161197594Y-97902277D01*
X161197594Y-98045134D01*
X161245213Y-98140372D01*
X161292832Y-98187991D01*
X161388070Y-98235610D01*
X161769023Y-98235610D01*
X160197594Y-98616563D02*
X160245213Y-98664182D01*
X160388070Y-98711801D01*
X160483308Y-98711801D01*
X160626166Y-98664182D01*
X160721404Y-98568944D01*
X160769023Y-98473706D01*
X160816642Y-98283230D01*
X160816642Y-98140372D01*
X160769023Y-97949896D01*
X160721404Y-97854658D01*
X160626166Y-97759420D01*
X160483308Y-97711801D01*
X160388070Y-97711801D01*
X160245213Y-97759420D01*
X160197594Y-97807039D01*
X159340451Y-98045134D02*
X159340451Y-98711801D01*
X159578547Y-97664182D02*
X159816642Y-98378468D01*
X159197594Y-98378468D01*
X158483308Y-98187991D02*
X158340451Y-98235610D01*
X158292832Y-98283230D01*
X158245213Y-98378468D01*
X158245213Y-98521325D01*
X158292832Y-98616563D01*
X158340451Y-98664182D01*
X158435689Y-98711801D01*
X158816642Y-98711801D01*
X158816642Y-97711801D01*
X158483308Y-97711801D01*
X158388070Y-97759420D01*
X158340451Y-97807039D01*
X158292832Y-97902277D01*
X158292832Y-97997515D01*
X158340451Y-98092753D01*
X158388070Y-98140372D01*
X158483308Y-98187991D01*
X158816642Y-98187991D01*
X157816642Y-98711801D02*
X157816642Y-97711801D01*
X157816642Y-98187991D02*
X157245213Y-98187991D01*
X157245213Y-98711801D02*
X157245213Y-97711801D01*
X156864261Y-97711801D02*
X156245213Y-97711801D01*
X156578547Y-98092753D01*
X156435689Y-98092753D01*
X156340451Y-98140372D01*
X156292832Y-98187991D01*
X156245213Y-98283230D01*
X156245213Y-98521325D01*
X156292832Y-98616563D01*
X156340451Y-98664182D01*
X156435689Y-98711801D01*
X156721404Y-98711801D01*
X156816642Y-98664182D01*
X156864261Y-98616563D01*
M02*
