G04 #@! TF.GenerationSoftware,KiCad,Pcbnew,(5.1.0-0)*
G04 #@! TF.CreationDate,2019-04-18T20:26:35-04:00*
G04 #@! TF.ProjectId,ubitx_panel,75626974-785f-4706-916e-656c2e6b6963,0.1*
G04 #@! TF.SameCoordinates,Original*
G04 #@! TF.FileFunction,Soldermask,Bot*
G04 #@! TF.FilePolarity,Negative*
%FSLAX46Y46*%
G04 Gerber Fmt 4.6, Leading zero omitted, Abs format (unit mm)*
G04 Created by KiCad (PCBNEW (5.1.0-0)) date 2019-04-18 20:26:35*
%MOMM*%
%LPD*%
G04 APERTURE LIST*
%ADD10O,1.400000X1.400000*%
%ADD11C,1.400000*%
%ADD12R,1.700000X1.700000*%
%ADD13O,1.700000X1.700000*%
%ADD14C,2.540000*%
%ADD15C,3.000000*%
%ADD16R,1.650000X1.650000*%
%ADD17C,1.650000*%
%ADD18C,1.100000*%
%ADD19O,2.516000X1.258000*%
%ADD20O,1.258000X2.516000*%
%ADD21C,2.000000*%
%ADD22C,3.200000*%
%ADD23R,2.000000X2.000000*%
%ADD24R,1.000000X1.000000*%
%ADD25O,1.000000X1.000000*%
%ADD26C,1.998980*%
%ADD27C,2.100000*%
%ADD28C,1.750000*%
G04 APERTURE END LIST*
D10*
X110926880Y-90609420D03*
D11*
X110926880Y-88069420D03*
D10*
X110926880Y-96324420D03*
D11*
X110926880Y-93784420D03*
D10*
X110926880Y-99499420D03*
D11*
X110926880Y-102039420D03*
D12*
X135000000Y-90000000D03*
D13*
X135000000Y-92540000D03*
X135000000Y-95080000D03*
X135000000Y-97620000D03*
X135000000Y-100160000D03*
D14*
X117932200Y-83820000D03*
X167000000Y-108000000D03*
D15*
X112500000Y-106500000D03*
X112500000Y-82500000D03*
X171500000Y-82500000D03*
X171500000Y-106500000D03*
D16*
X149800000Y-82400000D03*
D17*
X141400000Y-87400000D03*
X146600000Y-90500000D03*
X140500000Y-82400000D03*
D18*
X145000000Y-82400000D03*
X145000000Y-87400000D03*
D17*
X143400000Y-90500000D03*
D12*
X170000000Y-91000000D03*
D13*
X169911880Y-93799420D03*
X169911880Y-96339420D03*
X169911880Y-98879420D03*
X169911880Y-101419420D03*
D19*
X145250000Y-107500000D03*
D20*
X140050000Y-99700000D03*
X142750000Y-101100000D03*
D19*
X149250000Y-96500000D03*
D20*
X149750000Y-104100000D03*
D19*
X160250000Y-107500000D03*
D20*
X155050000Y-99700000D03*
X157750000Y-101100000D03*
D19*
X164250000Y-96500000D03*
D20*
X164750000Y-104100000D03*
D12*
X93000000Y-105000000D03*
D13*
X95540000Y-105000000D03*
X98080000Y-105000000D03*
X100620000Y-105000000D03*
X103160000Y-105000000D03*
D21*
X100000000Y-85500000D03*
X95000000Y-85500000D03*
D22*
X103100000Y-92500000D03*
X91900000Y-92500000D03*
D21*
X100000000Y-100000000D03*
X97500000Y-100000000D03*
D23*
X95000000Y-100000000D03*
D16*
X129800000Y-82400000D03*
D17*
X121400000Y-87400000D03*
X126600000Y-90500000D03*
X120500000Y-82400000D03*
D18*
X125000000Y-82400000D03*
X125000000Y-87400000D03*
D17*
X123400000Y-90500000D03*
D19*
X125250000Y-107500000D03*
D20*
X120050000Y-99700000D03*
X122750000Y-101100000D03*
D19*
X129250000Y-96500000D03*
D20*
X129750000Y-104100000D03*
D24*
X107750000Y-80500000D03*
D25*
X107750000Y-81770000D03*
X107750000Y-83040000D03*
X107750000Y-84310000D03*
X107750000Y-85580000D03*
X107750000Y-86850000D03*
X107750000Y-88120000D03*
X107750000Y-89390000D03*
X107750000Y-90660000D03*
X107750000Y-91930000D03*
X107750000Y-93200000D03*
X107750000Y-94470000D03*
X107750000Y-95740000D03*
X107750000Y-97010000D03*
X107750000Y-98280000D03*
X107750000Y-99550000D03*
X107750000Y-100820000D03*
X107750000Y-102090000D03*
X107750000Y-103360000D03*
X107750000Y-104630000D03*
X107750000Y-105900000D03*
X107750000Y-107170000D03*
X107750000Y-108440000D03*
D26*
X135000000Y-107000000D03*
X131911880Y-88259420D03*
X166000000Y-84000000D03*
X153000000Y-93000000D03*
X103000000Y-82000000D03*
X117000000Y-107000000D03*
D11*
X156500000Y-81509420D03*
X156500000Y-86009420D03*
D26*
X92000000Y-102000000D03*
D12*
X117276880Y-88069420D03*
D13*
X117276880Y-90609420D03*
X117276880Y-93149420D03*
X117276880Y-95689420D03*
X117276880Y-98229420D03*
X117276880Y-100769420D03*
D12*
X170911880Y-87259420D03*
D13*
X168371880Y-87259420D03*
D12*
X142875000Y-93657420D03*
X139700000Y-93657420D03*
X165911880Y-81259420D03*
D26*
X131246880Y-91244420D03*
D27*
X138760000Y-85490000D03*
D28*
X137500000Y-83000000D03*
X133000000Y-83000000D03*
D27*
X131750000Y-85490000D03*
M02*
