M48
; DRILL file {KiCad (5.1.0-0)} date Thursday, April 18, 2019 at 08:26:33 PM
; FORMAT={2:4/ absolute / inch / keep zeros}
; #@! TF.CreationDate,2019-04-18T20:26:33-04:00
; #@! TF.GenerationSoftware,Kicad,Pcbnew,(5.1.0-0)
FMAT,2
INCH
T1C0.0250
T2C0.0256
T3C0.0276
T4C0.0295
T5C0.0315
T6C0.0390
T7C0.0394
T8C0.0433
T9C0.0512
T10C0.1024
T11C0.0433
T12C0.0551
T13C0.1083
%
G90
G05
T1
X047772Y-038223
X048572Y-037423
X060497Y-035634
X061186Y-041441
X061614Y-036751
X062859Y-037701
X064172Y-036173
T2
X042421Y-031693
X042421Y-032193
X042421Y-032693
X042421Y-033193
X042421Y-033693
X042421Y-034193
X042421Y-034693
X042421Y-035193
X042421Y-035693
X042421Y-036193
X042421Y-036693
X042421Y-037193
X042421Y-037693
X042421Y-038193
X042421Y-038693
X042421Y-039193
X042421Y-039693
X042421Y-040193
X042421Y-040693
X042421Y-041193
X042421Y-041693
X042421Y-042193
X042421Y-042693
T3
X043672Y-036923
X043672Y-037923
X043672Y-039173
X043672Y-040173
X043672Y-034673
X043672Y-035673
T4
X061043Y-039252
X062106Y-039803
X063091Y-042323
X064665Y-037992
X064862Y-040984
X055138Y-039252
X056201Y-039803
X057185Y-042323
X058760Y-037992
X058957Y-040984
X047264Y-039252
X048327Y-039803
X049311Y-042323
X050886Y-037992
X051083Y-040984
T5
X060236Y-036614
X065354Y-033071
X036220Y-040157
X051672Y-035923
X053150Y-042126
X051934Y-034748
X040551Y-032283
X046063Y-042126
T6
X052362Y-032677
X054134Y-032677
T7
X066288Y-034354
X067288Y-034354
X046172Y-034673
X046172Y-035673
X046172Y-036673
X046172Y-037673
X046172Y-038673
X046172Y-039673
X066894Y-036929
X066894Y-037929
X066894Y-038929
X066894Y-039929
X066929Y-035827
X056250Y-036873
X037402Y-033661
X037402Y-039370
X038386Y-039370
X053150Y-037433
X053150Y-038433
X053150Y-039433
X036614Y-041339
X055000Y-036873
X065320Y-031992
X037614Y-041339
X038614Y-041339
X039614Y-041339
X040614Y-041339
X039370Y-033661
X039370Y-039370
X053150Y-035433
X053150Y-036433
T8
X055315Y-032441
X055669Y-034409
X056457Y-035630
X057717Y-035630
X058976Y-032441
X047441Y-032441
X047795Y-034409
X048583Y-035630
X049843Y-035630
X051102Y-032441
T9
X051870Y-033657
X054630Y-033657
T10
X036181Y-036417
X040591Y-036417
T11
X057087Y-032441
X057087Y-034409
X049213Y-032441
X049213Y-034409
T12
X061614Y-032090
X061614Y-033862
T13
X067520Y-032480
X067520Y-041929
X044291Y-032480
X044291Y-041929
T0
M30
