G04 #@! TF.FileFunction,Copper,L2,Bot,Signal*
%FSLAX46Y46*%
G04 Gerber Fmt 4.6, Leading zero omitted, Abs format (unit mm)*
G04 Created by KiCad (PCBNEW 4.0.6) date Sunday, March 03, 2019 'PMt' 03:44:16 PM*
%MOMM*%
%LPD*%
G01*
G04 APERTURE LIST*
%ADD10C,0.150000*%
%ADD11R,1.700000X1.700000*%
%ADD12O,1.700000X1.700000*%
%ADD13C,1.000000*%
%ADD14C,3.000000*%
%ADD15R,1.650000X1.650000*%
%ADD16C,1.650000*%
%ADD17O,2.516000X1.258000*%
%ADD18O,1.258000X2.516000*%
%ADD19C,2.000000*%
%ADD20C,3.200000*%
%ADD21R,2.000000X2.000000*%
%ADD22R,1.000000X1.000000*%
%ADD23O,1.000000X1.000000*%
%ADD24C,1.998980*%
%ADD25R,1.998980X1.998980*%
%ADD26C,2.100000*%
%ADD27C,1.750000*%
%ADD28C,0.889000*%
%ADD29C,0.600000*%
%ADD30C,0.254000*%
G04 APERTURE END LIST*
D10*
D11*
X135000000Y-90000000D03*
D12*
X135000000Y-92540000D03*
X135000000Y-95080000D03*
X135000000Y-97620000D03*
X135000000Y-100160000D03*
D13*
X111000000Y-87000000D03*
X167000000Y-108000000D03*
D14*
X112500000Y-106500000D03*
X112500000Y-82500000D03*
X171500000Y-82500000D03*
X171500000Y-106500000D03*
D15*
X149800000Y-82400000D03*
D16*
X141400000Y-87400000D03*
X146600000Y-90500000D03*
X140500000Y-82400000D03*
X143400000Y-90500000D03*
D11*
X170000000Y-91000000D03*
D12*
X169911880Y-93799420D03*
X169911880Y-96339420D03*
X169911880Y-98879420D03*
X169911880Y-101419420D03*
D17*
X145250000Y-107500000D03*
D18*
X140050000Y-99700000D03*
X142750000Y-101100000D03*
D17*
X149250000Y-96500000D03*
D18*
X149750000Y-104100000D03*
D17*
X160250000Y-107500000D03*
D18*
X155050000Y-99700000D03*
X157750000Y-101100000D03*
D17*
X164250000Y-96500000D03*
D18*
X164750000Y-104100000D03*
D11*
X93000000Y-105000000D03*
D12*
X95540000Y-105000000D03*
X98080000Y-105000000D03*
X100620000Y-105000000D03*
X103160000Y-105000000D03*
D19*
X100000000Y-85500000D03*
X95000000Y-85500000D03*
D20*
X103100000Y-92500000D03*
X91900000Y-92500000D03*
D19*
X100000000Y-100000000D03*
X97500000Y-100000000D03*
D21*
X95000000Y-100000000D03*
D15*
X129800000Y-82400000D03*
D16*
X121400000Y-87400000D03*
X126600000Y-90500000D03*
X120500000Y-82400000D03*
X123400000Y-90500000D03*
D17*
X125250000Y-107500000D03*
D18*
X120050000Y-99700000D03*
X122750000Y-101100000D03*
D17*
X129250000Y-96500000D03*
D18*
X129750000Y-104100000D03*
D22*
X107750000Y-80500000D03*
D23*
X107750000Y-81770000D03*
X107750000Y-83040000D03*
X107750000Y-84310000D03*
X107750000Y-85580000D03*
X107750000Y-86850000D03*
X107750000Y-88120000D03*
X107750000Y-89390000D03*
X107750000Y-90660000D03*
X107750000Y-91930000D03*
X107750000Y-93200000D03*
X107750000Y-94470000D03*
X107750000Y-95740000D03*
X107750000Y-97010000D03*
X107750000Y-98280000D03*
X107750000Y-99550000D03*
X107750000Y-100820000D03*
X107750000Y-102090000D03*
X107750000Y-103360000D03*
X107750000Y-104630000D03*
X107750000Y-105900000D03*
X107750000Y-107170000D03*
X107750000Y-108440000D03*
D24*
X135000000Y-107000000D03*
X131911880Y-88259420D03*
X166000000Y-84000000D03*
X153000000Y-93000000D03*
X103000000Y-82000000D03*
X117000000Y-107000000D03*
X92000000Y-102000000D03*
D11*
X117276880Y-88069420D03*
D12*
X117276880Y-90609420D03*
X117276880Y-93149420D03*
X117276880Y-95689420D03*
X117276880Y-98229420D03*
X117276880Y-100769420D03*
D25*
X110926880Y-91323160D03*
X110926880Y-101325680D03*
D11*
X170911880Y-87259420D03*
D12*
X168371880Y-87259420D03*
D11*
X142041880Y-93784420D03*
X139501880Y-93784420D03*
X165911880Y-81259420D03*
D24*
X131246880Y-91244420D03*
D26*
X138760000Y-85490000D03*
D27*
X137500000Y-83000000D03*
X133000000Y-83000000D03*
D26*
X131750000Y-85490000D03*
D28*
X159661880Y-95759420D03*
X153661880Y-90509420D03*
X123372880Y-95054420D03*
X155411880Y-105259420D03*
X156500000Y-93347540D03*
X121340880Y-97086420D03*
D29*
X169911880Y-93799420D02*
X160799290Y-102912010D01*
X155050000Y-101558000D02*
X155050000Y-99700000D01*
X156751420Y-103259420D02*
X155050000Y-101558000D01*
X160411880Y-103259420D02*
X156751420Y-103259420D01*
X160759290Y-102912010D02*
X160411880Y-103259420D01*
X160799290Y-102912010D02*
X160759290Y-102912010D01*
X157750000Y-101100000D02*
X159661880Y-99188120D01*
X159661880Y-99188120D02*
X159661880Y-95759420D01*
X155411880Y-92259420D02*
X163371880Y-92259420D01*
X163371880Y-92259420D02*
X168371880Y-87259420D01*
X168371880Y-87259420D02*
X168371880Y-87759420D01*
X168371880Y-87759420D02*
X169708459Y-89095999D01*
X171911880Y-89964678D02*
X171911880Y-98379420D01*
X171411880Y-98879420D02*
X169911880Y-98879420D01*
X171911880Y-98379420D02*
X171411880Y-98879420D01*
X171043201Y-89095999D02*
X169708459Y-89095999D01*
X171911880Y-89964678D02*
X171043201Y-89095999D01*
X153661880Y-90509420D02*
X155411880Y-92259420D01*
X142041880Y-93784420D02*
X141400000Y-93142540D01*
X141400000Y-93142540D02*
X141400000Y-87400000D01*
X117276880Y-90609420D02*
X119054880Y-90609420D01*
X120050000Y-91604540D02*
X120050000Y-99700000D01*
X119054880Y-90609420D02*
X120050000Y-91604540D01*
X123400000Y-90500000D02*
X123400000Y-95027300D01*
X123400000Y-95027300D02*
X123372880Y-95054420D01*
X136834880Y-91498420D02*
X136834880Y-83665120D01*
X135793300Y-92540000D02*
X136834880Y-91498420D01*
X136834880Y-83665120D02*
X137500000Y-83000000D01*
X135000000Y-92540000D02*
X135793300Y-92540000D01*
X135000000Y-92540000D02*
X140050000Y-97590000D01*
X140050000Y-97590000D02*
X140050000Y-99700000D01*
X146600000Y-90500000D02*
X146600000Y-91069420D01*
X146600000Y-91069420D02*
X151566880Y-96036300D01*
X150979000Y-104100000D02*
X151566880Y-103512120D01*
X150979000Y-104100000D02*
X149750000Y-104100000D01*
X151566880Y-103512120D02*
X151566880Y-96036300D01*
X139501880Y-93784420D02*
X139501880Y-87180420D01*
X140500000Y-86182300D02*
X140500000Y-82400000D01*
X139501880Y-87180420D02*
X140500000Y-86182300D01*
X164750000Y-104171300D02*
X163661880Y-105259420D01*
X163661880Y-105259420D02*
X161661880Y-105259420D01*
X164750000Y-104100000D02*
X164750000Y-104171300D01*
X155411880Y-105259420D02*
X161661880Y-105259420D01*
X156500000Y-93347540D02*
X167652460Y-93347540D01*
X167652460Y-93347540D02*
X170000000Y-91000000D01*
X121340880Y-97086420D02*
X122736420Y-97086420D01*
X122736420Y-97086420D02*
X129750000Y-104100000D01*
X121400000Y-87400000D02*
X121340880Y-87459120D01*
X121340880Y-87459120D02*
X121340880Y-97086420D01*
X131246880Y-91244420D02*
X132305580Y-91244420D01*
X132305580Y-91244420D02*
X133161880Y-90388120D01*
X145250000Y-107500000D02*
X138671300Y-107500000D01*
X138671300Y-107500000D02*
X133161880Y-101990580D01*
X133161880Y-101990580D02*
X133161880Y-90388120D01*
X133161880Y-90388120D02*
X133550000Y-90000000D01*
X133550000Y-90000000D02*
X135000000Y-90000000D01*
X117276880Y-100769420D02*
X116720620Y-101325680D01*
X116720620Y-101325680D02*
X110926880Y-101325680D01*
D30*
G36*
X107021400Y-79954528D02*
X107021400Y-80315850D01*
X107078550Y-80373000D01*
X107623000Y-80373000D01*
X107623000Y-80353000D01*
X107877000Y-80353000D01*
X107877000Y-80373000D01*
X108421450Y-80373000D01*
X108478600Y-80315850D01*
X108478600Y-79954528D01*
X108450388Y-79886420D01*
X110550490Y-79886420D01*
X109765877Y-80669664D01*
X109273561Y-81855294D01*
X109272441Y-83139074D01*
X109762687Y-84325561D01*
X110669664Y-85234123D01*
X111855294Y-85726439D01*
X113139074Y-85727559D01*
X114325561Y-85237313D01*
X115234123Y-84330336D01*
X115437858Y-83839685D01*
X132339920Y-83839685D01*
X132445583Y-83979155D01*
X132862492Y-84116787D01*
X133300335Y-84084399D01*
X133554417Y-83979155D01*
X133660080Y-83839685D01*
X133000000Y-83179605D01*
X132339920Y-83839685D01*
X115437858Y-83839685D01*
X115726439Y-83144706D01*
X115726880Y-82638836D01*
X119293791Y-82638836D01*
X119477007Y-83082252D01*
X119815964Y-83421801D01*
X120259059Y-83605790D01*
X120738836Y-83606209D01*
X121182252Y-83422993D01*
X121521801Y-83084036D01*
X121705790Y-82640941D01*
X121705839Y-82584375D01*
X124068839Y-82584375D01*
X124210277Y-82926680D01*
X124471943Y-83188803D01*
X124814000Y-83330838D01*
X125184375Y-83331161D01*
X125526680Y-83189723D01*
X125788803Y-82928057D01*
X125930838Y-82586000D01*
X125930839Y-82584150D01*
X128746400Y-82584150D01*
X128746400Y-83270471D01*
X128781202Y-83354491D01*
X128845508Y-83418797D01*
X128929528Y-83453600D01*
X129615850Y-83453600D01*
X129673000Y-83396450D01*
X129673000Y-82527000D01*
X129927000Y-82527000D01*
X129927000Y-83396450D01*
X129984150Y-83453600D01*
X130670472Y-83453600D01*
X130754492Y-83418797D01*
X130818798Y-83354491D01*
X130853600Y-83270471D01*
X130853600Y-82862492D01*
X131883213Y-82862492D01*
X131915601Y-83300335D01*
X132020845Y-83554417D01*
X132160315Y-83660080D01*
X132820395Y-83000000D01*
X133179605Y-83000000D01*
X133839685Y-83660080D01*
X133979155Y-83554417D01*
X134116787Y-83137508D01*
X134084399Y-82699665D01*
X133979155Y-82445583D01*
X133839685Y-82339920D01*
X133179605Y-83000000D01*
X132820395Y-83000000D01*
X132160315Y-82339920D01*
X132020845Y-82445583D01*
X131883213Y-82862492D01*
X130853600Y-82862492D01*
X130853600Y-82584150D01*
X130796450Y-82527000D01*
X129927000Y-82527000D01*
X129673000Y-82527000D01*
X128803550Y-82527000D01*
X128746400Y-82584150D01*
X125930839Y-82584150D01*
X125931161Y-82215625D01*
X125789723Y-81873320D01*
X125528057Y-81611197D01*
X125331380Y-81529529D01*
X128746400Y-81529529D01*
X128746400Y-82215850D01*
X128803550Y-82273000D01*
X129673000Y-82273000D01*
X129673000Y-81403550D01*
X129927000Y-81403550D01*
X129927000Y-82273000D01*
X130796450Y-82273000D01*
X130853600Y-82215850D01*
X130853600Y-82160315D01*
X132339920Y-82160315D01*
X133000000Y-82820395D01*
X133660080Y-82160315D01*
X133554417Y-82020845D01*
X133137508Y-81883213D01*
X132699665Y-81915601D01*
X132445583Y-82020845D01*
X132339920Y-82160315D01*
X130853600Y-82160315D01*
X130853600Y-81529529D01*
X130818798Y-81445509D01*
X130754492Y-81381203D01*
X130670472Y-81346400D01*
X129984150Y-81346400D01*
X129927000Y-81403550D01*
X129673000Y-81403550D01*
X129615850Y-81346400D01*
X128929528Y-81346400D01*
X128845508Y-81381203D01*
X128781202Y-81445509D01*
X128746400Y-81529529D01*
X125331380Y-81529529D01*
X125186000Y-81469162D01*
X124815625Y-81468839D01*
X124473320Y-81610277D01*
X124211197Y-81871943D01*
X124069162Y-82214000D01*
X124068839Y-82584375D01*
X121705839Y-82584375D01*
X121706209Y-82161164D01*
X121522993Y-81717748D01*
X121184036Y-81378199D01*
X120740941Y-81194210D01*
X120261164Y-81193791D01*
X119817748Y-81377007D01*
X119478199Y-81715964D01*
X119294210Y-82159059D01*
X119293791Y-82638836D01*
X115726880Y-82638836D01*
X115727559Y-81860926D01*
X115237313Y-80674439D01*
X114450669Y-79886420D01*
X122521350Y-79886420D01*
X122521350Y-80800000D01*
X122538755Y-80887501D01*
X122588320Y-80961680D01*
X122662499Y-81011245D01*
X122750000Y-81028650D01*
X127250000Y-81028650D01*
X127337501Y-81011245D01*
X127411680Y-80961680D01*
X127461245Y-80887501D01*
X127478650Y-80800000D01*
X127478650Y-79886420D01*
X142521350Y-79886420D01*
X142521350Y-80800000D01*
X142538755Y-80887501D01*
X142588320Y-80961680D01*
X142662499Y-81011245D01*
X142750000Y-81028650D01*
X147250000Y-81028650D01*
X147337501Y-81011245D01*
X147411680Y-80961680D01*
X147461245Y-80887501D01*
X147478650Y-80800000D01*
X147478650Y-80409420D01*
X164673416Y-80409420D01*
X164673416Y-82109420D01*
X164699983Y-82250610D01*
X164783426Y-82380285D01*
X164910746Y-82467279D01*
X165061880Y-82497884D01*
X166761880Y-82497884D01*
X166903070Y-82471317D01*
X167032745Y-82387874D01*
X167119739Y-82260554D01*
X167150344Y-82109420D01*
X167150344Y-80409420D01*
X167123777Y-80268230D01*
X167040334Y-80138555D01*
X166913014Y-80051561D01*
X166761880Y-80020956D01*
X165061880Y-80020956D01*
X164920690Y-80047523D01*
X164791015Y-80130966D01*
X164704021Y-80258286D01*
X164673416Y-80409420D01*
X147478650Y-80409420D01*
X147478650Y-79886420D01*
X169550490Y-79886420D01*
X168765877Y-80669664D01*
X168273561Y-81855294D01*
X168272441Y-83139074D01*
X168762687Y-84325561D01*
X169669664Y-85234123D01*
X170855294Y-85726439D01*
X172139074Y-85727559D01*
X173325561Y-85237313D01*
X174034880Y-84529231D01*
X174034880Y-104471653D01*
X173330336Y-103765877D01*
X172144706Y-103273561D01*
X170860926Y-103272441D01*
X169674439Y-103762687D01*
X168765877Y-104669664D01*
X168273561Y-105855294D01*
X168272441Y-107139074D01*
X168762687Y-108325561D01*
X169568139Y-109132420D01*
X167842985Y-109132420D01*
X168183629Y-108792370D01*
X168396757Y-108279100D01*
X168397242Y-107723339D01*
X168185010Y-107209697D01*
X167792370Y-106816371D01*
X167279100Y-106603243D01*
X166723339Y-106602758D01*
X166209697Y-106814990D01*
X165816371Y-107207630D01*
X165603243Y-107720900D01*
X165602758Y-108276661D01*
X165814990Y-108790303D01*
X166156510Y-109132420D01*
X114430637Y-109132420D01*
X115234123Y-108330336D01*
X115400353Y-107930009D01*
X116249596Y-107930009D01*
X116370546Y-108082436D01*
X116832690Y-108240921D01*
X117320306Y-108210488D01*
X117629454Y-108082436D01*
X117750404Y-107930009D01*
X117000000Y-107179605D01*
X116249596Y-107930009D01*
X115400353Y-107930009D01*
X115726439Y-107144706D01*
X115726711Y-106832690D01*
X115759079Y-106832690D01*
X115789512Y-107320306D01*
X115917564Y-107629454D01*
X116069991Y-107750404D01*
X116820395Y-107000000D01*
X117179605Y-107000000D01*
X117930009Y-107750404D01*
X118082436Y-107629454D01*
X118215346Y-107241885D01*
X123803165Y-107241885D01*
X123830689Y-107373000D01*
X124146400Y-107373000D01*
X124146400Y-107627000D01*
X123830689Y-107627000D01*
X123803165Y-107758115D01*
X123924783Y-108016612D01*
X124175478Y-108243718D01*
X124494000Y-108357600D01*
X125123000Y-108357600D01*
X125123000Y-108103600D01*
X125377000Y-108103600D01*
X125377000Y-108357600D01*
X126006000Y-108357600D01*
X126324522Y-108243718D01*
X126575217Y-108016612D01*
X126615962Y-107930009D01*
X134249596Y-107930009D01*
X134370546Y-108082436D01*
X134832690Y-108240921D01*
X135320306Y-108210488D01*
X135629454Y-108082436D01*
X135750404Y-107930009D01*
X135000000Y-107179605D01*
X134249596Y-107930009D01*
X126615962Y-107930009D01*
X126696835Y-107758115D01*
X126669311Y-107627000D01*
X126353600Y-107627000D01*
X126353600Y-107373000D01*
X126669311Y-107373000D01*
X126696835Y-107241885D01*
X126575217Y-106983388D01*
X126408867Y-106832690D01*
X133759079Y-106832690D01*
X133789512Y-107320306D01*
X133917564Y-107629454D01*
X134069991Y-107750404D01*
X134820395Y-107000000D01*
X135179605Y-107000000D01*
X135930009Y-107750404D01*
X136082436Y-107629454D01*
X136240921Y-107167310D01*
X136210488Y-106679694D01*
X136082436Y-106370546D01*
X135930009Y-106249596D01*
X135179605Y-107000000D01*
X134820395Y-107000000D01*
X134069991Y-106249596D01*
X133917564Y-106370546D01*
X133759079Y-106832690D01*
X126408867Y-106832690D01*
X126324522Y-106756282D01*
X126006000Y-106642400D01*
X125377000Y-106642400D01*
X125377000Y-106896400D01*
X125123000Y-106896400D01*
X125123000Y-106642400D01*
X124494000Y-106642400D01*
X124175478Y-106756282D01*
X123924783Y-106983388D01*
X123803165Y-107241885D01*
X118215346Y-107241885D01*
X118240921Y-107167310D01*
X118210488Y-106679694D01*
X118082436Y-106370546D01*
X117930009Y-106249596D01*
X117179605Y-107000000D01*
X116820395Y-107000000D01*
X116069991Y-106249596D01*
X115917564Y-106370546D01*
X115759079Y-106832690D01*
X115726711Y-106832690D01*
X115727376Y-106069991D01*
X116249596Y-106069991D01*
X117000000Y-106820395D01*
X117750404Y-106069991D01*
X134249596Y-106069991D01*
X135000000Y-106820395D01*
X135750404Y-106069991D01*
X135629454Y-105917564D01*
X135167310Y-105759079D01*
X134679694Y-105789512D01*
X134370546Y-105917564D01*
X134249596Y-106069991D01*
X117750404Y-106069991D01*
X117629454Y-105917564D01*
X117167310Y-105759079D01*
X116679694Y-105789512D01*
X116370546Y-105917564D01*
X116249596Y-106069991D01*
X115727376Y-106069991D01*
X115727559Y-105860926D01*
X115237313Y-104674439D01*
X114330336Y-103765877D01*
X113144706Y-103273561D01*
X111860926Y-103272441D01*
X110674439Y-103762687D01*
X109765877Y-104669664D01*
X109273561Y-105855294D01*
X109272441Y-107139074D01*
X109762687Y-108325561D01*
X110568139Y-109132420D01*
X107877002Y-109132420D01*
X107877002Y-109100317D01*
X107987673Y-109128766D01*
X108233161Y-108985383D01*
X108405092Y-108758970D01*
X108438746Y-108677670D01*
X108409330Y-108567000D01*
X107877000Y-108567000D01*
X107877000Y-108587000D01*
X107623000Y-108587000D01*
X107623000Y-108567000D01*
X107090670Y-108567000D01*
X107061254Y-108677670D01*
X107094908Y-108758970D01*
X107266839Y-108985383D01*
X107512327Y-109128766D01*
X107622998Y-109100317D01*
X107622998Y-109132420D01*
X92208250Y-109132420D01*
X91470409Y-108985655D01*
X90597564Y-108402438D01*
X90038880Y-107566309D01*
X90038880Y-107407670D01*
X107061254Y-107407670D01*
X107094908Y-107488970D01*
X107266839Y-107715383D01*
X107420273Y-107805000D01*
X107266839Y-107894617D01*
X107094908Y-108121030D01*
X107061254Y-108202330D01*
X107090670Y-108313000D01*
X107623000Y-108313000D01*
X107623000Y-107297000D01*
X107877000Y-107297000D01*
X107877000Y-108313000D01*
X108409330Y-108313000D01*
X108438746Y-108202330D01*
X108405092Y-108121030D01*
X108233161Y-107894617D01*
X108079727Y-107805000D01*
X108233161Y-107715383D01*
X108405092Y-107488970D01*
X108438746Y-107407670D01*
X108409330Y-107297000D01*
X107877000Y-107297000D01*
X107623000Y-107297000D01*
X107090670Y-107297000D01*
X107061254Y-107407670D01*
X90038880Y-107407670D01*
X90038880Y-104150000D01*
X91761536Y-104150000D01*
X91761536Y-105850000D01*
X91788103Y-105991190D01*
X91871546Y-106120865D01*
X91998866Y-106207859D01*
X92150000Y-106238464D01*
X93850000Y-106238464D01*
X93991190Y-106211897D01*
X94120865Y-106128454D01*
X94207859Y-106001134D01*
X94238464Y-105850000D01*
X94238464Y-105292995D01*
X94501944Y-105292995D01*
X94693086Y-105667939D01*
X95013163Y-105941195D01*
X95247007Y-106038043D01*
X95413000Y-106013524D01*
X95413000Y-105127000D01*
X95667000Y-105127000D01*
X95667000Y-106013524D01*
X95832993Y-106038043D01*
X96066837Y-105941195D01*
X96386914Y-105667939D01*
X96578056Y-105292995D01*
X96553960Y-105127000D01*
X95667000Y-105127000D01*
X95413000Y-105127000D01*
X94526040Y-105127000D01*
X94501944Y-105292995D01*
X94238464Y-105292995D01*
X94238464Y-104975883D01*
X96849000Y-104975883D01*
X96849000Y-105024117D01*
X96942704Y-105495200D01*
X97209552Y-105894565D01*
X97608917Y-106161413D01*
X98080000Y-106255117D01*
X98551083Y-106161413D01*
X98950448Y-105894565D01*
X99217296Y-105495200D01*
X99311000Y-105024117D01*
X99311000Y-104975883D01*
X99389000Y-104975883D01*
X99389000Y-105024117D01*
X99482704Y-105495200D01*
X99749552Y-105894565D01*
X100148917Y-106161413D01*
X100620000Y-106255117D01*
X101091083Y-106161413D01*
X101126616Y-106137670D01*
X107061254Y-106137670D01*
X107094908Y-106218970D01*
X107266839Y-106445383D01*
X107420273Y-106535000D01*
X107266839Y-106624617D01*
X107094908Y-106851030D01*
X107061254Y-106932330D01*
X107090670Y-107043000D01*
X107623000Y-107043000D01*
X107623000Y-106027000D01*
X107877000Y-106027000D01*
X107877000Y-107043000D01*
X108409330Y-107043000D01*
X108438746Y-106932330D01*
X108405092Y-106851030D01*
X108233161Y-106624617D01*
X108079727Y-106535000D01*
X108233161Y-106445383D01*
X108405092Y-106218970D01*
X108438746Y-106137670D01*
X108409330Y-106027000D01*
X107877000Y-106027000D01*
X107623000Y-106027000D01*
X107090670Y-106027000D01*
X107061254Y-106137670D01*
X101126616Y-106137670D01*
X101490448Y-105894565D01*
X101757296Y-105495200D01*
X101797516Y-105292995D01*
X102121944Y-105292995D01*
X102313086Y-105667939D01*
X102633163Y-105941195D01*
X102867007Y-106038043D01*
X103033000Y-106013524D01*
X103033000Y-105127000D01*
X103287000Y-105127000D01*
X103287000Y-106013524D01*
X103452993Y-106038043D01*
X103686837Y-105941195D01*
X104006914Y-105667939D01*
X104198056Y-105292995D01*
X104173960Y-105127000D01*
X103287000Y-105127000D01*
X103033000Y-105127000D01*
X102146040Y-105127000D01*
X102121944Y-105292995D01*
X101797516Y-105292995D01*
X101851000Y-105024117D01*
X101851000Y-104975883D01*
X101797517Y-104707005D01*
X102121944Y-104707005D01*
X102146040Y-104873000D01*
X103033000Y-104873000D01*
X103033000Y-103986476D01*
X103287000Y-103986476D01*
X103287000Y-104873000D01*
X104173960Y-104873000D01*
X104174733Y-104867670D01*
X107061254Y-104867670D01*
X107094908Y-104948970D01*
X107266839Y-105175383D01*
X107420273Y-105265000D01*
X107266839Y-105354617D01*
X107094908Y-105581030D01*
X107061254Y-105662330D01*
X107090670Y-105773000D01*
X107623000Y-105773000D01*
X107623000Y-104757000D01*
X107877000Y-104757000D01*
X107877000Y-105773000D01*
X108409330Y-105773000D01*
X108438746Y-105662330D01*
X108405092Y-105581030D01*
X108233161Y-105354617D01*
X108079727Y-105265000D01*
X108233161Y-105175383D01*
X108405092Y-104948970D01*
X108438746Y-104867670D01*
X108409330Y-104757000D01*
X107877000Y-104757000D01*
X107623000Y-104757000D01*
X107090670Y-104757000D01*
X107061254Y-104867670D01*
X104174733Y-104867670D01*
X104198056Y-104707005D01*
X104006914Y-104332061D01*
X103686837Y-104058805D01*
X103452993Y-103961957D01*
X103287000Y-103986476D01*
X103033000Y-103986476D01*
X102867007Y-103961957D01*
X102633163Y-104058805D01*
X102313086Y-104332061D01*
X102121944Y-104707005D01*
X101797517Y-104707005D01*
X101757296Y-104504800D01*
X101490448Y-104105435D01*
X101091083Y-103838587D01*
X100620000Y-103744883D01*
X100148917Y-103838587D01*
X99749552Y-104105435D01*
X99482704Y-104504800D01*
X99389000Y-104975883D01*
X99311000Y-104975883D01*
X99217296Y-104504800D01*
X98950448Y-104105435D01*
X98551083Y-103838587D01*
X98080000Y-103744883D01*
X97608917Y-103838587D01*
X97209552Y-104105435D01*
X96942704Y-104504800D01*
X96849000Y-104975883D01*
X94238464Y-104975883D01*
X94238464Y-104707005D01*
X94501944Y-104707005D01*
X94526040Y-104873000D01*
X95413000Y-104873000D01*
X95413000Y-103986476D01*
X95667000Y-103986476D01*
X95667000Y-104873000D01*
X96553960Y-104873000D01*
X96578056Y-104707005D01*
X96386914Y-104332061D01*
X96066837Y-104058805D01*
X95832993Y-103961957D01*
X95667000Y-103986476D01*
X95413000Y-103986476D01*
X95247007Y-103961957D01*
X95013163Y-104058805D01*
X94693086Y-104332061D01*
X94501944Y-104707005D01*
X94238464Y-104707005D01*
X94238464Y-104150000D01*
X94211897Y-104008810D01*
X94128454Y-103879135D01*
X94001134Y-103792141D01*
X93850000Y-103761536D01*
X92150000Y-103761536D01*
X92008810Y-103788103D01*
X91879135Y-103871546D01*
X91792141Y-103998866D01*
X91761536Y-104150000D01*
X90038880Y-104150000D01*
X90038880Y-103597670D01*
X107061254Y-103597670D01*
X107094908Y-103678970D01*
X107266839Y-103905383D01*
X107420273Y-103995000D01*
X107266839Y-104084617D01*
X107094908Y-104311030D01*
X107061254Y-104392330D01*
X107090670Y-104503000D01*
X107623000Y-104503000D01*
X107623000Y-103487000D01*
X107877000Y-103487000D01*
X107877000Y-104503000D01*
X108409330Y-104503000D01*
X108438746Y-104392330D01*
X108405092Y-104311030D01*
X108233161Y-104084617D01*
X108079727Y-103995000D01*
X108233161Y-103905383D01*
X108405092Y-103678970D01*
X108438746Y-103597670D01*
X108409330Y-103487000D01*
X107877000Y-103487000D01*
X107623000Y-103487000D01*
X107090670Y-103487000D01*
X107061254Y-103597670D01*
X90038880Y-103597670D01*
X90038880Y-102930009D01*
X91249596Y-102930009D01*
X91370546Y-103082436D01*
X91832690Y-103240921D01*
X92320306Y-103210488D01*
X92629454Y-103082436D01*
X92750404Y-102930009D01*
X92000000Y-102179605D01*
X91249596Y-102930009D01*
X90038880Y-102930009D01*
X90038880Y-101832690D01*
X90759079Y-101832690D01*
X90789512Y-102320306D01*
X90917564Y-102629454D01*
X91069991Y-102750404D01*
X91820395Y-102000000D01*
X92179605Y-102000000D01*
X92930009Y-102750404D01*
X93082436Y-102629454D01*
X93185928Y-102327670D01*
X107061254Y-102327670D01*
X107094908Y-102408970D01*
X107266839Y-102635383D01*
X107420273Y-102725000D01*
X107266839Y-102814617D01*
X107094908Y-103041030D01*
X107061254Y-103122330D01*
X107090670Y-103233000D01*
X107623000Y-103233000D01*
X107623000Y-102217000D01*
X107877000Y-102217000D01*
X107877000Y-103233000D01*
X108409330Y-103233000D01*
X108438746Y-103122330D01*
X108405092Y-103041030D01*
X108233161Y-102814617D01*
X108079727Y-102725000D01*
X108233161Y-102635383D01*
X108405092Y-102408970D01*
X108438746Y-102327670D01*
X108409330Y-102217000D01*
X107877000Y-102217000D01*
X107623000Y-102217000D01*
X107090670Y-102217000D01*
X107061254Y-102327670D01*
X93185928Y-102327670D01*
X93240921Y-102167310D01*
X93210488Y-101679694D01*
X93082436Y-101370546D01*
X92930009Y-101249596D01*
X92179605Y-102000000D01*
X91820395Y-102000000D01*
X91069991Y-101249596D01*
X90917564Y-101370546D01*
X90759079Y-101832690D01*
X90038880Y-101832690D01*
X90038880Y-101069991D01*
X91249596Y-101069991D01*
X92000000Y-101820395D01*
X92750404Y-101069991D01*
X92629454Y-100917564D01*
X92167310Y-100759079D01*
X91679694Y-100789512D01*
X91370546Y-100917564D01*
X91249596Y-101069991D01*
X90038880Y-101069991D01*
X90038880Y-99000000D01*
X93611536Y-99000000D01*
X93611536Y-101000000D01*
X93638103Y-101141190D01*
X93721546Y-101270865D01*
X93848866Y-101357859D01*
X94000000Y-101388464D01*
X96000000Y-101388464D01*
X96141190Y-101361897D01*
X96270865Y-101278454D01*
X96357859Y-101151134D01*
X96388464Y-101000000D01*
X96388464Y-100930379D01*
X96749226Y-100930379D01*
X96870238Y-101082859D01*
X97332568Y-101241431D01*
X97820388Y-101211006D01*
X98129762Y-101082859D01*
X98250774Y-100930379D01*
X97500000Y-100179605D01*
X96749226Y-100930379D01*
X96388464Y-100930379D01*
X96388464Y-100560530D01*
X96417141Y-100629762D01*
X96569621Y-100750774D01*
X97320395Y-100000000D01*
X97679605Y-100000000D01*
X98430379Y-100750774D01*
X98582859Y-100629762D01*
X98665913Y-100387610D01*
X98828563Y-100781251D01*
X99216705Y-101170072D01*
X99724097Y-101380759D01*
X100273493Y-101381239D01*
X100781251Y-101171437D01*
X100895217Y-101057670D01*
X107061254Y-101057670D01*
X107094908Y-101138970D01*
X107266839Y-101365383D01*
X107420273Y-101455000D01*
X107266839Y-101544617D01*
X107094908Y-101771030D01*
X107061254Y-101852330D01*
X107090670Y-101963000D01*
X107623000Y-101963000D01*
X107623000Y-100947000D01*
X107877000Y-100947000D01*
X107877000Y-101963000D01*
X108409330Y-101963000D01*
X108438746Y-101852330D01*
X108405092Y-101771030D01*
X108233161Y-101544617D01*
X108079727Y-101455000D01*
X108233161Y-101365383D01*
X108405092Y-101138970D01*
X108438746Y-101057670D01*
X108409330Y-100947000D01*
X107877000Y-100947000D01*
X107623000Y-100947000D01*
X107090670Y-100947000D01*
X107061254Y-101057670D01*
X100895217Y-101057670D01*
X101170072Y-100783295D01*
X101380759Y-100275903D01*
X101381185Y-99787670D01*
X107061254Y-99787670D01*
X107094908Y-99868970D01*
X107266839Y-100095383D01*
X107420273Y-100185000D01*
X107266839Y-100274617D01*
X107094908Y-100501030D01*
X107061254Y-100582330D01*
X107090670Y-100693000D01*
X107623000Y-100693000D01*
X107623000Y-99677000D01*
X107877000Y-99677000D01*
X107877000Y-100693000D01*
X108409330Y-100693000D01*
X108438746Y-100582330D01*
X108405092Y-100501030D01*
X108272324Y-100326190D01*
X109538926Y-100326190D01*
X109538926Y-102325170D01*
X109565493Y-102466360D01*
X109648936Y-102596035D01*
X109776256Y-102683029D01*
X109927390Y-102713634D01*
X111926370Y-102713634D01*
X112067560Y-102687067D01*
X112197235Y-102603624D01*
X112284229Y-102476304D01*
X112314834Y-102325170D01*
X112314834Y-102006680D01*
X116720620Y-102006680D01*
X116981228Y-101954842D01*
X116990954Y-101948343D01*
X117252763Y-102000420D01*
X117300997Y-102000420D01*
X117772080Y-101906716D01*
X118171445Y-101639868D01*
X118438293Y-101240503D01*
X118531997Y-100769420D01*
X118438293Y-100298337D01*
X118171445Y-99898972D01*
X117772080Y-99632124D01*
X117300997Y-99538420D01*
X117252763Y-99538420D01*
X116781680Y-99632124D01*
X116382315Y-99898972D01*
X116115467Y-100298337D01*
X116046575Y-100644680D01*
X112314834Y-100644680D01*
X112314834Y-100326190D01*
X112288267Y-100185000D01*
X112204824Y-100055325D01*
X112077504Y-99968331D01*
X111926370Y-99937726D01*
X109927390Y-99937726D01*
X109786200Y-99964293D01*
X109656525Y-100047736D01*
X109569531Y-100175056D01*
X109538926Y-100326190D01*
X108272324Y-100326190D01*
X108233161Y-100274617D01*
X108079727Y-100185000D01*
X108233161Y-100095383D01*
X108405092Y-99868970D01*
X108438746Y-99787670D01*
X108409330Y-99677000D01*
X107877000Y-99677000D01*
X107623000Y-99677000D01*
X107090670Y-99677000D01*
X107061254Y-99787670D01*
X101381185Y-99787670D01*
X101381239Y-99726507D01*
X101171437Y-99218749D01*
X100783295Y-98829928D01*
X100275903Y-98619241D01*
X99726507Y-98618761D01*
X99218749Y-98828563D01*
X98829928Y-99216705D01*
X98674404Y-99591248D01*
X98582859Y-99370238D01*
X98430379Y-99249226D01*
X97679605Y-100000000D01*
X97320395Y-100000000D01*
X96569621Y-99249226D01*
X96417141Y-99370238D01*
X96388464Y-99453848D01*
X96388464Y-99069621D01*
X96749226Y-99069621D01*
X97500000Y-99820395D01*
X98250774Y-99069621D01*
X98129762Y-98917141D01*
X97667432Y-98758569D01*
X97179612Y-98788994D01*
X96870238Y-98917141D01*
X96749226Y-99069621D01*
X96388464Y-99069621D01*
X96388464Y-99000000D01*
X96361897Y-98858810D01*
X96278454Y-98729135D01*
X96151134Y-98642141D01*
X96000000Y-98611536D01*
X94000000Y-98611536D01*
X93858810Y-98638103D01*
X93729135Y-98721546D01*
X93642141Y-98848866D01*
X93611536Y-99000000D01*
X90038880Y-99000000D01*
X90038880Y-98517670D01*
X107061254Y-98517670D01*
X107094908Y-98598970D01*
X107266839Y-98825383D01*
X107420273Y-98915000D01*
X107266839Y-99004617D01*
X107094908Y-99231030D01*
X107061254Y-99312330D01*
X107090670Y-99423000D01*
X107623000Y-99423000D01*
X107623000Y-98407000D01*
X107877000Y-98407000D01*
X107877000Y-99423000D01*
X108409330Y-99423000D01*
X108438746Y-99312330D01*
X108405092Y-99231030D01*
X108233161Y-99004617D01*
X108079727Y-98915000D01*
X108233161Y-98825383D01*
X108405092Y-98598970D01*
X108438746Y-98517670D01*
X108409330Y-98407000D01*
X107877000Y-98407000D01*
X107623000Y-98407000D01*
X107090670Y-98407000D01*
X107061254Y-98517670D01*
X90038880Y-98517670D01*
X90038880Y-98229420D01*
X116021763Y-98229420D01*
X116115467Y-98700503D01*
X116382315Y-99099868D01*
X116781680Y-99366716D01*
X117252763Y-99460420D01*
X117300997Y-99460420D01*
X117772080Y-99366716D01*
X118171445Y-99099868D01*
X118438293Y-98700503D01*
X118531997Y-98229420D01*
X118438293Y-97758337D01*
X118171445Y-97358972D01*
X117772080Y-97092124D01*
X117300997Y-96998420D01*
X117252763Y-96998420D01*
X116781680Y-97092124D01*
X116382315Y-97358972D01*
X116115467Y-97758337D01*
X116021763Y-98229420D01*
X90038880Y-98229420D01*
X90038880Y-97247670D01*
X107061254Y-97247670D01*
X107094908Y-97328970D01*
X107266839Y-97555383D01*
X107420273Y-97645000D01*
X107266839Y-97734617D01*
X107094908Y-97961030D01*
X107061254Y-98042330D01*
X107090670Y-98153000D01*
X107623000Y-98153000D01*
X107623000Y-97137000D01*
X107877000Y-97137000D01*
X107877000Y-98153000D01*
X108409330Y-98153000D01*
X108438746Y-98042330D01*
X108405092Y-97961030D01*
X108233161Y-97734617D01*
X108079727Y-97645000D01*
X108233161Y-97555383D01*
X108405092Y-97328970D01*
X108438746Y-97247670D01*
X108409330Y-97137000D01*
X107877000Y-97137000D01*
X107623000Y-97137000D01*
X107090670Y-97137000D01*
X107061254Y-97247670D01*
X90038880Y-97247670D01*
X90038880Y-95977670D01*
X107061254Y-95977670D01*
X107094908Y-96058970D01*
X107266839Y-96285383D01*
X107420273Y-96375000D01*
X107266839Y-96464617D01*
X107094908Y-96691030D01*
X107061254Y-96772330D01*
X107090670Y-96883000D01*
X107623000Y-96883000D01*
X107623000Y-95867000D01*
X107877000Y-95867000D01*
X107877000Y-96883000D01*
X108409330Y-96883000D01*
X108438746Y-96772330D01*
X108405092Y-96691030D01*
X108233161Y-96464617D01*
X108079727Y-96375000D01*
X108233161Y-96285383D01*
X108405092Y-96058970D01*
X108438746Y-95977670D01*
X108409330Y-95867000D01*
X107877000Y-95867000D01*
X107623000Y-95867000D01*
X107090670Y-95867000D01*
X107061254Y-95977670D01*
X90038880Y-95977670D01*
X90038880Y-95689420D01*
X116021763Y-95689420D01*
X116115467Y-96160503D01*
X116382315Y-96559868D01*
X116781680Y-96826716D01*
X117252763Y-96920420D01*
X117300997Y-96920420D01*
X117772080Y-96826716D01*
X118171445Y-96559868D01*
X118438293Y-96160503D01*
X118531997Y-95689420D01*
X118438293Y-95218337D01*
X118171445Y-94818972D01*
X117772080Y-94552124D01*
X117300997Y-94458420D01*
X117252763Y-94458420D01*
X116781680Y-94552124D01*
X116382315Y-94818972D01*
X116115467Y-95218337D01*
X116021763Y-95689420D01*
X90038880Y-95689420D01*
X90038880Y-94707670D01*
X107061254Y-94707670D01*
X107094908Y-94788970D01*
X107266839Y-95015383D01*
X107420273Y-95105000D01*
X107266839Y-95194617D01*
X107094908Y-95421030D01*
X107061254Y-95502330D01*
X107090670Y-95613000D01*
X107623000Y-95613000D01*
X107623000Y-94597000D01*
X107877000Y-94597000D01*
X107877000Y-95613000D01*
X108409330Y-95613000D01*
X108438746Y-95502330D01*
X108405092Y-95421030D01*
X108233161Y-95194617D01*
X108079727Y-95105000D01*
X108233161Y-95015383D01*
X108405092Y-94788970D01*
X108438746Y-94707670D01*
X108409330Y-94597000D01*
X107877000Y-94597000D01*
X107623000Y-94597000D01*
X107090670Y-94597000D01*
X107061254Y-94707670D01*
X90038880Y-94707670D01*
X90038880Y-93183278D01*
X90219611Y-93620680D01*
X90776389Y-94178431D01*
X91504226Y-94480655D01*
X92292316Y-94481343D01*
X93020680Y-94180389D01*
X93578431Y-93623611D01*
X93880655Y-92895774D01*
X93880658Y-92892316D01*
X101118657Y-92892316D01*
X101419611Y-93620680D01*
X101976389Y-94178431D01*
X102704226Y-94480655D01*
X103492316Y-94481343D01*
X104220680Y-94180389D01*
X104778431Y-93623611D01*
X104855640Y-93437670D01*
X107061254Y-93437670D01*
X107094908Y-93518970D01*
X107266839Y-93745383D01*
X107420273Y-93835000D01*
X107266839Y-93924617D01*
X107094908Y-94151030D01*
X107061254Y-94232330D01*
X107090670Y-94343000D01*
X107623000Y-94343000D01*
X107623000Y-93327000D01*
X107877000Y-93327000D01*
X107877000Y-94343000D01*
X108409330Y-94343000D01*
X108438746Y-94232330D01*
X108405092Y-94151030D01*
X108233161Y-93924617D01*
X108079727Y-93835000D01*
X108233161Y-93745383D01*
X108405092Y-93518970D01*
X108438746Y-93437670D01*
X108409330Y-93327000D01*
X107877000Y-93327000D01*
X107623000Y-93327000D01*
X107090670Y-93327000D01*
X107061254Y-93437670D01*
X104855640Y-93437670D01*
X104975331Y-93149420D01*
X116021763Y-93149420D01*
X116115467Y-93620503D01*
X116382315Y-94019868D01*
X116781680Y-94286716D01*
X117252763Y-94380420D01*
X117300997Y-94380420D01*
X117772080Y-94286716D01*
X118171445Y-94019868D01*
X118438293Y-93620503D01*
X118531997Y-93149420D01*
X118438293Y-92678337D01*
X118171445Y-92278972D01*
X117772080Y-92012124D01*
X117300997Y-91918420D01*
X117252763Y-91918420D01*
X116781680Y-92012124D01*
X116382315Y-92278972D01*
X116115467Y-92678337D01*
X116021763Y-93149420D01*
X104975331Y-93149420D01*
X105080655Y-92895774D01*
X105081290Y-92167670D01*
X107061254Y-92167670D01*
X107094908Y-92248970D01*
X107266839Y-92475383D01*
X107420273Y-92565000D01*
X107266839Y-92654617D01*
X107094908Y-92881030D01*
X107061254Y-92962330D01*
X107090670Y-93073000D01*
X107623000Y-93073000D01*
X107623000Y-92057000D01*
X107877000Y-92057000D01*
X107877000Y-93073000D01*
X108409330Y-93073000D01*
X108438746Y-92962330D01*
X108405092Y-92881030D01*
X108233161Y-92654617D01*
X108079727Y-92565000D01*
X108233161Y-92475383D01*
X108405092Y-92248970D01*
X108438746Y-92167670D01*
X108409330Y-92057000D01*
X107877000Y-92057000D01*
X107623000Y-92057000D01*
X107090670Y-92057000D01*
X107061254Y-92167670D01*
X105081290Y-92167670D01*
X105081343Y-92107684D01*
X104780389Y-91379320D01*
X104299580Y-90897670D01*
X107061254Y-90897670D01*
X107094908Y-90978970D01*
X107266839Y-91205383D01*
X107420273Y-91295000D01*
X107266839Y-91384617D01*
X107094908Y-91611030D01*
X107061254Y-91692330D01*
X107090670Y-91803000D01*
X107623000Y-91803000D01*
X107623000Y-90787000D01*
X107877000Y-90787000D01*
X107877000Y-91803000D01*
X108409330Y-91803000D01*
X108438746Y-91692330D01*
X108405092Y-91611030D01*
X108233161Y-91384617D01*
X108079727Y-91295000D01*
X108233161Y-91205383D01*
X108405092Y-90978970D01*
X108438746Y-90897670D01*
X108409330Y-90787000D01*
X107877000Y-90787000D01*
X107623000Y-90787000D01*
X107090670Y-90787000D01*
X107061254Y-90897670D01*
X104299580Y-90897670D01*
X104223611Y-90821569D01*
X103495774Y-90519345D01*
X102707684Y-90518657D01*
X101979320Y-90819611D01*
X101421569Y-91376389D01*
X101119345Y-92104226D01*
X101118657Y-92892316D01*
X93880658Y-92892316D01*
X93881343Y-92107684D01*
X93580389Y-91379320D01*
X93023611Y-90821569D01*
X92295774Y-90519345D01*
X91507684Y-90518657D01*
X90779320Y-90819611D01*
X90221569Y-91376389D01*
X90038880Y-91816353D01*
X90038880Y-89627670D01*
X107061254Y-89627670D01*
X107094908Y-89708970D01*
X107266839Y-89935383D01*
X107420273Y-90025000D01*
X107266839Y-90114617D01*
X107094908Y-90341030D01*
X107061254Y-90422330D01*
X107090670Y-90533000D01*
X107623000Y-90533000D01*
X107623000Y-89517000D01*
X107877000Y-89517000D01*
X107877000Y-90533000D01*
X108409330Y-90533000D01*
X108438746Y-90422330D01*
X108405092Y-90341030D01*
X108391910Y-90323670D01*
X109538926Y-90323670D01*
X109538926Y-92322650D01*
X109565493Y-92463840D01*
X109648936Y-92593515D01*
X109776256Y-92680509D01*
X109927390Y-92711114D01*
X111926370Y-92711114D01*
X112067560Y-92684547D01*
X112197235Y-92601104D01*
X112284229Y-92473784D01*
X112314834Y-92322650D01*
X112314834Y-90609420D01*
X116021763Y-90609420D01*
X116115467Y-91080503D01*
X116382315Y-91479868D01*
X116781680Y-91746716D01*
X117252763Y-91840420D01*
X117300997Y-91840420D01*
X117772080Y-91746716D01*
X118171445Y-91479868D01*
X118298031Y-91290420D01*
X118772800Y-91290420D01*
X119369000Y-91886620D01*
X119369000Y-98302543D01*
X119335822Y-98324712D01*
X119116882Y-98652380D01*
X119040000Y-99038890D01*
X119040000Y-100361110D01*
X119116882Y-100747620D01*
X119335822Y-101075288D01*
X119663490Y-101294228D01*
X120050000Y-101371110D01*
X120436510Y-101294228D01*
X120764178Y-101075288D01*
X120983118Y-100747620D01*
X121044528Y-100438890D01*
X121740000Y-100438890D01*
X121740000Y-101761110D01*
X121816882Y-102147620D01*
X122035822Y-102475288D01*
X122363490Y-102694228D01*
X122750000Y-102771110D01*
X123136510Y-102694228D01*
X123464178Y-102475288D01*
X123683118Y-102147620D01*
X123760000Y-101761110D01*
X123760000Y-100438890D01*
X123683118Y-100052380D01*
X123464178Y-99724712D01*
X123136510Y-99505772D01*
X122750000Y-99428890D01*
X122363490Y-99505772D01*
X122035822Y-99724712D01*
X121816882Y-100052380D01*
X121740000Y-100438890D01*
X121044528Y-100438890D01*
X121060000Y-100361110D01*
X121060000Y-99038890D01*
X120983118Y-98652380D01*
X120764178Y-98324712D01*
X120731000Y-98302543D01*
X120731000Y-97643929D01*
X120872661Y-97785837D01*
X121175957Y-97911777D01*
X121504362Y-97912063D01*
X121807878Y-97786653D01*
X121827145Y-97767420D01*
X122454340Y-97767420D01*
X128740000Y-104053080D01*
X128740000Y-104761110D01*
X128816882Y-105147620D01*
X129035822Y-105475288D01*
X129363490Y-105694228D01*
X129750000Y-105771110D01*
X130136510Y-105694228D01*
X130464178Y-105475288D01*
X130683118Y-105147620D01*
X130760000Y-104761110D01*
X130760000Y-103438890D01*
X130683118Y-103052380D01*
X130464178Y-102724712D01*
X130136510Y-102505772D01*
X129750000Y-102428890D01*
X129363490Y-102505772D01*
X129216840Y-102603760D01*
X123217960Y-96604880D01*
X123060996Y-96500000D01*
X127578890Y-96500000D01*
X127655772Y-96886510D01*
X127874712Y-97214178D01*
X128202380Y-97433118D01*
X128588890Y-97510000D01*
X129911110Y-97510000D01*
X130297620Y-97433118D01*
X130625288Y-97214178D01*
X130844228Y-96886510D01*
X130921110Y-96500000D01*
X130844228Y-96113490D01*
X130625288Y-95785822D01*
X130297620Y-95566882D01*
X129911110Y-95490000D01*
X128588890Y-95490000D01*
X128202380Y-95566882D01*
X127874712Y-95785822D01*
X127655772Y-96113490D01*
X127578890Y-96500000D01*
X123060996Y-96500000D01*
X122997028Y-96457258D01*
X122736420Y-96405420D01*
X122021880Y-96405420D01*
X122021880Y-90738836D01*
X122193791Y-90738836D01*
X122377007Y-91182252D01*
X122715964Y-91521801D01*
X122719000Y-91523062D01*
X122719000Y-94540743D01*
X122673463Y-94586201D01*
X122547523Y-94889497D01*
X122547237Y-95217902D01*
X122672647Y-95521418D01*
X122904661Y-95753837D01*
X123207957Y-95879777D01*
X123536362Y-95880063D01*
X123839878Y-95754653D01*
X124072297Y-95522639D01*
X124198237Y-95219343D01*
X124198523Y-94890938D01*
X124081000Y-94606510D01*
X124081000Y-91523510D01*
X124082252Y-91522993D01*
X124421801Y-91184036D01*
X124605790Y-90740941D01*
X124605791Y-90738836D01*
X125393791Y-90738836D01*
X125577007Y-91182252D01*
X125915964Y-91521801D01*
X126359059Y-91705790D01*
X126838836Y-91706209D01*
X127282252Y-91522993D01*
X127287442Y-91517812D01*
X129866151Y-91517812D01*
X130075875Y-92025383D01*
X130463874Y-92414060D01*
X130971079Y-92624669D01*
X131520272Y-92625149D01*
X132027843Y-92415425D01*
X132416520Y-92027426D01*
X132472678Y-91892182D01*
X132480880Y-91890551D01*
X132480880Y-101990580D01*
X132532718Y-102251188D01*
X132680340Y-102472120D01*
X138189758Y-107981537D01*
X138189760Y-107981540D01*
X138410693Y-108129162D01*
X138671300Y-108181000D01*
X143852543Y-108181000D01*
X143874712Y-108214178D01*
X144202380Y-108433118D01*
X144588890Y-108510000D01*
X145911110Y-108510000D01*
X146297620Y-108433118D01*
X146625288Y-108214178D01*
X146844228Y-107886510D01*
X146921110Y-107500000D01*
X158578890Y-107500000D01*
X158655772Y-107886510D01*
X158874712Y-108214178D01*
X159202380Y-108433118D01*
X159588890Y-108510000D01*
X160911110Y-108510000D01*
X161297620Y-108433118D01*
X161625288Y-108214178D01*
X161844228Y-107886510D01*
X161921110Y-107500000D01*
X161844228Y-107113490D01*
X161625288Y-106785822D01*
X161297620Y-106566882D01*
X160911110Y-106490000D01*
X159588890Y-106490000D01*
X159202380Y-106566882D01*
X158874712Y-106785822D01*
X158655772Y-107113490D01*
X158578890Y-107500000D01*
X146921110Y-107500000D01*
X146844228Y-107113490D01*
X146625288Y-106785822D01*
X146297620Y-106566882D01*
X145911110Y-106490000D01*
X144588890Y-106490000D01*
X144202380Y-106566882D01*
X143874712Y-106785822D01*
X143852543Y-106819000D01*
X138953379Y-106819000D01*
X133842880Y-101708500D01*
X133842880Y-100637508D01*
X134105435Y-101030448D01*
X134504800Y-101297296D01*
X134975883Y-101391000D01*
X135024117Y-101391000D01*
X135495200Y-101297296D01*
X135894565Y-101030448D01*
X136161413Y-100631083D01*
X136255117Y-100160000D01*
X136161413Y-99688917D01*
X135894565Y-99289552D01*
X135495200Y-99022704D01*
X135024117Y-98929000D01*
X134975883Y-98929000D01*
X134504800Y-99022704D01*
X134105435Y-99289552D01*
X133842880Y-99682492D01*
X133842880Y-98097508D01*
X134105435Y-98490448D01*
X134504800Y-98757296D01*
X134975883Y-98851000D01*
X135024117Y-98851000D01*
X135495200Y-98757296D01*
X135894565Y-98490448D01*
X136161413Y-98091083D01*
X136255117Y-97620000D01*
X136161413Y-97148917D01*
X135894565Y-96749552D01*
X135495200Y-96482704D01*
X135024117Y-96389000D01*
X134975883Y-96389000D01*
X134504800Y-96482704D01*
X134105435Y-96749552D01*
X133842880Y-97142492D01*
X133842880Y-95557508D01*
X134105435Y-95950448D01*
X134504800Y-96217296D01*
X134975883Y-96311000D01*
X135024117Y-96311000D01*
X135495200Y-96217296D01*
X135894565Y-95950448D01*
X136161413Y-95551083D01*
X136255117Y-95080000D01*
X136175213Y-94678292D01*
X139369000Y-97872079D01*
X139369000Y-98302543D01*
X139335822Y-98324712D01*
X139116882Y-98652380D01*
X139040000Y-99038890D01*
X139040000Y-100361110D01*
X139116882Y-100747620D01*
X139335822Y-101075288D01*
X139663490Y-101294228D01*
X140050000Y-101371110D01*
X140436510Y-101294228D01*
X140764178Y-101075288D01*
X140983118Y-100747620D01*
X141044528Y-100438890D01*
X141740000Y-100438890D01*
X141740000Y-101761110D01*
X141816882Y-102147620D01*
X142035822Y-102475288D01*
X142363490Y-102694228D01*
X142750000Y-102771110D01*
X143136510Y-102694228D01*
X143464178Y-102475288D01*
X143683118Y-102147620D01*
X143760000Y-101761110D01*
X143760000Y-100438890D01*
X143683118Y-100052380D01*
X143464178Y-99724712D01*
X143136510Y-99505772D01*
X142750000Y-99428890D01*
X142363490Y-99505772D01*
X142035822Y-99724712D01*
X141816882Y-100052380D01*
X141740000Y-100438890D01*
X141044528Y-100438890D01*
X141060000Y-100361110D01*
X141060000Y-99038890D01*
X140983118Y-98652380D01*
X140764178Y-98324712D01*
X140731000Y-98302543D01*
X140731000Y-97590000D01*
X140679162Y-97329393D01*
X140531540Y-97108460D01*
X140531537Y-97108458D01*
X136359730Y-92936650D01*
X137316417Y-91979962D01*
X137316420Y-91979960D01*
X137464042Y-91759027D01*
X137466491Y-91746716D01*
X137515881Y-91498420D01*
X137515880Y-91498415D01*
X137515880Y-86226278D01*
X137546150Y-86299537D01*
X137948345Y-86702435D01*
X138474108Y-86920751D01*
X138872462Y-86921099D01*
X138838745Y-87090607D01*
X138820880Y-87180420D01*
X138820880Y-92545956D01*
X138651880Y-92545956D01*
X138510690Y-92572523D01*
X138381015Y-92655966D01*
X138294021Y-92783286D01*
X138263416Y-92934420D01*
X138263416Y-94634420D01*
X138289983Y-94775610D01*
X138373426Y-94905285D01*
X138500746Y-94992279D01*
X138651880Y-95022884D01*
X140351880Y-95022884D01*
X140493070Y-94996317D01*
X140622745Y-94912874D01*
X140709739Y-94785554D01*
X140740344Y-94634420D01*
X140740344Y-93249844D01*
X140770838Y-93403148D01*
X140803416Y-93451904D01*
X140803416Y-94634420D01*
X140829983Y-94775610D01*
X140913426Y-94905285D01*
X141040746Y-94992279D01*
X141191880Y-95022884D01*
X142891880Y-95022884D01*
X143033070Y-94996317D01*
X143162745Y-94912874D01*
X143249739Y-94785554D01*
X143280344Y-94634420D01*
X143280344Y-92934420D01*
X143253777Y-92793230D01*
X143170334Y-92663555D01*
X143043014Y-92576561D01*
X142891880Y-92545956D01*
X142081000Y-92545956D01*
X142081000Y-90738836D01*
X142193791Y-90738836D01*
X142377007Y-91182252D01*
X142715964Y-91521801D01*
X143159059Y-91705790D01*
X143638836Y-91706209D01*
X144082252Y-91522993D01*
X144421801Y-91184036D01*
X144605790Y-90740941D01*
X144605791Y-90738836D01*
X145393791Y-90738836D01*
X145577007Y-91182252D01*
X145915964Y-91521801D01*
X146212386Y-91644886D01*
X150093849Y-95526349D01*
X149911110Y-95490000D01*
X148588890Y-95490000D01*
X148202380Y-95566882D01*
X147874712Y-95785822D01*
X147655772Y-96113490D01*
X147578890Y-96500000D01*
X147655772Y-96886510D01*
X147874712Y-97214178D01*
X148202380Y-97433118D01*
X148588890Y-97510000D01*
X149911110Y-97510000D01*
X150297620Y-97433118D01*
X150625288Y-97214178D01*
X150844228Y-96886510D01*
X150885880Y-96677112D01*
X150885880Y-103230040D01*
X150746234Y-103369686D01*
X150683118Y-103052380D01*
X150464178Y-102724712D01*
X150136510Y-102505772D01*
X149750000Y-102428890D01*
X149363490Y-102505772D01*
X149035822Y-102724712D01*
X148816882Y-103052380D01*
X148740000Y-103438890D01*
X148740000Y-104761110D01*
X148816882Y-105147620D01*
X149035822Y-105475288D01*
X149363490Y-105694228D01*
X149750000Y-105771110D01*
X150136510Y-105694228D01*
X150464178Y-105475288D01*
X150499181Y-105422902D01*
X154586237Y-105422902D01*
X154711647Y-105726418D01*
X154943661Y-105958837D01*
X155246957Y-106084777D01*
X155575362Y-106085063D01*
X155878878Y-105959653D01*
X155898145Y-105940420D01*
X163661880Y-105940420D01*
X163922488Y-105888582D01*
X164143420Y-105740960D01*
X164259581Y-105624799D01*
X164363490Y-105694228D01*
X164750000Y-105771110D01*
X165136510Y-105694228D01*
X165464178Y-105475288D01*
X165683118Y-105147620D01*
X165760000Y-104761110D01*
X165760000Y-103438890D01*
X165683118Y-103052380D01*
X165464178Y-102724712D01*
X165136510Y-102505772D01*
X164750000Y-102428890D01*
X164363490Y-102505772D01*
X164035822Y-102724712D01*
X163816882Y-103052380D01*
X163740000Y-103438890D01*
X163740000Y-104218220D01*
X163379800Y-104578420D01*
X155898484Y-104578420D01*
X155880099Y-104560003D01*
X155576803Y-104434063D01*
X155248398Y-104433777D01*
X154944882Y-104559187D01*
X154712463Y-104791201D01*
X154586523Y-105094497D01*
X154586237Y-105422902D01*
X150499181Y-105422902D01*
X150683118Y-105147620D01*
X150756044Y-104781000D01*
X150979000Y-104781000D01*
X151239608Y-104729162D01*
X151460540Y-104581540D01*
X152048420Y-103993660D01*
X152196042Y-103772728D01*
X152247880Y-103512120D01*
X152247880Y-96036300D01*
X152225324Y-95922902D01*
X152196042Y-95775692D01*
X152048420Y-95554760D01*
X150423669Y-93930009D01*
X152249596Y-93930009D01*
X152370546Y-94082436D01*
X152832690Y-94240921D01*
X153320306Y-94210488D01*
X153629454Y-94082436D01*
X153750404Y-93930009D01*
X153000000Y-93179605D01*
X152249596Y-93930009D01*
X150423669Y-93930009D01*
X149326350Y-92832690D01*
X151759079Y-92832690D01*
X151789512Y-93320306D01*
X151917564Y-93629454D01*
X152069991Y-93750404D01*
X152820395Y-93000000D01*
X153179605Y-93000000D01*
X153930009Y-93750404D01*
X154082436Y-93629454D01*
X154240921Y-93167310D01*
X154210488Y-92679694D01*
X154082436Y-92370546D01*
X153930009Y-92249596D01*
X153179605Y-93000000D01*
X152820395Y-93000000D01*
X152069991Y-92249596D01*
X151917564Y-92370546D01*
X151759079Y-92832690D01*
X149326350Y-92832690D01*
X148563651Y-92069991D01*
X152249596Y-92069991D01*
X153000000Y-92820395D01*
X153750404Y-92069991D01*
X153629454Y-91917564D01*
X153167310Y-91759079D01*
X152679694Y-91789512D01*
X152370546Y-91917564D01*
X152249596Y-92069991D01*
X148563651Y-92069991D01*
X147638201Y-91144541D01*
X147805790Y-90740941D01*
X147805849Y-90672902D01*
X152836237Y-90672902D01*
X152961647Y-90976418D01*
X153193661Y-91208837D01*
X153496957Y-91334777D01*
X153524181Y-91334801D01*
X154930340Y-92740960D01*
X155151272Y-92888582D01*
X155411880Y-92940421D01*
X155411885Y-92940420D01*
X155775212Y-92940420D01*
X155674643Y-93182617D01*
X155674357Y-93511022D01*
X155799767Y-93814538D01*
X156031781Y-94046957D01*
X156335077Y-94172897D01*
X156663482Y-94173183D01*
X156966998Y-94047773D01*
X156986265Y-94028540D01*
X167652460Y-94028540D01*
X167913068Y-93976702D01*
X168134000Y-93829080D01*
X168983499Y-92979581D01*
X168750467Y-93328337D01*
X168656763Y-93799420D01*
X168705215Y-94043006D01*
X165809024Y-96939196D01*
X165844228Y-96886510D01*
X165921110Y-96500000D01*
X165844228Y-96113490D01*
X165625288Y-95785822D01*
X165297620Y-95566882D01*
X164911110Y-95490000D01*
X163588890Y-95490000D01*
X163202380Y-95566882D01*
X162874712Y-95785822D01*
X162655772Y-96113490D01*
X162578890Y-96500000D01*
X162655772Y-96886510D01*
X162874712Y-97214178D01*
X163202380Y-97433118D01*
X163588890Y-97510000D01*
X164911110Y-97510000D01*
X165297620Y-97433118D01*
X165350306Y-97397914D01*
X160398297Y-102349923D01*
X160277750Y-102430470D01*
X160129800Y-102578420D01*
X158309830Y-102578420D01*
X158464178Y-102475288D01*
X158683118Y-102147620D01*
X158760000Y-101761110D01*
X158760000Y-101053080D01*
X160143417Y-99669662D01*
X160143420Y-99669660D01*
X160291042Y-99448727D01*
X160294988Y-99428890D01*
X160342881Y-99188120D01*
X160342880Y-99188115D01*
X160342880Y-96246024D01*
X160361297Y-96227639D01*
X160487237Y-95924343D01*
X160487523Y-95595938D01*
X160362113Y-95292422D01*
X160130099Y-95060003D01*
X159826803Y-94934063D01*
X159498398Y-94933777D01*
X159194882Y-95059187D01*
X158962463Y-95291201D01*
X158836523Y-95594497D01*
X158836237Y-95922902D01*
X158961647Y-96226418D01*
X158980880Y-96245685D01*
X158980880Y-98906041D01*
X158283160Y-99603760D01*
X158136510Y-99505772D01*
X157750000Y-99428890D01*
X157363490Y-99505772D01*
X157035822Y-99724712D01*
X156816882Y-100052380D01*
X156740000Y-100438890D01*
X156740000Y-101761110D01*
X156816882Y-102147620D01*
X157035822Y-102475288D01*
X157190170Y-102578420D01*
X157033500Y-102578420D01*
X155731000Y-101275920D01*
X155731000Y-101097457D01*
X155764178Y-101075288D01*
X155983118Y-100747620D01*
X156060000Y-100361110D01*
X156060000Y-99038890D01*
X155983118Y-98652380D01*
X155764178Y-98324712D01*
X155436510Y-98105772D01*
X155050000Y-98028890D01*
X154663490Y-98105772D01*
X154335822Y-98324712D01*
X154116882Y-98652380D01*
X154040000Y-99038890D01*
X154040000Y-100361110D01*
X154116882Y-100747620D01*
X154335822Y-101075288D01*
X154369000Y-101097457D01*
X154369000Y-101558000D01*
X154420838Y-101818608D01*
X154568460Y-102039540D01*
X156269880Y-103740960D01*
X156490812Y-103888582D01*
X156751420Y-103940420D01*
X160411880Y-103940420D01*
X160672488Y-103888582D01*
X160893420Y-103740960D01*
X161160283Y-103474097D01*
X161280830Y-103393550D01*
X163254960Y-101419420D01*
X168656763Y-101419420D01*
X168750467Y-101890503D01*
X169017315Y-102289868D01*
X169416680Y-102556716D01*
X169887763Y-102650420D01*
X169935997Y-102650420D01*
X170407080Y-102556716D01*
X170806445Y-102289868D01*
X171073293Y-101890503D01*
X171166997Y-101419420D01*
X171073293Y-100948337D01*
X170806445Y-100548972D01*
X170407080Y-100282124D01*
X169935997Y-100188420D01*
X169887763Y-100188420D01*
X169416680Y-100282124D01*
X169017315Y-100548972D01*
X168750467Y-100948337D01*
X168656763Y-101419420D01*
X163254960Y-101419420D01*
X168736668Y-95937712D01*
X168656763Y-96339420D01*
X168750467Y-96810503D01*
X169017315Y-97209868D01*
X169416680Y-97476716D01*
X169887763Y-97570420D01*
X169935997Y-97570420D01*
X170407080Y-97476716D01*
X170806445Y-97209868D01*
X171073293Y-96810503D01*
X171166997Y-96339420D01*
X171073293Y-95868337D01*
X170806445Y-95468972D01*
X170407080Y-95202124D01*
X169935997Y-95108420D01*
X169887763Y-95108420D01*
X169486055Y-95188325D01*
X169684409Y-94989970D01*
X169887763Y-95030420D01*
X169935997Y-95030420D01*
X170407080Y-94936716D01*
X170806445Y-94669868D01*
X171073293Y-94270503D01*
X171166997Y-93799420D01*
X171073293Y-93328337D01*
X170806445Y-92928972D01*
X170407080Y-92662124D01*
X169935997Y-92568420D01*
X169887763Y-92568420D01*
X169416680Y-92662124D01*
X169067924Y-92895156D01*
X169724616Y-92238464D01*
X170850000Y-92238464D01*
X170991190Y-92211897D01*
X171120865Y-92128454D01*
X171207859Y-92001134D01*
X171230880Y-91887451D01*
X171230880Y-98097340D01*
X171129800Y-98198420D01*
X170933031Y-98198420D01*
X170806445Y-98008972D01*
X170407080Y-97742124D01*
X169935997Y-97648420D01*
X169887763Y-97648420D01*
X169416680Y-97742124D01*
X169017315Y-98008972D01*
X168750467Y-98408337D01*
X168656763Y-98879420D01*
X168750467Y-99350503D01*
X169017315Y-99749868D01*
X169416680Y-100016716D01*
X169887763Y-100110420D01*
X169935997Y-100110420D01*
X170407080Y-100016716D01*
X170806445Y-99749868D01*
X170933031Y-99560420D01*
X171411880Y-99560420D01*
X171672488Y-99508582D01*
X171893420Y-99360960D01*
X172393420Y-98860960D01*
X172541042Y-98640028D01*
X172592881Y-98379420D01*
X172592880Y-98379415D01*
X172592880Y-89964683D01*
X172592881Y-89964678D01*
X172541042Y-89704071D01*
X172527482Y-89683777D01*
X172393420Y-89483138D01*
X172393417Y-89483136D01*
X171524741Y-88614459D01*
X171350274Y-88497884D01*
X171761880Y-88497884D01*
X171903070Y-88471317D01*
X172032745Y-88387874D01*
X172119739Y-88260554D01*
X172150344Y-88109420D01*
X172150344Y-86409420D01*
X172123777Y-86268230D01*
X172040334Y-86138555D01*
X171913014Y-86051561D01*
X171761880Y-86020956D01*
X170061880Y-86020956D01*
X169920690Y-86047523D01*
X169791015Y-86130966D01*
X169704021Y-86258286D01*
X169673416Y-86409420D01*
X169673416Y-88097876D01*
X169437472Y-87861932D01*
X169509176Y-87754620D01*
X169602880Y-87283537D01*
X169602880Y-87235303D01*
X169509176Y-86764220D01*
X169242328Y-86364855D01*
X168842963Y-86098007D01*
X168371880Y-86004303D01*
X167900797Y-86098007D01*
X167501432Y-86364855D01*
X167234584Y-86764220D01*
X167140880Y-87235303D01*
X167140880Y-87283537D01*
X167181329Y-87486891D01*
X163089800Y-91578420D01*
X155693960Y-91578420D01*
X154487500Y-90371960D01*
X154487523Y-90345938D01*
X154362113Y-90042422D01*
X154130099Y-89810003D01*
X153826803Y-89684063D01*
X153498398Y-89683777D01*
X153194882Y-89809187D01*
X152962463Y-90041201D01*
X152836523Y-90344497D01*
X152836237Y-90672902D01*
X147805849Y-90672902D01*
X147806209Y-90261164D01*
X147622993Y-89817748D01*
X147284036Y-89478199D01*
X146840941Y-89294210D01*
X146361164Y-89293791D01*
X145917748Y-89477007D01*
X145578199Y-89815964D01*
X145394210Y-90259059D01*
X145393791Y-90738836D01*
X144605791Y-90738836D01*
X144606209Y-90261164D01*
X144422993Y-89817748D01*
X144084036Y-89478199D01*
X143640941Y-89294210D01*
X143161164Y-89293791D01*
X142717748Y-89477007D01*
X142378199Y-89815964D01*
X142194210Y-90259059D01*
X142193791Y-90738836D01*
X142081000Y-90738836D01*
X142081000Y-88423510D01*
X142082252Y-88422993D01*
X142421801Y-88084036D01*
X142605790Y-87640941D01*
X142605839Y-87584375D01*
X144068839Y-87584375D01*
X144210277Y-87926680D01*
X144471943Y-88188803D01*
X144814000Y-88330838D01*
X145184375Y-88331161D01*
X145526680Y-88189723D01*
X145788803Y-87928057D01*
X145930838Y-87586000D01*
X145931161Y-87215625D01*
X145789723Y-86873320D01*
X145528057Y-86611197D01*
X145186000Y-86469162D01*
X144815625Y-86468839D01*
X144473320Y-86610277D01*
X144211197Y-86871943D01*
X144069162Y-87214000D01*
X144068839Y-87584375D01*
X142605839Y-87584375D01*
X142606209Y-87161164D01*
X142422993Y-86717748D01*
X142084036Y-86378199D01*
X141711482Y-86223501D01*
X155418813Y-86223501D01*
X155583038Y-86620957D01*
X155886863Y-86925313D01*
X156284032Y-87090232D01*
X156714081Y-87090607D01*
X157111537Y-86926382D01*
X157415893Y-86622557D01*
X157580812Y-86225388D01*
X157581187Y-85795339D01*
X157416962Y-85397883D01*
X157113137Y-85093527D01*
X156719342Y-84930009D01*
X165249596Y-84930009D01*
X165370546Y-85082436D01*
X165832690Y-85240921D01*
X166320306Y-85210488D01*
X166629454Y-85082436D01*
X166750404Y-84930009D01*
X166000000Y-84179605D01*
X165249596Y-84930009D01*
X156719342Y-84930009D01*
X156715968Y-84928608D01*
X156285919Y-84928233D01*
X155888463Y-85092458D01*
X155584107Y-85396283D01*
X155419188Y-85793452D01*
X155418813Y-86223501D01*
X141711482Y-86223501D01*
X141640941Y-86194210D01*
X141178712Y-86193806D01*
X141181001Y-86182300D01*
X141181000Y-86182295D01*
X141181000Y-83832690D01*
X164759079Y-83832690D01*
X164789512Y-84320306D01*
X164917564Y-84629454D01*
X165069991Y-84750404D01*
X165820395Y-84000000D01*
X166179605Y-84000000D01*
X166930009Y-84750404D01*
X167082436Y-84629454D01*
X167240921Y-84167310D01*
X167210488Y-83679694D01*
X167082436Y-83370546D01*
X166930009Y-83249596D01*
X166179605Y-84000000D01*
X165820395Y-84000000D01*
X165069991Y-83249596D01*
X164917564Y-83370546D01*
X164759079Y-83832690D01*
X141181000Y-83832690D01*
X141181000Y-83423510D01*
X141182252Y-83422993D01*
X141521801Y-83084036D01*
X141705790Y-82640941D01*
X141705839Y-82584375D01*
X144068839Y-82584375D01*
X144210277Y-82926680D01*
X144471943Y-83188803D01*
X144814000Y-83330838D01*
X145184375Y-83331161D01*
X145526680Y-83189723D01*
X145788803Y-82928057D01*
X145930838Y-82586000D01*
X145931161Y-82215625D01*
X145789723Y-81873320D01*
X145528057Y-81611197D01*
X145440886Y-81575000D01*
X148586536Y-81575000D01*
X148586536Y-83225000D01*
X148613103Y-83366190D01*
X148696546Y-83495865D01*
X148823866Y-83582859D01*
X148975000Y-83613464D01*
X150625000Y-83613464D01*
X150766190Y-83586897D01*
X150895865Y-83503454D01*
X150982859Y-83376134D01*
X151013464Y-83225000D01*
X151013464Y-83069991D01*
X165249596Y-83069991D01*
X166000000Y-83820395D01*
X166750404Y-83069991D01*
X166629454Y-82917564D01*
X166167310Y-82759079D01*
X165679694Y-82789512D01*
X165370546Y-82917564D01*
X165249596Y-83069991D01*
X151013464Y-83069991D01*
X151013464Y-81723501D01*
X155418813Y-81723501D01*
X155583038Y-82120957D01*
X155886863Y-82425313D01*
X156284032Y-82590232D01*
X156714081Y-82590607D01*
X157111537Y-82426382D01*
X157415893Y-82122557D01*
X157580812Y-81725388D01*
X157581187Y-81295339D01*
X157416962Y-80897883D01*
X157113137Y-80593527D01*
X156715968Y-80428608D01*
X156285919Y-80428233D01*
X155888463Y-80592458D01*
X155584107Y-80896283D01*
X155419188Y-81293452D01*
X155418813Y-81723501D01*
X151013464Y-81723501D01*
X151013464Y-81575000D01*
X150986897Y-81433810D01*
X150903454Y-81304135D01*
X150776134Y-81217141D01*
X150625000Y-81186536D01*
X148975000Y-81186536D01*
X148833810Y-81213103D01*
X148704135Y-81296546D01*
X148617141Y-81423866D01*
X148586536Y-81575000D01*
X145440886Y-81575000D01*
X145186000Y-81469162D01*
X144815625Y-81468839D01*
X144473320Y-81610277D01*
X144211197Y-81871943D01*
X144069162Y-82214000D01*
X144068839Y-82584375D01*
X141705839Y-82584375D01*
X141706209Y-82161164D01*
X141522993Y-81717748D01*
X141184036Y-81378199D01*
X140740941Y-81194210D01*
X140261164Y-81193791D01*
X139817748Y-81377007D01*
X139478199Y-81715964D01*
X139294210Y-82159059D01*
X139293791Y-82638836D01*
X139477007Y-83082252D01*
X139815964Y-83421801D01*
X139819000Y-83423062D01*
X139819000Y-84525342D01*
X139571655Y-84277565D01*
X139045892Y-84059249D01*
X138476605Y-84058752D01*
X137950463Y-84276150D01*
X137547565Y-84678345D01*
X137515880Y-84754651D01*
X137515880Y-84256014D01*
X137748738Y-84256217D01*
X138210537Y-84065405D01*
X138564164Y-83712396D01*
X138755781Y-83250930D01*
X138756217Y-82751262D01*
X138565405Y-82289463D01*
X138212396Y-81935836D01*
X137750930Y-81744219D01*
X137251262Y-81743783D01*
X136789463Y-81934595D01*
X136435836Y-82287604D01*
X136244219Y-82749070D01*
X136243783Y-83248738D01*
X136269009Y-83309790D01*
X136205718Y-83404512D01*
X136165681Y-83605790D01*
X136153880Y-83665120D01*
X136153880Y-88918648D01*
X136128454Y-88879135D01*
X136001134Y-88792141D01*
X135850000Y-88761536D01*
X134150000Y-88761536D01*
X134008810Y-88788103D01*
X133879135Y-88871546D01*
X133792141Y-88998866D01*
X133761536Y-89150000D01*
X133761536Y-89319000D01*
X133550005Y-89319000D01*
X133550000Y-89318999D01*
X133289393Y-89370838D01*
X133068460Y-89518460D01*
X133068458Y-89518463D01*
X132680340Y-89906580D01*
X132270803Y-90316117D01*
X132029886Y-90074780D01*
X131522681Y-89864171D01*
X130973488Y-89863691D01*
X130465917Y-90073415D01*
X130077240Y-90461414D01*
X129866631Y-90968619D01*
X129866151Y-91517812D01*
X127287442Y-91517812D01*
X127621801Y-91184036D01*
X127805790Y-90740941D01*
X127806209Y-90261164D01*
X127622993Y-89817748D01*
X127284036Y-89478199D01*
X126840941Y-89294210D01*
X126361164Y-89293791D01*
X125917748Y-89477007D01*
X125578199Y-89815964D01*
X125394210Y-90259059D01*
X125393791Y-90738836D01*
X124605791Y-90738836D01*
X124606209Y-90261164D01*
X124422993Y-89817748D01*
X124084036Y-89478199D01*
X123640941Y-89294210D01*
X123161164Y-89293791D01*
X122717748Y-89477007D01*
X122378199Y-89815964D01*
X122194210Y-90259059D01*
X122193791Y-90738836D01*
X122021880Y-90738836D01*
X122021880Y-89189429D01*
X131161476Y-89189429D01*
X131282426Y-89341856D01*
X131744570Y-89500341D01*
X132232186Y-89469908D01*
X132541334Y-89341856D01*
X132662284Y-89189429D01*
X131911880Y-88439025D01*
X131161476Y-89189429D01*
X122021880Y-89189429D01*
X122021880Y-88447938D01*
X122082252Y-88422993D01*
X122421801Y-88084036D01*
X122605790Y-87640941D01*
X122605839Y-87584375D01*
X124068839Y-87584375D01*
X124210277Y-87926680D01*
X124471943Y-88188803D01*
X124814000Y-88330838D01*
X125184375Y-88331161D01*
X125526680Y-88189723D01*
X125624463Y-88092110D01*
X130670959Y-88092110D01*
X130701392Y-88579726D01*
X130829444Y-88888874D01*
X130981871Y-89009824D01*
X131732275Y-88259420D01*
X132091485Y-88259420D01*
X132841889Y-89009824D01*
X132994316Y-88888874D01*
X133152801Y-88426730D01*
X133122368Y-87939114D01*
X132994316Y-87629966D01*
X132841889Y-87509016D01*
X132091485Y-88259420D01*
X131732275Y-88259420D01*
X130981871Y-87509016D01*
X130829444Y-87629966D01*
X130670959Y-88092110D01*
X125624463Y-88092110D01*
X125788803Y-87928057D01*
X125930838Y-87586000D01*
X125931061Y-87329411D01*
X131161476Y-87329411D01*
X131911880Y-88079815D01*
X132662284Y-87329411D01*
X132541334Y-87176984D01*
X132079190Y-87018499D01*
X131591574Y-87048932D01*
X131282426Y-87176984D01*
X131161476Y-87329411D01*
X125931061Y-87329411D01*
X125931161Y-87215625D01*
X125789723Y-86873320D01*
X125528057Y-86611197D01*
X125186000Y-86469162D01*
X124815625Y-86468839D01*
X124473320Y-86610277D01*
X124211197Y-86871943D01*
X124069162Y-87214000D01*
X124068839Y-87584375D01*
X122605839Y-87584375D01*
X122606209Y-87161164D01*
X122422993Y-86717748D01*
X122084036Y-86378199D01*
X121640941Y-86194210D01*
X121161164Y-86193791D01*
X120717748Y-86377007D01*
X120378199Y-86715964D01*
X120194210Y-87159059D01*
X120193791Y-87638836D01*
X120377007Y-88082252D01*
X120659880Y-88365619D01*
X120659880Y-91315074D01*
X120531540Y-91123000D01*
X119536420Y-90127880D01*
X119315488Y-89980258D01*
X119054880Y-89928420D01*
X118298031Y-89928420D01*
X118171445Y-89738972D01*
X117772080Y-89472124D01*
X117300997Y-89378420D01*
X117252763Y-89378420D01*
X116781680Y-89472124D01*
X116382315Y-89738972D01*
X116115467Y-90138337D01*
X116021763Y-90609420D01*
X112314834Y-90609420D01*
X112314834Y-90323670D01*
X112288267Y-90182480D01*
X112204824Y-90052805D01*
X112077504Y-89965811D01*
X111926370Y-89935206D01*
X109927390Y-89935206D01*
X109786200Y-89961773D01*
X109656525Y-90045216D01*
X109569531Y-90172536D01*
X109538926Y-90323670D01*
X108391910Y-90323670D01*
X108233161Y-90114617D01*
X108079727Y-90025000D01*
X108233161Y-89935383D01*
X108405092Y-89708970D01*
X108438746Y-89627670D01*
X108409330Y-89517000D01*
X107877000Y-89517000D01*
X107623000Y-89517000D01*
X107090670Y-89517000D01*
X107061254Y-89627670D01*
X90038880Y-89627670D01*
X90038880Y-88357670D01*
X107061254Y-88357670D01*
X107094908Y-88438970D01*
X107266839Y-88665383D01*
X107420273Y-88755000D01*
X107266839Y-88844617D01*
X107094908Y-89071030D01*
X107061254Y-89152330D01*
X107090670Y-89263000D01*
X107623000Y-89263000D01*
X107623000Y-88247000D01*
X107877000Y-88247000D01*
X107877000Y-89263000D01*
X108409330Y-89263000D01*
X108438746Y-89152330D01*
X108405092Y-89071030D01*
X108233161Y-88844617D01*
X108079727Y-88755000D01*
X108233161Y-88665383D01*
X108405092Y-88438970D01*
X108438746Y-88357670D01*
X108409330Y-88247000D01*
X107877000Y-88247000D01*
X107623000Y-88247000D01*
X107090670Y-88247000D01*
X107061254Y-88357670D01*
X90038880Y-88357670D01*
X90038880Y-87087670D01*
X107061254Y-87087670D01*
X107094908Y-87168970D01*
X107266839Y-87395383D01*
X107420273Y-87485000D01*
X107266839Y-87574617D01*
X107094908Y-87801030D01*
X107061254Y-87882330D01*
X107090670Y-87993000D01*
X107623000Y-87993000D01*
X107623000Y-86977000D01*
X107877000Y-86977000D01*
X107877000Y-87993000D01*
X108409330Y-87993000D01*
X108438746Y-87882330D01*
X108405092Y-87801030D01*
X108233161Y-87574617D01*
X108079727Y-87485000D01*
X108233161Y-87395383D01*
X108323314Y-87276661D01*
X109602758Y-87276661D01*
X109814990Y-87790303D01*
X110207630Y-88183629D01*
X110720900Y-88396757D01*
X111276661Y-88397242D01*
X111624374Y-88253570D01*
X116198280Y-88253570D01*
X116198280Y-88964892D01*
X116233083Y-89048912D01*
X116297389Y-89113218D01*
X116381409Y-89148020D01*
X117092730Y-89148020D01*
X117149880Y-89090870D01*
X117149880Y-88196420D01*
X117403880Y-88196420D01*
X117403880Y-89090870D01*
X117461030Y-89148020D01*
X118172351Y-89148020D01*
X118256371Y-89113218D01*
X118320677Y-89048912D01*
X118355480Y-88964892D01*
X118355480Y-88253570D01*
X118298330Y-88196420D01*
X117403880Y-88196420D01*
X117149880Y-88196420D01*
X116255430Y-88196420D01*
X116198280Y-88253570D01*
X111624374Y-88253570D01*
X111790303Y-88185010D01*
X112183629Y-87792370D01*
X112396757Y-87279100D01*
X112396848Y-87173948D01*
X116198280Y-87173948D01*
X116198280Y-87885270D01*
X116255430Y-87942420D01*
X117149880Y-87942420D01*
X117149880Y-87047970D01*
X117403880Y-87047970D01*
X117403880Y-87942420D01*
X118298330Y-87942420D01*
X118355480Y-87885270D01*
X118355480Y-87173948D01*
X118320677Y-87089928D01*
X118256371Y-87025622D01*
X118172351Y-86990820D01*
X117461030Y-86990820D01*
X117403880Y-87047970D01*
X117149880Y-87047970D01*
X117092730Y-86990820D01*
X116381409Y-86990820D01*
X116297389Y-87025622D01*
X116233083Y-87089928D01*
X116198280Y-87173948D01*
X112396848Y-87173948D01*
X112397242Y-86723339D01*
X112185010Y-86209697D01*
X111792370Y-85816371D01*
X111688873Y-85773395D01*
X130318752Y-85773395D01*
X130536150Y-86299537D01*
X130938345Y-86702435D01*
X131464108Y-86920751D01*
X132033395Y-86921248D01*
X132559537Y-86703850D01*
X132962435Y-86301655D01*
X133180751Y-85775892D01*
X133181248Y-85206605D01*
X132963850Y-84680463D01*
X132561655Y-84277565D01*
X132035892Y-84059249D01*
X131466605Y-84058752D01*
X130940463Y-84276150D01*
X130537565Y-84678345D01*
X130319249Y-85204108D01*
X130318752Y-85773395D01*
X111688873Y-85773395D01*
X111279100Y-85603243D01*
X110723339Y-85602758D01*
X110209697Y-85814990D01*
X109816371Y-86207630D01*
X109603243Y-86720900D01*
X109602758Y-87276661D01*
X108323314Y-87276661D01*
X108405092Y-87168970D01*
X108438746Y-87087670D01*
X108409330Y-86977000D01*
X107877000Y-86977000D01*
X107623000Y-86977000D01*
X107090670Y-86977000D01*
X107061254Y-87087670D01*
X90038880Y-87087670D01*
X90038880Y-85773493D01*
X93618761Y-85773493D01*
X93828563Y-86281251D01*
X94216705Y-86670072D01*
X94724097Y-86880759D01*
X95273493Y-86881239D01*
X95781251Y-86671437D01*
X96022730Y-86430379D01*
X99249226Y-86430379D01*
X99370238Y-86582859D01*
X99832568Y-86741431D01*
X100320388Y-86711006D01*
X100629762Y-86582859D01*
X100750774Y-86430379D01*
X100000000Y-85679605D01*
X99249226Y-86430379D01*
X96022730Y-86430379D01*
X96170072Y-86283295D01*
X96380759Y-85775903D01*
X96381146Y-85332568D01*
X98758569Y-85332568D01*
X98788994Y-85820388D01*
X98917141Y-86129762D01*
X99069621Y-86250774D01*
X99820395Y-85500000D01*
X100179605Y-85500000D01*
X100930379Y-86250774D01*
X101082859Y-86129762D01*
X101189901Y-85817670D01*
X107061254Y-85817670D01*
X107094908Y-85898970D01*
X107266839Y-86125383D01*
X107420273Y-86215000D01*
X107266839Y-86304617D01*
X107094908Y-86531030D01*
X107061254Y-86612330D01*
X107090670Y-86723000D01*
X107623000Y-86723000D01*
X107623000Y-85707000D01*
X107877000Y-85707000D01*
X107877000Y-86723000D01*
X108409330Y-86723000D01*
X108438746Y-86612330D01*
X108405092Y-86531030D01*
X108233161Y-86304617D01*
X108079727Y-86215000D01*
X108233161Y-86125383D01*
X108405092Y-85898970D01*
X108438746Y-85817670D01*
X108409330Y-85707000D01*
X107877000Y-85707000D01*
X107623000Y-85707000D01*
X107090670Y-85707000D01*
X107061254Y-85817670D01*
X101189901Y-85817670D01*
X101241431Y-85667432D01*
X101211006Y-85179612D01*
X101082859Y-84870238D01*
X100930379Y-84749226D01*
X100179605Y-85500000D01*
X99820395Y-85500000D01*
X99069621Y-84749226D01*
X98917141Y-84870238D01*
X98758569Y-85332568D01*
X96381146Y-85332568D01*
X96381239Y-85226507D01*
X96171437Y-84718749D01*
X96022570Y-84569621D01*
X99249226Y-84569621D01*
X100000000Y-85320395D01*
X100750774Y-84569621D01*
X100733354Y-84547670D01*
X107061254Y-84547670D01*
X107094908Y-84628970D01*
X107266839Y-84855383D01*
X107420273Y-84945000D01*
X107266839Y-85034617D01*
X107094908Y-85261030D01*
X107061254Y-85342330D01*
X107090670Y-85453000D01*
X107623000Y-85453000D01*
X107623000Y-84437000D01*
X107877000Y-84437000D01*
X107877000Y-85453000D01*
X108409330Y-85453000D01*
X108438746Y-85342330D01*
X108405092Y-85261030D01*
X108233161Y-85034617D01*
X108079727Y-84945000D01*
X108233161Y-84855383D01*
X108405092Y-84628970D01*
X108438746Y-84547670D01*
X108409330Y-84437000D01*
X107877000Y-84437000D01*
X107623000Y-84437000D01*
X107090670Y-84437000D01*
X107061254Y-84547670D01*
X100733354Y-84547670D01*
X100629762Y-84417141D01*
X100167432Y-84258569D01*
X99679612Y-84288994D01*
X99370238Y-84417141D01*
X99249226Y-84569621D01*
X96022570Y-84569621D01*
X95783295Y-84329928D01*
X95275903Y-84119241D01*
X94726507Y-84118761D01*
X94218749Y-84328563D01*
X93829928Y-84716705D01*
X93619241Y-85224097D01*
X93618761Y-85773493D01*
X90038880Y-85773493D01*
X90038880Y-83277670D01*
X107061254Y-83277670D01*
X107094908Y-83358970D01*
X107266839Y-83585383D01*
X107420273Y-83675000D01*
X107266839Y-83764617D01*
X107094908Y-83991030D01*
X107061254Y-84072330D01*
X107090670Y-84183000D01*
X107623000Y-84183000D01*
X107623000Y-83167000D01*
X107877000Y-83167000D01*
X107877000Y-84183000D01*
X108409330Y-84183000D01*
X108438746Y-84072330D01*
X108405092Y-83991030D01*
X108233161Y-83764617D01*
X108079727Y-83675000D01*
X108233161Y-83585383D01*
X108405092Y-83358970D01*
X108438746Y-83277670D01*
X108409330Y-83167000D01*
X107877000Y-83167000D01*
X107623000Y-83167000D01*
X107090670Y-83167000D01*
X107061254Y-83277670D01*
X90038880Y-83277670D01*
X90038880Y-82930009D01*
X102249596Y-82930009D01*
X102370546Y-83082436D01*
X102832690Y-83240921D01*
X103320306Y-83210488D01*
X103629454Y-83082436D01*
X103750404Y-82930009D01*
X103000000Y-82179605D01*
X102249596Y-82930009D01*
X90038880Y-82930009D01*
X90038880Y-81832690D01*
X101759079Y-81832690D01*
X101789512Y-82320306D01*
X101917564Y-82629454D01*
X102069991Y-82750404D01*
X102820395Y-82000000D01*
X103179605Y-82000000D01*
X103930009Y-82750404D01*
X104082436Y-82629454D01*
X104240921Y-82167310D01*
X104230958Y-82007670D01*
X107061254Y-82007670D01*
X107094908Y-82088970D01*
X107266839Y-82315383D01*
X107420273Y-82405000D01*
X107266839Y-82494617D01*
X107094908Y-82721030D01*
X107061254Y-82802330D01*
X107090670Y-82913000D01*
X107623000Y-82913000D01*
X107623000Y-81897000D01*
X107877000Y-81897000D01*
X107877000Y-82913000D01*
X108409330Y-82913000D01*
X108438746Y-82802330D01*
X108405092Y-82721030D01*
X108233161Y-82494617D01*
X108079727Y-82405000D01*
X108233161Y-82315383D01*
X108405092Y-82088970D01*
X108438746Y-82007670D01*
X108409330Y-81897000D01*
X107877000Y-81897000D01*
X107623000Y-81897000D01*
X107090670Y-81897000D01*
X107061254Y-82007670D01*
X104230958Y-82007670D01*
X104210488Y-81679694D01*
X104082436Y-81370546D01*
X103930009Y-81249596D01*
X103179605Y-82000000D01*
X102820395Y-82000000D01*
X102069991Y-81249596D01*
X101917564Y-81370546D01*
X101759079Y-81832690D01*
X90038880Y-81832690D01*
X90038880Y-81433691D01*
X90281896Y-81069991D01*
X102249596Y-81069991D01*
X103000000Y-81820395D01*
X103750404Y-81069991D01*
X103629454Y-80917564D01*
X103167310Y-80759079D01*
X102679694Y-80789512D01*
X102370546Y-80917564D01*
X102249596Y-81069991D01*
X90281896Y-81069991D01*
X90539707Y-80684150D01*
X107021400Y-80684150D01*
X107021400Y-81045472D01*
X107056203Y-81129492D01*
X107120509Y-81193798D01*
X107204529Y-81228600D01*
X107263814Y-81228600D01*
X107094908Y-81451030D01*
X107061254Y-81532330D01*
X107090670Y-81643000D01*
X107623000Y-81643000D01*
X107623000Y-80627000D01*
X107877000Y-80627000D01*
X107877000Y-81643000D01*
X108409330Y-81643000D01*
X108438746Y-81532330D01*
X108405092Y-81451030D01*
X108236186Y-81228600D01*
X108295471Y-81228600D01*
X108379491Y-81193798D01*
X108443797Y-81129492D01*
X108478600Y-81045472D01*
X108478600Y-80684150D01*
X108421450Y-80627000D01*
X107877000Y-80627000D01*
X107623000Y-80627000D01*
X107078550Y-80627000D01*
X107021400Y-80684150D01*
X90539707Y-80684150D01*
X90597564Y-80597562D01*
X91470409Y-80014345D01*
X92113534Y-79886420D01*
X107049612Y-79886420D01*
X107021400Y-79954528D01*
X107021400Y-79954528D01*
G37*
X107021400Y-79954528D02*
X107021400Y-80315850D01*
X107078550Y-80373000D01*
X107623000Y-80373000D01*
X107623000Y-80353000D01*
X107877000Y-80353000D01*
X107877000Y-80373000D01*
X108421450Y-80373000D01*
X108478600Y-80315850D01*
X108478600Y-79954528D01*
X108450388Y-79886420D01*
X110550490Y-79886420D01*
X109765877Y-80669664D01*
X109273561Y-81855294D01*
X109272441Y-83139074D01*
X109762687Y-84325561D01*
X110669664Y-85234123D01*
X111855294Y-85726439D01*
X113139074Y-85727559D01*
X114325561Y-85237313D01*
X115234123Y-84330336D01*
X115437858Y-83839685D01*
X132339920Y-83839685D01*
X132445583Y-83979155D01*
X132862492Y-84116787D01*
X133300335Y-84084399D01*
X133554417Y-83979155D01*
X133660080Y-83839685D01*
X133000000Y-83179605D01*
X132339920Y-83839685D01*
X115437858Y-83839685D01*
X115726439Y-83144706D01*
X115726880Y-82638836D01*
X119293791Y-82638836D01*
X119477007Y-83082252D01*
X119815964Y-83421801D01*
X120259059Y-83605790D01*
X120738836Y-83606209D01*
X121182252Y-83422993D01*
X121521801Y-83084036D01*
X121705790Y-82640941D01*
X121705839Y-82584375D01*
X124068839Y-82584375D01*
X124210277Y-82926680D01*
X124471943Y-83188803D01*
X124814000Y-83330838D01*
X125184375Y-83331161D01*
X125526680Y-83189723D01*
X125788803Y-82928057D01*
X125930838Y-82586000D01*
X125930839Y-82584150D01*
X128746400Y-82584150D01*
X128746400Y-83270471D01*
X128781202Y-83354491D01*
X128845508Y-83418797D01*
X128929528Y-83453600D01*
X129615850Y-83453600D01*
X129673000Y-83396450D01*
X129673000Y-82527000D01*
X129927000Y-82527000D01*
X129927000Y-83396450D01*
X129984150Y-83453600D01*
X130670472Y-83453600D01*
X130754492Y-83418797D01*
X130818798Y-83354491D01*
X130853600Y-83270471D01*
X130853600Y-82862492D01*
X131883213Y-82862492D01*
X131915601Y-83300335D01*
X132020845Y-83554417D01*
X132160315Y-83660080D01*
X132820395Y-83000000D01*
X133179605Y-83000000D01*
X133839685Y-83660080D01*
X133979155Y-83554417D01*
X134116787Y-83137508D01*
X134084399Y-82699665D01*
X133979155Y-82445583D01*
X133839685Y-82339920D01*
X133179605Y-83000000D01*
X132820395Y-83000000D01*
X132160315Y-82339920D01*
X132020845Y-82445583D01*
X131883213Y-82862492D01*
X130853600Y-82862492D01*
X130853600Y-82584150D01*
X130796450Y-82527000D01*
X129927000Y-82527000D01*
X129673000Y-82527000D01*
X128803550Y-82527000D01*
X128746400Y-82584150D01*
X125930839Y-82584150D01*
X125931161Y-82215625D01*
X125789723Y-81873320D01*
X125528057Y-81611197D01*
X125331380Y-81529529D01*
X128746400Y-81529529D01*
X128746400Y-82215850D01*
X128803550Y-82273000D01*
X129673000Y-82273000D01*
X129673000Y-81403550D01*
X129927000Y-81403550D01*
X129927000Y-82273000D01*
X130796450Y-82273000D01*
X130853600Y-82215850D01*
X130853600Y-82160315D01*
X132339920Y-82160315D01*
X133000000Y-82820395D01*
X133660080Y-82160315D01*
X133554417Y-82020845D01*
X133137508Y-81883213D01*
X132699665Y-81915601D01*
X132445583Y-82020845D01*
X132339920Y-82160315D01*
X130853600Y-82160315D01*
X130853600Y-81529529D01*
X130818798Y-81445509D01*
X130754492Y-81381203D01*
X130670472Y-81346400D01*
X129984150Y-81346400D01*
X129927000Y-81403550D01*
X129673000Y-81403550D01*
X129615850Y-81346400D01*
X128929528Y-81346400D01*
X128845508Y-81381203D01*
X128781202Y-81445509D01*
X128746400Y-81529529D01*
X125331380Y-81529529D01*
X125186000Y-81469162D01*
X124815625Y-81468839D01*
X124473320Y-81610277D01*
X124211197Y-81871943D01*
X124069162Y-82214000D01*
X124068839Y-82584375D01*
X121705839Y-82584375D01*
X121706209Y-82161164D01*
X121522993Y-81717748D01*
X121184036Y-81378199D01*
X120740941Y-81194210D01*
X120261164Y-81193791D01*
X119817748Y-81377007D01*
X119478199Y-81715964D01*
X119294210Y-82159059D01*
X119293791Y-82638836D01*
X115726880Y-82638836D01*
X115727559Y-81860926D01*
X115237313Y-80674439D01*
X114450669Y-79886420D01*
X122521350Y-79886420D01*
X122521350Y-80800000D01*
X122538755Y-80887501D01*
X122588320Y-80961680D01*
X122662499Y-81011245D01*
X122750000Y-81028650D01*
X127250000Y-81028650D01*
X127337501Y-81011245D01*
X127411680Y-80961680D01*
X127461245Y-80887501D01*
X127478650Y-80800000D01*
X127478650Y-79886420D01*
X142521350Y-79886420D01*
X142521350Y-80800000D01*
X142538755Y-80887501D01*
X142588320Y-80961680D01*
X142662499Y-81011245D01*
X142750000Y-81028650D01*
X147250000Y-81028650D01*
X147337501Y-81011245D01*
X147411680Y-80961680D01*
X147461245Y-80887501D01*
X147478650Y-80800000D01*
X147478650Y-80409420D01*
X164673416Y-80409420D01*
X164673416Y-82109420D01*
X164699983Y-82250610D01*
X164783426Y-82380285D01*
X164910746Y-82467279D01*
X165061880Y-82497884D01*
X166761880Y-82497884D01*
X166903070Y-82471317D01*
X167032745Y-82387874D01*
X167119739Y-82260554D01*
X167150344Y-82109420D01*
X167150344Y-80409420D01*
X167123777Y-80268230D01*
X167040334Y-80138555D01*
X166913014Y-80051561D01*
X166761880Y-80020956D01*
X165061880Y-80020956D01*
X164920690Y-80047523D01*
X164791015Y-80130966D01*
X164704021Y-80258286D01*
X164673416Y-80409420D01*
X147478650Y-80409420D01*
X147478650Y-79886420D01*
X169550490Y-79886420D01*
X168765877Y-80669664D01*
X168273561Y-81855294D01*
X168272441Y-83139074D01*
X168762687Y-84325561D01*
X169669664Y-85234123D01*
X170855294Y-85726439D01*
X172139074Y-85727559D01*
X173325561Y-85237313D01*
X174034880Y-84529231D01*
X174034880Y-104471653D01*
X173330336Y-103765877D01*
X172144706Y-103273561D01*
X170860926Y-103272441D01*
X169674439Y-103762687D01*
X168765877Y-104669664D01*
X168273561Y-105855294D01*
X168272441Y-107139074D01*
X168762687Y-108325561D01*
X169568139Y-109132420D01*
X167842985Y-109132420D01*
X168183629Y-108792370D01*
X168396757Y-108279100D01*
X168397242Y-107723339D01*
X168185010Y-107209697D01*
X167792370Y-106816371D01*
X167279100Y-106603243D01*
X166723339Y-106602758D01*
X166209697Y-106814990D01*
X165816371Y-107207630D01*
X165603243Y-107720900D01*
X165602758Y-108276661D01*
X165814990Y-108790303D01*
X166156510Y-109132420D01*
X114430637Y-109132420D01*
X115234123Y-108330336D01*
X115400353Y-107930009D01*
X116249596Y-107930009D01*
X116370546Y-108082436D01*
X116832690Y-108240921D01*
X117320306Y-108210488D01*
X117629454Y-108082436D01*
X117750404Y-107930009D01*
X117000000Y-107179605D01*
X116249596Y-107930009D01*
X115400353Y-107930009D01*
X115726439Y-107144706D01*
X115726711Y-106832690D01*
X115759079Y-106832690D01*
X115789512Y-107320306D01*
X115917564Y-107629454D01*
X116069991Y-107750404D01*
X116820395Y-107000000D01*
X117179605Y-107000000D01*
X117930009Y-107750404D01*
X118082436Y-107629454D01*
X118215346Y-107241885D01*
X123803165Y-107241885D01*
X123830689Y-107373000D01*
X124146400Y-107373000D01*
X124146400Y-107627000D01*
X123830689Y-107627000D01*
X123803165Y-107758115D01*
X123924783Y-108016612D01*
X124175478Y-108243718D01*
X124494000Y-108357600D01*
X125123000Y-108357600D01*
X125123000Y-108103600D01*
X125377000Y-108103600D01*
X125377000Y-108357600D01*
X126006000Y-108357600D01*
X126324522Y-108243718D01*
X126575217Y-108016612D01*
X126615962Y-107930009D01*
X134249596Y-107930009D01*
X134370546Y-108082436D01*
X134832690Y-108240921D01*
X135320306Y-108210488D01*
X135629454Y-108082436D01*
X135750404Y-107930009D01*
X135000000Y-107179605D01*
X134249596Y-107930009D01*
X126615962Y-107930009D01*
X126696835Y-107758115D01*
X126669311Y-107627000D01*
X126353600Y-107627000D01*
X126353600Y-107373000D01*
X126669311Y-107373000D01*
X126696835Y-107241885D01*
X126575217Y-106983388D01*
X126408867Y-106832690D01*
X133759079Y-106832690D01*
X133789512Y-107320306D01*
X133917564Y-107629454D01*
X134069991Y-107750404D01*
X134820395Y-107000000D01*
X135179605Y-107000000D01*
X135930009Y-107750404D01*
X136082436Y-107629454D01*
X136240921Y-107167310D01*
X136210488Y-106679694D01*
X136082436Y-106370546D01*
X135930009Y-106249596D01*
X135179605Y-107000000D01*
X134820395Y-107000000D01*
X134069991Y-106249596D01*
X133917564Y-106370546D01*
X133759079Y-106832690D01*
X126408867Y-106832690D01*
X126324522Y-106756282D01*
X126006000Y-106642400D01*
X125377000Y-106642400D01*
X125377000Y-106896400D01*
X125123000Y-106896400D01*
X125123000Y-106642400D01*
X124494000Y-106642400D01*
X124175478Y-106756282D01*
X123924783Y-106983388D01*
X123803165Y-107241885D01*
X118215346Y-107241885D01*
X118240921Y-107167310D01*
X118210488Y-106679694D01*
X118082436Y-106370546D01*
X117930009Y-106249596D01*
X117179605Y-107000000D01*
X116820395Y-107000000D01*
X116069991Y-106249596D01*
X115917564Y-106370546D01*
X115759079Y-106832690D01*
X115726711Y-106832690D01*
X115727376Y-106069991D01*
X116249596Y-106069991D01*
X117000000Y-106820395D01*
X117750404Y-106069991D01*
X134249596Y-106069991D01*
X135000000Y-106820395D01*
X135750404Y-106069991D01*
X135629454Y-105917564D01*
X135167310Y-105759079D01*
X134679694Y-105789512D01*
X134370546Y-105917564D01*
X134249596Y-106069991D01*
X117750404Y-106069991D01*
X117629454Y-105917564D01*
X117167310Y-105759079D01*
X116679694Y-105789512D01*
X116370546Y-105917564D01*
X116249596Y-106069991D01*
X115727376Y-106069991D01*
X115727559Y-105860926D01*
X115237313Y-104674439D01*
X114330336Y-103765877D01*
X113144706Y-103273561D01*
X111860926Y-103272441D01*
X110674439Y-103762687D01*
X109765877Y-104669664D01*
X109273561Y-105855294D01*
X109272441Y-107139074D01*
X109762687Y-108325561D01*
X110568139Y-109132420D01*
X107877002Y-109132420D01*
X107877002Y-109100317D01*
X107987673Y-109128766D01*
X108233161Y-108985383D01*
X108405092Y-108758970D01*
X108438746Y-108677670D01*
X108409330Y-108567000D01*
X107877000Y-108567000D01*
X107877000Y-108587000D01*
X107623000Y-108587000D01*
X107623000Y-108567000D01*
X107090670Y-108567000D01*
X107061254Y-108677670D01*
X107094908Y-108758970D01*
X107266839Y-108985383D01*
X107512327Y-109128766D01*
X107622998Y-109100317D01*
X107622998Y-109132420D01*
X92208250Y-109132420D01*
X91470409Y-108985655D01*
X90597564Y-108402438D01*
X90038880Y-107566309D01*
X90038880Y-107407670D01*
X107061254Y-107407670D01*
X107094908Y-107488970D01*
X107266839Y-107715383D01*
X107420273Y-107805000D01*
X107266839Y-107894617D01*
X107094908Y-108121030D01*
X107061254Y-108202330D01*
X107090670Y-108313000D01*
X107623000Y-108313000D01*
X107623000Y-107297000D01*
X107877000Y-107297000D01*
X107877000Y-108313000D01*
X108409330Y-108313000D01*
X108438746Y-108202330D01*
X108405092Y-108121030D01*
X108233161Y-107894617D01*
X108079727Y-107805000D01*
X108233161Y-107715383D01*
X108405092Y-107488970D01*
X108438746Y-107407670D01*
X108409330Y-107297000D01*
X107877000Y-107297000D01*
X107623000Y-107297000D01*
X107090670Y-107297000D01*
X107061254Y-107407670D01*
X90038880Y-107407670D01*
X90038880Y-104150000D01*
X91761536Y-104150000D01*
X91761536Y-105850000D01*
X91788103Y-105991190D01*
X91871546Y-106120865D01*
X91998866Y-106207859D01*
X92150000Y-106238464D01*
X93850000Y-106238464D01*
X93991190Y-106211897D01*
X94120865Y-106128454D01*
X94207859Y-106001134D01*
X94238464Y-105850000D01*
X94238464Y-105292995D01*
X94501944Y-105292995D01*
X94693086Y-105667939D01*
X95013163Y-105941195D01*
X95247007Y-106038043D01*
X95413000Y-106013524D01*
X95413000Y-105127000D01*
X95667000Y-105127000D01*
X95667000Y-106013524D01*
X95832993Y-106038043D01*
X96066837Y-105941195D01*
X96386914Y-105667939D01*
X96578056Y-105292995D01*
X96553960Y-105127000D01*
X95667000Y-105127000D01*
X95413000Y-105127000D01*
X94526040Y-105127000D01*
X94501944Y-105292995D01*
X94238464Y-105292995D01*
X94238464Y-104975883D01*
X96849000Y-104975883D01*
X96849000Y-105024117D01*
X96942704Y-105495200D01*
X97209552Y-105894565D01*
X97608917Y-106161413D01*
X98080000Y-106255117D01*
X98551083Y-106161413D01*
X98950448Y-105894565D01*
X99217296Y-105495200D01*
X99311000Y-105024117D01*
X99311000Y-104975883D01*
X99389000Y-104975883D01*
X99389000Y-105024117D01*
X99482704Y-105495200D01*
X99749552Y-105894565D01*
X100148917Y-106161413D01*
X100620000Y-106255117D01*
X101091083Y-106161413D01*
X101126616Y-106137670D01*
X107061254Y-106137670D01*
X107094908Y-106218970D01*
X107266839Y-106445383D01*
X107420273Y-106535000D01*
X107266839Y-106624617D01*
X107094908Y-106851030D01*
X107061254Y-106932330D01*
X107090670Y-107043000D01*
X107623000Y-107043000D01*
X107623000Y-106027000D01*
X107877000Y-106027000D01*
X107877000Y-107043000D01*
X108409330Y-107043000D01*
X108438746Y-106932330D01*
X108405092Y-106851030D01*
X108233161Y-106624617D01*
X108079727Y-106535000D01*
X108233161Y-106445383D01*
X108405092Y-106218970D01*
X108438746Y-106137670D01*
X108409330Y-106027000D01*
X107877000Y-106027000D01*
X107623000Y-106027000D01*
X107090670Y-106027000D01*
X107061254Y-106137670D01*
X101126616Y-106137670D01*
X101490448Y-105894565D01*
X101757296Y-105495200D01*
X101797516Y-105292995D01*
X102121944Y-105292995D01*
X102313086Y-105667939D01*
X102633163Y-105941195D01*
X102867007Y-106038043D01*
X103033000Y-106013524D01*
X103033000Y-105127000D01*
X103287000Y-105127000D01*
X103287000Y-106013524D01*
X103452993Y-106038043D01*
X103686837Y-105941195D01*
X104006914Y-105667939D01*
X104198056Y-105292995D01*
X104173960Y-105127000D01*
X103287000Y-105127000D01*
X103033000Y-105127000D01*
X102146040Y-105127000D01*
X102121944Y-105292995D01*
X101797516Y-105292995D01*
X101851000Y-105024117D01*
X101851000Y-104975883D01*
X101797517Y-104707005D01*
X102121944Y-104707005D01*
X102146040Y-104873000D01*
X103033000Y-104873000D01*
X103033000Y-103986476D01*
X103287000Y-103986476D01*
X103287000Y-104873000D01*
X104173960Y-104873000D01*
X104174733Y-104867670D01*
X107061254Y-104867670D01*
X107094908Y-104948970D01*
X107266839Y-105175383D01*
X107420273Y-105265000D01*
X107266839Y-105354617D01*
X107094908Y-105581030D01*
X107061254Y-105662330D01*
X107090670Y-105773000D01*
X107623000Y-105773000D01*
X107623000Y-104757000D01*
X107877000Y-104757000D01*
X107877000Y-105773000D01*
X108409330Y-105773000D01*
X108438746Y-105662330D01*
X108405092Y-105581030D01*
X108233161Y-105354617D01*
X108079727Y-105265000D01*
X108233161Y-105175383D01*
X108405092Y-104948970D01*
X108438746Y-104867670D01*
X108409330Y-104757000D01*
X107877000Y-104757000D01*
X107623000Y-104757000D01*
X107090670Y-104757000D01*
X107061254Y-104867670D01*
X104174733Y-104867670D01*
X104198056Y-104707005D01*
X104006914Y-104332061D01*
X103686837Y-104058805D01*
X103452993Y-103961957D01*
X103287000Y-103986476D01*
X103033000Y-103986476D01*
X102867007Y-103961957D01*
X102633163Y-104058805D01*
X102313086Y-104332061D01*
X102121944Y-104707005D01*
X101797517Y-104707005D01*
X101757296Y-104504800D01*
X101490448Y-104105435D01*
X101091083Y-103838587D01*
X100620000Y-103744883D01*
X100148917Y-103838587D01*
X99749552Y-104105435D01*
X99482704Y-104504800D01*
X99389000Y-104975883D01*
X99311000Y-104975883D01*
X99217296Y-104504800D01*
X98950448Y-104105435D01*
X98551083Y-103838587D01*
X98080000Y-103744883D01*
X97608917Y-103838587D01*
X97209552Y-104105435D01*
X96942704Y-104504800D01*
X96849000Y-104975883D01*
X94238464Y-104975883D01*
X94238464Y-104707005D01*
X94501944Y-104707005D01*
X94526040Y-104873000D01*
X95413000Y-104873000D01*
X95413000Y-103986476D01*
X95667000Y-103986476D01*
X95667000Y-104873000D01*
X96553960Y-104873000D01*
X96578056Y-104707005D01*
X96386914Y-104332061D01*
X96066837Y-104058805D01*
X95832993Y-103961957D01*
X95667000Y-103986476D01*
X95413000Y-103986476D01*
X95247007Y-103961957D01*
X95013163Y-104058805D01*
X94693086Y-104332061D01*
X94501944Y-104707005D01*
X94238464Y-104707005D01*
X94238464Y-104150000D01*
X94211897Y-104008810D01*
X94128454Y-103879135D01*
X94001134Y-103792141D01*
X93850000Y-103761536D01*
X92150000Y-103761536D01*
X92008810Y-103788103D01*
X91879135Y-103871546D01*
X91792141Y-103998866D01*
X91761536Y-104150000D01*
X90038880Y-104150000D01*
X90038880Y-103597670D01*
X107061254Y-103597670D01*
X107094908Y-103678970D01*
X107266839Y-103905383D01*
X107420273Y-103995000D01*
X107266839Y-104084617D01*
X107094908Y-104311030D01*
X107061254Y-104392330D01*
X107090670Y-104503000D01*
X107623000Y-104503000D01*
X107623000Y-103487000D01*
X107877000Y-103487000D01*
X107877000Y-104503000D01*
X108409330Y-104503000D01*
X108438746Y-104392330D01*
X108405092Y-104311030D01*
X108233161Y-104084617D01*
X108079727Y-103995000D01*
X108233161Y-103905383D01*
X108405092Y-103678970D01*
X108438746Y-103597670D01*
X108409330Y-103487000D01*
X107877000Y-103487000D01*
X107623000Y-103487000D01*
X107090670Y-103487000D01*
X107061254Y-103597670D01*
X90038880Y-103597670D01*
X90038880Y-102930009D01*
X91249596Y-102930009D01*
X91370546Y-103082436D01*
X91832690Y-103240921D01*
X92320306Y-103210488D01*
X92629454Y-103082436D01*
X92750404Y-102930009D01*
X92000000Y-102179605D01*
X91249596Y-102930009D01*
X90038880Y-102930009D01*
X90038880Y-101832690D01*
X90759079Y-101832690D01*
X90789512Y-102320306D01*
X90917564Y-102629454D01*
X91069991Y-102750404D01*
X91820395Y-102000000D01*
X92179605Y-102000000D01*
X92930009Y-102750404D01*
X93082436Y-102629454D01*
X93185928Y-102327670D01*
X107061254Y-102327670D01*
X107094908Y-102408970D01*
X107266839Y-102635383D01*
X107420273Y-102725000D01*
X107266839Y-102814617D01*
X107094908Y-103041030D01*
X107061254Y-103122330D01*
X107090670Y-103233000D01*
X107623000Y-103233000D01*
X107623000Y-102217000D01*
X107877000Y-102217000D01*
X107877000Y-103233000D01*
X108409330Y-103233000D01*
X108438746Y-103122330D01*
X108405092Y-103041030D01*
X108233161Y-102814617D01*
X108079727Y-102725000D01*
X108233161Y-102635383D01*
X108405092Y-102408970D01*
X108438746Y-102327670D01*
X108409330Y-102217000D01*
X107877000Y-102217000D01*
X107623000Y-102217000D01*
X107090670Y-102217000D01*
X107061254Y-102327670D01*
X93185928Y-102327670D01*
X93240921Y-102167310D01*
X93210488Y-101679694D01*
X93082436Y-101370546D01*
X92930009Y-101249596D01*
X92179605Y-102000000D01*
X91820395Y-102000000D01*
X91069991Y-101249596D01*
X90917564Y-101370546D01*
X90759079Y-101832690D01*
X90038880Y-101832690D01*
X90038880Y-101069991D01*
X91249596Y-101069991D01*
X92000000Y-101820395D01*
X92750404Y-101069991D01*
X92629454Y-100917564D01*
X92167310Y-100759079D01*
X91679694Y-100789512D01*
X91370546Y-100917564D01*
X91249596Y-101069991D01*
X90038880Y-101069991D01*
X90038880Y-99000000D01*
X93611536Y-99000000D01*
X93611536Y-101000000D01*
X93638103Y-101141190D01*
X93721546Y-101270865D01*
X93848866Y-101357859D01*
X94000000Y-101388464D01*
X96000000Y-101388464D01*
X96141190Y-101361897D01*
X96270865Y-101278454D01*
X96357859Y-101151134D01*
X96388464Y-101000000D01*
X96388464Y-100930379D01*
X96749226Y-100930379D01*
X96870238Y-101082859D01*
X97332568Y-101241431D01*
X97820388Y-101211006D01*
X98129762Y-101082859D01*
X98250774Y-100930379D01*
X97500000Y-100179605D01*
X96749226Y-100930379D01*
X96388464Y-100930379D01*
X96388464Y-100560530D01*
X96417141Y-100629762D01*
X96569621Y-100750774D01*
X97320395Y-100000000D01*
X97679605Y-100000000D01*
X98430379Y-100750774D01*
X98582859Y-100629762D01*
X98665913Y-100387610D01*
X98828563Y-100781251D01*
X99216705Y-101170072D01*
X99724097Y-101380759D01*
X100273493Y-101381239D01*
X100781251Y-101171437D01*
X100895217Y-101057670D01*
X107061254Y-101057670D01*
X107094908Y-101138970D01*
X107266839Y-101365383D01*
X107420273Y-101455000D01*
X107266839Y-101544617D01*
X107094908Y-101771030D01*
X107061254Y-101852330D01*
X107090670Y-101963000D01*
X107623000Y-101963000D01*
X107623000Y-100947000D01*
X107877000Y-100947000D01*
X107877000Y-101963000D01*
X108409330Y-101963000D01*
X108438746Y-101852330D01*
X108405092Y-101771030D01*
X108233161Y-101544617D01*
X108079727Y-101455000D01*
X108233161Y-101365383D01*
X108405092Y-101138970D01*
X108438746Y-101057670D01*
X108409330Y-100947000D01*
X107877000Y-100947000D01*
X107623000Y-100947000D01*
X107090670Y-100947000D01*
X107061254Y-101057670D01*
X100895217Y-101057670D01*
X101170072Y-100783295D01*
X101380759Y-100275903D01*
X101381185Y-99787670D01*
X107061254Y-99787670D01*
X107094908Y-99868970D01*
X107266839Y-100095383D01*
X107420273Y-100185000D01*
X107266839Y-100274617D01*
X107094908Y-100501030D01*
X107061254Y-100582330D01*
X107090670Y-100693000D01*
X107623000Y-100693000D01*
X107623000Y-99677000D01*
X107877000Y-99677000D01*
X107877000Y-100693000D01*
X108409330Y-100693000D01*
X108438746Y-100582330D01*
X108405092Y-100501030D01*
X108272324Y-100326190D01*
X109538926Y-100326190D01*
X109538926Y-102325170D01*
X109565493Y-102466360D01*
X109648936Y-102596035D01*
X109776256Y-102683029D01*
X109927390Y-102713634D01*
X111926370Y-102713634D01*
X112067560Y-102687067D01*
X112197235Y-102603624D01*
X112284229Y-102476304D01*
X112314834Y-102325170D01*
X112314834Y-102006680D01*
X116720620Y-102006680D01*
X116981228Y-101954842D01*
X116990954Y-101948343D01*
X117252763Y-102000420D01*
X117300997Y-102000420D01*
X117772080Y-101906716D01*
X118171445Y-101639868D01*
X118438293Y-101240503D01*
X118531997Y-100769420D01*
X118438293Y-100298337D01*
X118171445Y-99898972D01*
X117772080Y-99632124D01*
X117300997Y-99538420D01*
X117252763Y-99538420D01*
X116781680Y-99632124D01*
X116382315Y-99898972D01*
X116115467Y-100298337D01*
X116046575Y-100644680D01*
X112314834Y-100644680D01*
X112314834Y-100326190D01*
X112288267Y-100185000D01*
X112204824Y-100055325D01*
X112077504Y-99968331D01*
X111926370Y-99937726D01*
X109927390Y-99937726D01*
X109786200Y-99964293D01*
X109656525Y-100047736D01*
X109569531Y-100175056D01*
X109538926Y-100326190D01*
X108272324Y-100326190D01*
X108233161Y-100274617D01*
X108079727Y-100185000D01*
X108233161Y-100095383D01*
X108405092Y-99868970D01*
X108438746Y-99787670D01*
X108409330Y-99677000D01*
X107877000Y-99677000D01*
X107623000Y-99677000D01*
X107090670Y-99677000D01*
X107061254Y-99787670D01*
X101381185Y-99787670D01*
X101381239Y-99726507D01*
X101171437Y-99218749D01*
X100783295Y-98829928D01*
X100275903Y-98619241D01*
X99726507Y-98618761D01*
X99218749Y-98828563D01*
X98829928Y-99216705D01*
X98674404Y-99591248D01*
X98582859Y-99370238D01*
X98430379Y-99249226D01*
X97679605Y-100000000D01*
X97320395Y-100000000D01*
X96569621Y-99249226D01*
X96417141Y-99370238D01*
X96388464Y-99453848D01*
X96388464Y-99069621D01*
X96749226Y-99069621D01*
X97500000Y-99820395D01*
X98250774Y-99069621D01*
X98129762Y-98917141D01*
X97667432Y-98758569D01*
X97179612Y-98788994D01*
X96870238Y-98917141D01*
X96749226Y-99069621D01*
X96388464Y-99069621D01*
X96388464Y-99000000D01*
X96361897Y-98858810D01*
X96278454Y-98729135D01*
X96151134Y-98642141D01*
X96000000Y-98611536D01*
X94000000Y-98611536D01*
X93858810Y-98638103D01*
X93729135Y-98721546D01*
X93642141Y-98848866D01*
X93611536Y-99000000D01*
X90038880Y-99000000D01*
X90038880Y-98517670D01*
X107061254Y-98517670D01*
X107094908Y-98598970D01*
X107266839Y-98825383D01*
X107420273Y-98915000D01*
X107266839Y-99004617D01*
X107094908Y-99231030D01*
X107061254Y-99312330D01*
X107090670Y-99423000D01*
X107623000Y-99423000D01*
X107623000Y-98407000D01*
X107877000Y-98407000D01*
X107877000Y-99423000D01*
X108409330Y-99423000D01*
X108438746Y-99312330D01*
X108405092Y-99231030D01*
X108233161Y-99004617D01*
X108079727Y-98915000D01*
X108233161Y-98825383D01*
X108405092Y-98598970D01*
X108438746Y-98517670D01*
X108409330Y-98407000D01*
X107877000Y-98407000D01*
X107623000Y-98407000D01*
X107090670Y-98407000D01*
X107061254Y-98517670D01*
X90038880Y-98517670D01*
X90038880Y-98229420D01*
X116021763Y-98229420D01*
X116115467Y-98700503D01*
X116382315Y-99099868D01*
X116781680Y-99366716D01*
X117252763Y-99460420D01*
X117300997Y-99460420D01*
X117772080Y-99366716D01*
X118171445Y-99099868D01*
X118438293Y-98700503D01*
X118531997Y-98229420D01*
X118438293Y-97758337D01*
X118171445Y-97358972D01*
X117772080Y-97092124D01*
X117300997Y-96998420D01*
X117252763Y-96998420D01*
X116781680Y-97092124D01*
X116382315Y-97358972D01*
X116115467Y-97758337D01*
X116021763Y-98229420D01*
X90038880Y-98229420D01*
X90038880Y-97247670D01*
X107061254Y-97247670D01*
X107094908Y-97328970D01*
X107266839Y-97555383D01*
X107420273Y-97645000D01*
X107266839Y-97734617D01*
X107094908Y-97961030D01*
X107061254Y-98042330D01*
X107090670Y-98153000D01*
X107623000Y-98153000D01*
X107623000Y-97137000D01*
X107877000Y-97137000D01*
X107877000Y-98153000D01*
X108409330Y-98153000D01*
X108438746Y-98042330D01*
X108405092Y-97961030D01*
X108233161Y-97734617D01*
X108079727Y-97645000D01*
X108233161Y-97555383D01*
X108405092Y-97328970D01*
X108438746Y-97247670D01*
X108409330Y-97137000D01*
X107877000Y-97137000D01*
X107623000Y-97137000D01*
X107090670Y-97137000D01*
X107061254Y-97247670D01*
X90038880Y-97247670D01*
X90038880Y-95977670D01*
X107061254Y-95977670D01*
X107094908Y-96058970D01*
X107266839Y-96285383D01*
X107420273Y-96375000D01*
X107266839Y-96464617D01*
X107094908Y-96691030D01*
X107061254Y-96772330D01*
X107090670Y-96883000D01*
X107623000Y-96883000D01*
X107623000Y-95867000D01*
X107877000Y-95867000D01*
X107877000Y-96883000D01*
X108409330Y-96883000D01*
X108438746Y-96772330D01*
X108405092Y-96691030D01*
X108233161Y-96464617D01*
X108079727Y-96375000D01*
X108233161Y-96285383D01*
X108405092Y-96058970D01*
X108438746Y-95977670D01*
X108409330Y-95867000D01*
X107877000Y-95867000D01*
X107623000Y-95867000D01*
X107090670Y-95867000D01*
X107061254Y-95977670D01*
X90038880Y-95977670D01*
X90038880Y-95689420D01*
X116021763Y-95689420D01*
X116115467Y-96160503D01*
X116382315Y-96559868D01*
X116781680Y-96826716D01*
X117252763Y-96920420D01*
X117300997Y-96920420D01*
X117772080Y-96826716D01*
X118171445Y-96559868D01*
X118438293Y-96160503D01*
X118531997Y-95689420D01*
X118438293Y-95218337D01*
X118171445Y-94818972D01*
X117772080Y-94552124D01*
X117300997Y-94458420D01*
X117252763Y-94458420D01*
X116781680Y-94552124D01*
X116382315Y-94818972D01*
X116115467Y-95218337D01*
X116021763Y-95689420D01*
X90038880Y-95689420D01*
X90038880Y-94707670D01*
X107061254Y-94707670D01*
X107094908Y-94788970D01*
X107266839Y-95015383D01*
X107420273Y-95105000D01*
X107266839Y-95194617D01*
X107094908Y-95421030D01*
X107061254Y-95502330D01*
X107090670Y-95613000D01*
X107623000Y-95613000D01*
X107623000Y-94597000D01*
X107877000Y-94597000D01*
X107877000Y-95613000D01*
X108409330Y-95613000D01*
X108438746Y-95502330D01*
X108405092Y-95421030D01*
X108233161Y-95194617D01*
X108079727Y-95105000D01*
X108233161Y-95015383D01*
X108405092Y-94788970D01*
X108438746Y-94707670D01*
X108409330Y-94597000D01*
X107877000Y-94597000D01*
X107623000Y-94597000D01*
X107090670Y-94597000D01*
X107061254Y-94707670D01*
X90038880Y-94707670D01*
X90038880Y-93183278D01*
X90219611Y-93620680D01*
X90776389Y-94178431D01*
X91504226Y-94480655D01*
X92292316Y-94481343D01*
X93020680Y-94180389D01*
X93578431Y-93623611D01*
X93880655Y-92895774D01*
X93880658Y-92892316D01*
X101118657Y-92892316D01*
X101419611Y-93620680D01*
X101976389Y-94178431D01*
X102704226Y-94480655D01*
X103492316Y-94481343D01*
X104220680Y-94180389D01*
X104778431Y-93623611D01*
X104855640Y-93437670D01*
X107061254Y-93437670D01*
X107094908Y-93518970D01*
X107266839Y-93745383D01*
X107420273Y-93835000D01*
X107266839Y-93924617D01*
X107094908Y-94151030D01*
X107061254Y-94232330D01*
X107090670Y-94343000D01*
X107623000Y-94343000D01*
X107623000Y-93327000D01*
X107877000Y-93327000D01*
X107877000Y-94343000D01*
X108409330Y-94343000D01*
X108438746Y-94232330D01*
X108405092Y-94151030D01*
X108233161Y-93924617D01*
X108079727Y-93835000D01*
X108233161Y-93745383D01*
X108405092Y-93518970D01*
X108438746Y-93437670D01*
X108409330Y-93327000D01*
X107877000Y-93327000D01*
X107623000Y-93327000D01*
X107090670Y-93327000D01*
X107061254Y-93437670D01*
X104855640Y-93437670D01*
X104975331Y-93149420D01*
X116021763Y-93149420D01*
X116115467Y-93620503D01*
X116382315Y-94019868D01*
X116781680Y-94286716D01*
X117252763Y-94380420D01*
X117300997Y-94380420D01*
X117772080Y-94286716D01*
X118171445Y-94019868D01*
X118438293Y-93620503D01*
X118531997Y-93149420D01*
X118438293Y-92678337D01*
X118171445Y-92278972D01*
X117772080Y-92012124D01*
X117300997Y-91918420D01*
X117252763Y-91918420D01*
X116781680Y-92012124D01*
X116382315Y-92278972D01*
X116115467Y-92678337D01*
X116021763Y-93149420D01*
X104975331Y-93149420D01*
X105080655Y-92895774D01*
X105081290Y-92167670D01*
X107061254Y-92167670D01*
X107094908Y-92248970D01*
X107266839Y-92475383D01*
X107420273Y-92565000D01*
X107266839Y-92654617D01*
X107094908Y-92881030D01*
X107061254Y-92962330D01*
X107090670Y-93073000D01*
X107623000Y-93073000D01*
X107623000Y-92057000D01*
X107877000Y-92057000D01*
X107877000Y-93073000D01*
X108409330Y-93073000D01*
X108438746Y-92962330D01*
X108405092Y-92881030D01*
X108233161Y-92654617D01*
X108079727Y-92565000D01*
X108233161Y-92475383D01*
X108405092Y-92248970D01*
X108438746Y-92167670D01*
X108409330Y-92057000D01*
X107877000Y-92057000D01*
X107623000Y-92057000D01*
X107090670Y-92057000D01*
X107061254Y-92167670D01*
X105081290Y-92167670D01*
X105081343Y-92107684D01*
X104780389Y-91379320D01*
X104299580Y-90897670D01*
X107061254Y-90897670D01*
X107094908Y-90978970D01*
X107266839Y-91205383D01*
X107420273Y-91295000D01*
X107266839Y-91384617D01*
X107094908Y-91611030D01*
X107061254Y-91692330D01*
X107090670Y-91803000D01*
X107623000Y-91803000D01*
X107623000Y-90787000D01*
X107877000Y-90787000D01*
X107877000Y-91803000D01*
X108409330Y-91803000D01*
X108438746Y-91692330D01*
X108405092Y-91611030D01*
X108233161Y-91384617D01*
X108079727Y-91295000D01*
X108233161Y-91205383D01*
X108405092Y-90978970D01*
X108438746Y-90897670D01*
X108409330Y-90787000D01*
X107877000Y-90787000D01*
X107623000Y-90787000D01*
X107090670Y-90787000D01*
X107061254Y-90897670D01*
X104299580Y-90897670D01*
X104223611Y-90821569D01*
X103495774Y-90519345D01*
X102707684Y-90518657D01*
X101979320Y-90819611D01*
X101421569Y-91376389D01*
X101119345Y-92104226D01*
X101118657Y-92892316D01*
X93880658Y-92892316D01*
X93881343Y-92107684D01*
X93580389Y-91379320D01*
X93023611Y-90821569D01*
X92295774Y-90519345D01*
X91507684Y-90518657D01*
X90779320Y-90819611D01*
X90221569Y-91376389D01*
X90038880Y-91816353D01*
X90038880Y-89627670D01*
X107061254Y-89627670D01*
X107094908Y-89708970D01*
X107266839Y-89935383D01*
X107420273Y-90025000D01*
X107266839Y-90114617D01*
X107094908Y-90341030D01*
X107061254Y-90422330D01*
X107090670Y-90533000D01*
X107623000Y-90533000D01*
X107623000Y-89517000D01*
X107877000Y-89517000D01*
X107877000Y-90533000D01*
X108409330Y-90533000D01*
X108438746Y-90422330D01*
X108405092Y-90341030D01*
X108391910Y-90323670D01*
X109538926Y-90323670D01*
X109538926Y-92322650D01*
X109565493Y-92463840D01*
X109648936Y-92593515D01*
X109776256Y-92680509D01*
X109927390Y-92711114D01*
X111926370Y-92711114D01*
X112067560Y-92684547D01*
X112197235Y-92601104D01*
X112284229Y-92473784D01*
X112314834Y-92322650D01*
X112314834Y-90609420D01*
X116021763Y-90609420D01*
X116115467Y-91080503D01*
X116382315Y-91479868D01*
X116781680Y-91746716D01*
X117252763Y-91840420D01*
X117300997Y-91840420D01*
X117772080Y-91746716D01*
X118171445Y-91479868D01*
X118298031Y-91290420D01*
X118772800Y-91290420D01*
X119369000Y-91886620D01*
X119369000Y-98302543D01*
X119335822Y-98324712D01*
X119116882Y-98652380D01*
X119040000Y-99038890D01*
X119040000Y-100361110D01*
X119116882Y-100747620D01*
X119335822Y-101075288D01*
X119663490Y-101294228D01*
X120050000Y-101371110D01*
X120436510Y-101294228D01*
X120764178Y-101075288D01*
X120983118Y-100747620D01*
X121044528Y-100438890D01*
X121740000Y-100438890D01*
X121740000Y-101761110D01*
X121816882Y-102147620D01*
X122035822Y-102475288D01*
X122363490Y-102694228D01*
X122750000Y-102771110D01*
X123136510Y-102694228D01*
X123464178Y-102475288D01*
X123683118Y-102147620D01*
X123760000Y-101761110D01*
X123760000Y-100438890D01*
X123683118Y-100052380D01*
X123464178Y-99724712D01*
X123136510Y-99505772D01*
X122750000Y-99428890D01*
X122363490Y-99505772D01*
X122035822Y-99724712D01*
X121816882Y-100052380D01*
X121740000Y-100438890D01*
X121044528Y-100438890D01*
X121060000Y-100361110D01*
X121060000Y-99038890D01*
X120983118Y-98652380D01*
X120764178Y-98324712D01*
X120731000Y-98302543D01*
X120731000Y-97643929D01*
X120872661Y-97785837D01*
X121175957Y-97911777D01*
X121504362Y-97912063D01*
X121807878Y-97786653D01*
X121827145Y-97767420D01*
X122454340Y-97767420D01*
X128740000Y-104053080D01*
X128740000Y-104761110D01*
X128816882Y-105147620D01*
X129035822Y-105475288D01*
X129363490Y-105694228D01*
X129750000Y-105771110D01*
X130136510Y-105694228D01*
X130464178Y-105475288D01*
X130683118Y-105147620D01*
X130760000Y-104761110D01*
X130760000Y-103438890D01*
X130683118Y-103052380D01*
X130464178Y-102724712D01*
X130136510Y-102505772D01*
X129750000Y-102428890D01*
X129363490Y-102505772D01*
X129216840Y-102603760D01*
X123217960Y-96604880D01*
X123060996Y-96500000D01*
X127578890Y-96500000D01*
X127655772Y-96886510D01*
X127874712Y-97214178D01*
X128202380Y-97433118D01*
X128588890Y-97510000D01*
X129911110Y-97510000D01*
X130297620Y-97433118D01*
X130625288Y-97214178D01*
X130844228Y-96886510D01*
X130921110Y-96500000D01*
X130844228Y-96113490D01*
X130625288Y-95785822D01*
X130297620Y-95566882D01*
X129911110Y-95490000D01*
X128588890Y-95490000D01*
X128202380Y-95566882D01*
X127874712Y-95785822D01*
X127655772Y-96113490D01*
X127578890Y-96500000D01*
X123060996Y-96500000D01*
X122997028Y-96457258D01*
X122736420Y-96405420D01*
X122021880Y-96405420D01*
X122021880Y-90738836D01*
X122193791Y-90738836D01*
X122377007Y-91182252D01*
X122715964Y-91521801D01*
X122719000Y-91523062D01*
X122719000Y-94540743D01*
X122673463Y-94586201D01*
X122547523Y-94889497D01*
X122547237Y-95217902D01*
X122672647Y-95521418D01*
X122904661Y-95753837D01*
X123207957Y-95879777D01*
X123536362Y-95880063D01*
X123839878Y-95754653D01*
X124072297Y-95522639D01*
X124198237Y-95219343D01*
X124198523Y-94890938D01*
X124081000Y-94606510D01*
X124081000Y-91523510D01*
X124082252Y-91522993D01*
X124421801Y-91184036D01*
X124605790Y-90740941D01*
X124605791Y-90738836D01*
X125393791Y-90738836D01*
X125577007Y-91182252D01*
X125915964Y-91521801D01*
X126359059Y-91705790D01*
X126838836Y-91706209D01*
X127282252Y-91522993D01*
X127287442Y-91517812D01*
X129866151Y-91517812D01*
X130075875Y-92025383D01*
X130463874Y-92414060D01*
X130971079Y-92624669D01*
X131520272Y-92625149D01*
X132027843Y-92415425D01*
X132416520Y-92027426D01*
X132472678Y-91892182D01*
X132480880Y-91890551D01*
X132480880Y-101990580D01*
X132532718Y-102251188D01*
X132680340Y-102472120D01*
X138189758Y-107981537D01*
X138189760Y-107981540D01*
X138410693Y-108129162D01*
X138671300Y-108181000D01*
X143852543Y-108181000D01*
X143874712Y-108214178D01*
X144202380Y-108433118D01*
X144588890Y-108510000D01*
X145911110Y-108510000D01*
X146297620Y-108433118D01*
X146625288Y-108214178D01*
X146844228Y-107886510D01*
X146921110Y-107500000D01*
X158578890Y-107500000D01*
X158655772Y-107886510D01*
X158874712Y-108214178D01*
X159202380Y-108433118D01*
X159588890Y-108510000D01*
X160911110Y-108510000D01*
X161297620Y-108433118D01*
X161625288Y-108214178D01*
X161844228Y-107886510D01*
X161921110Y-107500000D01*
X161844228Y-107113490D01*
X161625288Y-106785822D01*
X161297620Y-106566882D01*
X160911110Y-106490000D01*
X159588890Y-106490000D01*
X159202380Y-106566882D01*
X158874712Y-106785822D01*
X158655772Y-107113490D01*
X158578890Y-107500000D01*
X146921110Y-107500000D01*
X146844228Y-107113490D01*
X146625288Y-106785822D01*
X146297620Y-106566882D01*
X145911110Y-106490000D01*
X144588890Y-106490000D01*
X144202380Y-106566882D01*
X143874712Y-106785822D01*
X143852543Y-106819000D01*
X138953379Y-106819000D01*
X133842880Y-101708500D01*
X133842880Y-100637508D01*
X134105435Y-101030448D01*
X134504800Y-101297296D01*
X134975883Y-101391000D01*
X135024117Y-101391000D01*
X135495200Y-101297296D01*
X135894565Y-101030448D01*
X136161413Y-100631083D01*
X136255117Y-100160000D01*
X136161413Y-99688917D01*
X135894565Y-99289552D01*
X135495200Y-99022704D01*
X135024117Y-98929000D01*
X134975883Y-98929000D01*
X134504800Y-99022704D01*
X134105435Y-99289552D01*
X133842880Y-99682492D01*
X133842880Y-98097508D01*
X134105435Y-98490448D01*
X134504800Y-98757296D01*
X134975883Y-98851000D01*
X135024117Y-98851000D01*
X135495200Y-98757296D01*
X135894565Y-98490448D01*
X136161413Y-98091083D01*
X136255117Y-97620000D01*
X136161413Y-97148917D01*
X135894565Y-96749552D01*
X135495200Y-96482704D01*
X135024117Y-96389000D01*
X134975883Y-96389000D01*
X134504800Y-96482704D01*
X134105435Y-96749552D01*
X133842880Y-97142492D01*
X133842880Y-95557508D01*
X134105435Y-95950448D01*
X134504800Y-96217296D01*
X134975883Y-96311000D01*
X135024117Y-96311000D01*
X135495200Y-96217296D01*
X135894565Y-95950448D01*
X136161413Y-95551083D01*
X136255117Y-95080000D01*
X136175213Y-94678292D01*
X139369000Y-97872079D01*
X139369000Y-98302543D01*
X139335822Y-98324712D01*
X139116882Y-98652380D01*
X139040000Y-99038890D01*
X139040000Y-100361110D01*
X139116882Y-100747620D01*
X139335822Y-101075288D01*
X139663490Y-101294228D01*
X140050000Y-101371110D01*
X140436510Y-101294228D01*
X140764178Y-101075288D01*
X140983118Y-100747620D01*
X141044528Y-100438890D01*
X141740000Y-100438890D01*
X141740000Y-101761110D01*
X141816882Y-102147620D01*
X142035822Y-102475288D01*
X142363490Y-102694228D01*
X142750000Y-102771110D01*
X143136510Y-102694228D01*
X143464178Y-102475288D01*
X143683118Y-102147620D01*
X143760000Y-101761110D01*
X143760000Y-100438890D01*
X143683118Y-100052380D01*
X143464178Y-99724712D01*
X143136510Y-99505772D01*
X142750000Y-99428890D01*
X142363490Y-99505772D01*
X142035822Y-99724712D01*
X141816882Y-100052380D01*
X141740000Y-100438890D01*
X141044528Y-100438890D01*
X141060000Y-100361110D01*
X141060000Y-99038890D01*
X140983118Y-98652380D01*
X140764178Y-98324712D01*
X140731000Y-98302543D01*
X140731000Y-97590000D01*
X140679162Y-97329393D01*
X140531540Y-97108460D01*
X140531537Y-97108458D01*
X136359730Y-92936650D01*
X137316417Y-91979962D01*
X137316420Y-91979960D01*
X137464042Y-91759027D01*
X137466491Y-91746716D01*
X137515881Y-91498420D01*
X137515880Y-91498415D01*
X137515880Y-86226278D01*
X137546150Y-86299537D01*
X137948345Y-86702435D01*
X138474108Y-86920751D01*
X138872462Y-86921099D01*
X138838745Y-87090607D01*
X138820880Y-87180420D01*
X138820880Y-92545956D01*
X138651880Y-92545956D01*
X138510690Y-92572523D01*
X138381015Y-92655966D01*
X138294021Y-92783286D01*
X138263416Y-92934420D01*
X138263416Y-94634420D01*
X138289983Y-94775610D01*
X138373426Y-94905285D01*
X138500746Y-94992279D01*
X138651880Y-95022884D01*
X140351880Y-95022884D01*
X140493070Y-94996317D01*
X140622745Y-94912874D01*
X140709739Y-94785554D01*
X140740344Y-94634420D01*
X140740344Y-93249844D01*
X140770838Y-93403148D01*
X140803416Y-93451904D01*
X140803416Y-94634420D01*
X140829983Y-94775610D01*
X140913426Y-94905285D01*
X141040746Y-94992279D01*
X141191880Y-95022884D01*
X142891880Y-95022884D01*
X143033070Y-94996317D01*
X143162745Y-94912874D01*
X143249739Y-94785554D01*
X143280344Y-94634420D01*
X143280344Y-92934420D01*
X143253777Y-92793230D01*
X143170334Y-92663555D01*
X143043014Y-92576561D01*
X142891880Y-92545956D01*
X142081000Y-92545956D01*
X142081000Y-90738836D01*
X142193791Y-90738836D01*
X142377007Y-91182252D01*
X142715964Y-91521801D01*
X143159059Y-91705790D01*
X143638836Y-91706209D01*
X144082252Y-91522993D01*
X144421801Y-91184036D01*
X144605790Y-90740941D01*
X144605791Y-90738836D01*
X145393791Y-90738836D01*
X145577007Y-91182252D01*
X145915964Y-91521801D01*
X146212386Y-91644886D01*
X150093849Y-95526349D01*
X149911110Y-95490000D01*
X148588890Y-95490000D01*
X148202380Y-95566882D01*
X147874712Y-95785822D01*
X147655772Y-96113490D01*
X147578890Y-96500000D01*
X147655772Y-96886510D01*
X147874712Y-97214178D01*
X148202380Y-97433118D01*
X148588890Y-97510000D01*
X149911110Y-97510000D01*
X150297620Y-97433118D01*
X150625288Y-97214178D01*
X150844228Y-96886510D01*
X150885880Y-96677112D01*
X150885880Y-103230040D01*
X150746234Y-103369686D01*
X150683118Y-103052380D01*
X150464178Y-102724712D01*
X150136510Y-102505772D01*
X149750000Y-102428890D01*
X149363490Y-102505772D01*
X149035822Y-102724712D01*
X148816882Y-103052380D01*
X148740000Y-103438890D01*
X148740000Y-104761110D01*
X148816882Y-105147620D01*
X149035822Y-105475288D01*
X149363490Y-105694228D01*
X149750000Y-105771110D01*
X150136510Y-105694228D01*
X150464178Y-105475288D01*
X150499181Y-105422902D01*
X154586237Y-105422902D01*
X154711647Y-105726418D01*
X154943661Y-105958837D01*
X155246957Y-106084777D01*
X155575362Y-106085063D01*
X155878878Y-105959653D01*
X155898145Y-105940420D01*
X163661880Y-105940420D01*
X163922488Y-105888582D01*
X164143420Y-105740960D01*
X164259581Y-105624799D01*
X164363490Y-105694228D01*
X164750000Y-105771110D01*
X165136510Y-105694228D01*
X165464178Y-105475288D01*
X165683118Y-105147620D01*
X165760000Y-104761110D01*
X165760000Y-103438890D01*
X165683118Y-103052380D01*
X165464178Y-102724712D01*
X165136510Y-102505772D01*
X164750000Y-102428890D01*
X164363490Y-102505772D01*
X164035822Y-102724712D01*
X163816882Y-103052380D01*
X163740000Y-103438890D01*
X163740000Y-104218220D01*
X163379800Y-104578420D01*
X155898484Y-104578420D01*
X155880099Y-104560003D01*
X155576803Y-104434063D01*
X155248398Y-104433777D01*
X154944882Y-104559187D01*
X154712463Y-104791201D01*
X154586523Y-105094497D01*
X154586237Y-105422902D01*
X150499181Y-105422902D01*
X150683118Y-105147620D01*
X150756044Y-104781000D01*
X150979000Y-104781000D01*
X151239608Y-104729162D01*
X151460540Y-104581540D01*
X152048420Y-103993660D01*
X152196042Y-103772728D01*
X152247880Y-103512120D01*
X152247880Y-96036300D01*
X152225324Y-95922902D01*
X152196042Y-95775692D01*
X152048420Y-95554760D01*
X150423669Y-93930009D01*
X152249596Y-93930009D01*
X152370546Y-94082436D01*
X152832690Y-94240921D01*
X153320306Y-94210488D01*
X153629454Y-94082436D01*
X153750404Y-93930009D01*
X153000000Y-93179605D01*
X152249596Y-93930009D01*
X150423669Y-93930009D01*
X149326350Y-92832690D01*
X151759079Y-92832690D01*
X151789512Y-93320306D01*
X151917564Y-93629454D01*
X152069991Y-93750404D01*
X152820395Y-93000000D01*
X153179605Y-93000000D01*
X153930009Y-93750404D01*
X154082436Y-93629454D01*
X154240921Y-93167310D01*
X154210488Y-92679694D01*
X154082436Y-92370546D01*
X153930009Y-92249596D01*
X153179605Y-93000000D01*
X152820395Y-93000000D01*
X152069991Y-92249596D01*
X151917564Y-92370546D01*
X151759079Y-92832690D01*
X149326350Y-92832690D01*
X148563651Y-92069991D01*
X152249596Y-92069991D01*
X153000000Y-92820395D01*
X153750404Y-92069991D01*
X153629454Y-91917564D01*
X153167310Y-91759079D01*
X152679694Y-91789512D01*
X152370546Y-91917564D01*
X152249596Y-92069991D01*
X148563651Y-92069991D01*
X147638201Y-91144541D01*
X147805790Y-90740941D01*
X147805849Y-90672902D01*
X152836237Y-90672902D01*
X152961647Y-90976418D01*
X153193661Y-91208837D01*
X153496957Y-91334777D01*
X153524181Y-91334801D01*
X154930340Y-92740960D01*
X155151272Y-92888582D01*
X155411880Y-92940421D01*
X155411885Y-92940420D01*
X155775212Y-92940420D01*
X155674643Y-93182617D01*
X155674357Y-93511022D01*
X155799767Y-93814538D01*
X156031781Y-94046957D01*
X156335077Y-94172897D01*
X156663482Y-94173183D01*
X156966998Y-94047773D01*
X156986265Y-94028540D01*
X167652460Y-94028540D01*
X167913068Y-93976702D01*
X168134000Y-93829080D01*
X168983499Y-92979581D01*
X168750467Y-93328337D01*
X168656763Y-93799420D01*
X168705215Y-94043006D01*
X165809024Y-96939196D01*
X165844228Y-96886510D01*
X165921110Y-96500000D01*
X165844228Y-96113490D01*
X165625288Y-95785822D01*
X165297620Y-95566882D01*
X164911110Y-95490000D01*
X163588890Y-95490000D01*
X163202380Y-95566882D01*
X162874712Y-95785822D01*
X162655772Y-96113490D01*
X162578890Y-96500000D01*
X162655772Y-96886510D01*
X162874712Y-97214178D01*
X163202380Y-97433118D01*
X163588890Y-97510000D01*
X164911110Y-97510000D01*
X165297620Y-97433118D01*
X165350306Y-97397914D01*
X160398297Y-102349923D01*
X160277750Y-102430470D01*
X160129800Y-102578420D01*
X158309830Y-102578420D01*
X158464178Y-102475288D01*
X158683118Y-102147620D01*
X158760000Y-101761110D01*
X158760000Y-101053080D01*
X160143417Y-99669662D01*
X160143420Y-99669660D01*
X160291042Y-99448727D01*
X160294988Y-99428890D01*
X160342881Y-99188120D01*
X160342880Y-99188115D01*
X160342880Y-96246024D01*
X160361297Y-96227639D01*
X160487237Y-95924343D01*
X160487523Y-95595938D01*
X160362113Y-95292422D01*
X160130099Y-95060003D01*
X159826803Y-94934063D01*
X159498398Y-94933777D01*
X159194882Y-95059187D01*
X158962463Y-95291201D01*
X158836523Y-95594497D01*
X158836237Y-95922902D01*
X158961647Y-96226418D01*
X158980880Y-96245685D01*
X158980880Y-98906041D01*
X158283160Y-99603760D01*
X158136510Y-99505772D01*
X157750000Y-99428890D01*
X157363490Y-99505772D01*
X157035822Y-99724712D01*
X156816882Y-100052380D01*
X156740000Y-100438890D01*
X156740000Y-101761110D01*
X156816882Y-102147620D01*
X157035822Y-102475288D01*
X157190170Y-102578420D01*
X157033500Y-102578420D01*
X155731000Y-101275920D01*
X155731000Y-101097457D01*
X155764178Y-101075288D01*
X155983118Y-100747620D01*
X156060000Y-100361110D01*
X156060000Y-99038890D01*
X155983118Y-98652380D01*
X155764178Y-98324712D01*
X155436510Y-98105772D01*
X155050000Y-98028890D01*
X154663490Y-98105772D01*
X154335822Y-98324712D01*
X154116882Y-98652380D01*
X154040000Y-99038890D01*
X154040000Y-100361110D01*
X154116882Y-100747620D01*
X154335822Y-101075288D01*
X154369000Y-101097457D01*
X154369000Y-101558000D01*
X154420838Y-101818608D01*
X154568460Y-102039540D01*
X156269880Y-103740960D01*
X156490812Y-103888582D01*
X156751420Y-103940420D01*
X160411880Y-103940420D01*
X160672488Y-103888582D01*
X160893420Y-103740960D01*
X161160283Y-103474097D01*
X161280830Y-103393550D01*
X163254960Y-101419420D01*
X168656763Y-101419420D01*
X168750467Y-101890503D01*
X169017315Y-102289868D01*
X169416680Y-102556716D01*
X169887763Y-102650420D01*
X169935997Y-102650420D01*
X170407080Y-102556716D01*
X170806445Y-102289868D01*
X171073293Y-101890503D01*
X171166997Y-101419420D01*
X171073293Y-100948337D01*
X170806445Y-100548972D01*
X170407080Y-100282124D01*
X169935997Y-100188420D01*
X169887763Y-100188420D01*
X169416680Y-100282124D01*
X169017315Y-100548972D01*
X168750467Y-100948337D01*
X168656763Y-101419420D01*
X163254960Y-101419420D01*
X168736668Y-95937712D01*
X168656763Y-96339420D01*
X168750467Y-96810503D01*
X169017315Y-97209868D01*
X169416680Y-97476716D01*
X169887763Y-97570420D01*
X169935997Y-97570420D01*
X170407080Y-97476716D01*
X170806445Y-97209868D01*
X171073293Y-96810503D01*
X171166997Y-96339420D01*
X171073293Y-95868337D01*
X170806445Y-95468972D01*
X170407080Y-95202124D01*
X169935997Y-95108420D01*
X169887763Y-95108420D01*
X169486055Y-95188325D01*
X169684409Y-94989970D01*
X169887763Y-95030420D01*
X169935997Y-95030420D01*
X170407080Y-94936716D01*
X170806445Y-94669868D01*
X171073293Y-94270503D01*
X171166997Y-93799420D01*
X171073293Y-93328337D01*
X170806445Y-92928972D01*
X170407080Y-92662124D01*
X169935997Y-92568420D01*
X169887763Y-92568420D01*
X169416680Y-92662124D01*
X169067924Y-92895156D01*
X169724616Y-92238464D01*
X170850000Y-92238464D01*
X170991190Y-92211897D01*
X171120865Y-92128454D01*
X171207859Y-92001134D01*
X171230880Y-91887451D01*
X171230880Y-98097340D01*
X171129800Y-98198420D01*
X170933031Y-98198420D01*
X170806445Y-98008972D01*
X170407080Y-97742124D01*
X169935997Y-97648420D01*
X169887763Y-97648420D01*
X169416680Y-97742124D01*
X169017315Y-98008972D01*
X168750467Y-98408337D01*
X168656763Y-98879420D01*
X168750467Y-99350503D01*
X169017315Y-99749868D01*
X169416680Y-100016716D01*
X169887763Y-100110420D01*
X169935997Y-100110420D01*
X170407080Y-100016716D01*
X170806445Y-99749868D01*
X170933031Y-99560420D01*
X171411880Y-99560420D01*
X171672488Y-99508582D01*
X171893420Y-99360960D01*
X172393420Y-98860960D01*
X172541042Y-98640028D01*
X172592881Y-98379420D01*
X172592880Y-98379415D01*
X172592880Y-89964683D01*
X172592881Y-89964678D01*
X172541042Y-89704071D01*
X172527482Y-89683777D01*
X172393420Y-89483138D01*
X172393417Y-89483136D01*
X171524741Y-88614459D01*
X171350274Y-88497884D01*
X171761880Y-88497884D01*
X171903070Y-88471317D01*
X172032745Y-88387874D01*
X172119739Y-88260554D01*
X172150344Y-88109420D01*
X172150344Y-86409420D01*
X172123777Y-86268230D01*
X172040334Y-86138555D01*
X171913014Y-86051561D01*
X171761880Y-86020956D01*
X170061880Y-86020956D01*
X169920690Y-86047523D01*
X169791015Y-86130966D01*
X169704021Y-86258286D01*
X169673416Y-86409420D01*
X169673416Y-88097876D01*
X169437472Y-87861932D01*
X169509176Y-87754620D01*
X169602880Y-87283537D01*
X169602880Y-87235303D01*
X169509176Y-86764220D01*
X169242328Y-86364855D01*
X168842963Y-86098007D01*
X168371880Y-86004303D01*
X167900797Y-86098007D01*
X167501432Y-86364855D01*
X167234584Y-86764220D01*
X167140880Y-87235303D01*
X167140880Y-87283537D01*
X167181329Y-87486891D01*
X163089800Y-91578420D01*
X155693960Y-91578420D01*
X154487500Y-90371960D01*
X154487523Y-90345938D01*
X154362113Y-90042422D01*
X154130099Y-89810003D01*
X153826803Y-89684063D01*
X153498398Y-89683777D01*
X153194882Y-89809187D01*
X152962463Y-90041201D01*
X152836523Y-90344497D01*
X152836237Y-90672902D01*
X147805849Y-90672902D01*
X147806209Y-90261164D01*
X147622993Y-89817748D01*
X147284036Y-89478199D01*
X146840941Y-89294210D01*
X146361164Y-89293791D01*
X145917748Y-89477007D01*
X145578199Y-89815964D01*
X145394210Y-90259059D01*
X145393791Y-90738836D01*
X144605791Y-90738836D01*
X144606209Y-90261164D01*
X144422993Y-89817748D01*
X144084036Y-89478199D01*
X143640941Y-89294210D01*
X143161164Y-89293791D01*
X142717748Y-89477007D01*
X142378199Y-89815964D01*
X142194210Y-90259059D01*
X142193791Y-90738836D01*
X142081000Y-90738836D01*
X142081000Y-88423510D01*
X142082252Y-88422993D01*
X142421801Y-88084036D01*
X142605790Y-87640941D01*
X142605839Y-87584375D01*
X144068839Y-87584375D01*
X144210277Y-87926680D01*
X144471943Y-88188803D01*
X144814000Y-88330838D01*
X145184375Y-88331161D01*
X145526680Y-88189723D01*
X145788803Y-87928057D01*
X145930838Y-87586000D01*
X145931161Y-87215625D01*
X145789723Y-86873320D01*
X145528057Y-86611197D01*
X145186000Y-86469162D01*
X144815625Y-86468839D01*
X144473320Y-86610277D01*
X144211197Y-86871943D01*
X144069162Y-87214000D01*
X144068839Y-87584375D01*
X142605839Y-87584375D01*
X142606209Y-87161164D01*
X142422993Y-86717748D01*
X142084036Y-86378199D01*
X141711482Y-86223501D01*
X155418813Y-86223501D01*
X155583038Y-86620957D01*
X155886863Y-86925313D01*
X156284032Y-87090232D01*
X156714081Y-87090607D01*
X157111537Y-86926382D01*
X157415893Y-86622557D01*
X157580812Y-86225388D01*
X157581187Y-85795339D01*
X157416962Y-85397883D01*
X157113137Y-85093527D01*
X156719342Y-84930009D01*
X165249596Y-84930009D01*
X165370546Y-85082436D01*
X165832690Y-85240921D01*
X166320306Y-85210488D01*
X166629454Y-85082436D01*
X166750404Y-84930009D01*
X166000000Y-84179605D01*
X165249596Y-84930009D01*
X156719342Y-84930009D01*
X156715968Y-84928608D01*
X156285919Y-84928233D01*
X155888463Y-85092458D01*
X155584107Y-85396283D01*
X155419188Y-85793452D01*
X155418813Y-86223501D01*
X141711482Y-86223501D01*
X141640941Y-86194210D01*
X141178712Y-86193806D01*
X141181001Y-86182300D01*
X141181000Y-86182295D01*
X141181000Y-83832690D01*
X164759079Y-83832690D01*
X164789512Y-84320306D01*
X164917564Y-84629454D01*
X165069991Y-84750404D01*
X165820395Y-84000000D01*
X166179605Y-84000000D01*
X166930009Y-84750404D01*
X167082436Y-84629454D01*
X167240921Y-84167310D01*
X167210488Y-83679694D01*
X167082436Y-83370546D01*
X166930009Y-83249596D01*
X166179605Y-84000000D01*
X165820395Y-84000000D01*
X165069991Y-83249596D01*
X164917564Y-83370546D01*
X164759079Y-83832690D01*
X141181000Y-83832690D01*
X141181000Y-83423510D01*
X141182252Y-83422993D01*
X141521801Y-83084036D01*
X141705790Y-82640941D01*
X141705839Y-82584375D01*
X144068839Y-82584375D01*
X144210277Y-82926680D01*
X144471943Y-83188803D01*
X144814000Y-83330838D01*
X145184375Y-83331161D01*
X145526680Y-83189723D01*
X145788803Y-82928057D01*
X145930838Y-82586000D01*
X145931161Y-82215625D01*
X145789723Y-81873320D01*
X145528057Y-81611197D01*
X145440886Y-81575000D01*
X148586536Y-81575000D01*
X148586536Y-83225000D01*
X148613103Y-83366190D01*
X148696546Y-83495865D01*
X148823866Y-83582859D01*
X148975000Y-83613464D01*
X150625000Y-83613464D01*
X150766190Y-83586897D01*
X150895865Y-83503454D01*
X150982859Y-83376134D01*
X151013464Y-83225000D01*
X151013464Y-83069991D01*
X165249596Y-83069991D01*
X166000000Y-83820395D01*
X166750404Y-83069991D01*
X166629454Y-82917564D01*
X166167310Y-82759079D01*
X165679694Y-82789512D01*
X165370546Y-82917564D01*
X165249596Y-83069991D01*
X151013464Y-83069991D01*
X151013464Y-81723501D01*
X155418813Y-81723501D01*
X155583038Y-82120957D01*
X155886863Y-82425313D01*
X156284032Y-82590232D01*
X156714081Y-82590607D01*
X157111537Y-82426382D01*
X157415893Y-82122557D01*
X157580812Y-81725388D01*
X157581187Y-81295339D01*
X157416962Y-80897883D01*
X157113137Y-80593527D01*
X156715968Y-80428608D01*
X156285919Y-80428233D01*
X155888463Y-80592458D01*
X155584107Y-80896283D01*
X155419188Y-81293452D01*
X155418813Y-81723501D01*
X151013464Y-81723501D01*
X151013464Y-81575000D01*
X150986897Y-81433810D01*
X150903454Y-81304135D01*
X150776134Y-81217141D01*
X150625000Y-81186536D01*
X148975000Y-81186536D01*
X148833810Y-81213103D01*
X148704135Y-81296546D01*
X148617141Y-81423866D01*
X148586536Y-81575000D01*
X145440886Y-81575000D01*
X145186000Y-81469162D01*
X144815625Y-81468839D01*
X144473320Y-81610277D01*
X144211197Y-81871943D01*
X144069162Y-82214000D01*
X144068839Y-82584375D01*
X141705839Y-82584375D01*
X141706209Y-82161164D01*
X141522993Y-81717748D01*
X141184036Y-81378199D01*
X140740941Y-81194210D01*
X140261164Y-81193791D01*
X139817748Y-81377007D01*
X139478199Y-81715964D01*
X139294210Y-82159059D01*
X139293791Y-82638836D01*
X139477007Y-83082252D01*
X139815964Y-83421801D01*
X139819000Y-83423062D01*
X139819000Y-84525342D01*
X139571655Y-84277565D01*
X139045892Y-84059249D01*
X138476605Y-84058752D01*
X137950463Y-84276150D01*
X137547565Y-84678345D01*
X137515880Y-84754651D01*
X137515880Y-84256014D01*
X137748738Y-84256217D01*
X138210537Y-84065405D01*
X138564164Y-83712396D01*
X138755781Y-83250930D01*
X138756217Y-82751262D01*
X138565405Y-82289463D01*
X138212396Y-81935836D01*
X137750930Y-81744219D01*
X137251262Y-81743783D01*
X136789463Y-81934595D01*
X136435836Y-82287604D01*
X136244219Y-82749070D01*
X136243783Y-83248738D01*
X136269009Y-83309790D01*
X136205718Y-83404512D01*
X136165681Y-83605790D01*
X136153880Y-83665120D01*
X136153880Y-88918648D01*
X136128454Y-88879135D01*
X136001134Y-88792141D01*
X135850000Y-88761536D01*
X134150000Y-88761536D01*
X134008810Y-88788103D01*
X133879135Y-88871546D01*
X133792141Y-88998866D01*
X133761536Y-89150000D01*
X133761536Y-89319000D01*
X133550005Y-89319000D01*
X133550000Y-89318999D01*
X133289393Y-89370838D01*
X133068460Y-89518460D01*
X133068458Y-89518463D01*
X132680340Y-89906580D01*
X132270803Y-90316117D01*
X132029886Y-90074780D01*
X131522681Y-89864171D01*
X130973488Y-89863691D01*
X130465917Y-90073415D01*
X130077240Y-90461414D01*
X129866631Y-90968619D01*
X129866151Y-91517812D01*
X127287442Y-91517812D01*
X127621801Y-91184036D01*
X127805790Y-90740941D01*
X127806209Y-90261164D01*
X127622993Y-89817748D01*
X127284036Y-89478199D01*
X126840941Y-89294210D01*
X126361164Y-89293791D01*
X125917748Y-89477007D01*
X125578199Y-89815964D01*
X125394210Y-90259059D01*
X125393791Y-90738836D01*
X124605791Y-90738836D01*
X124606209Y-90261164D01*
X124422993Y-89817748D01*
X124084036Y-89478199D01*
X123640941Y-89294210D01*
X123161164Y-89293791D01*
X122717748Y-89477007D01*
X122378199Y-89815964D01*
X122194210Y-90259059D01*
X122193791Y-90738836D01*
X122021880Y-90738836D01*
X122021880Y-89189429D01*
X131161476Y-89189429D01*
X131282426Y-89341856D01*
X131744570Y-89500341D01*
X132232186Y-89469908D01*
X132541334Y-89341856D01*
X132662284Y-89189429D01*
X131911880Y-88439025D01*
X131161476Y-89189429D01*
X122021880Y-89189429D01*
X122021880Y-88447938D01*
X122082252Y-88422993D01*
X122421801Y-88084036D01*
X122605790Y-87640941D01*
X122605839Y-87584375D01*
X124068839Y-87584375D01*
X124210277Y-87926680D01*
X124471943Y-88188803D01*
X124814000Y-88330838D01*
X125184375Y-88331161D01*
X125526680Y-88189723D01*
X125624463Y-88092110D01*
X130670959Y-88092110D01*
X130701392Y-88579726D01*
X130829444Y-88888874D01*
X130981871Y-89009824D01*
X131732275Y-88259420D01*
X132091485Y-88259420D01*
X132841889Y-89009824D01*
X132994316Y-88888874D01*
X133152801Y-88426730D01*
X133122368Y-87939114D01*
X132994316Y-87629966D01*
X132841889Y-87509016D01*
X132091485Y-88259420D01*
X131732275Y-88259420D01*
X130981871Y-87509016D01*
X130829444Y-87629966D01*
X130670959Y-88092110D01*
X125624463Y-88092110D01*
X125788803Y-87928057D01*
X125930838Y-87586000D01*
X125931061Y-87329411D01*
X131161476Y-87329411D01*
X131911880Y-88079815D01*
X132662284Y-87329411D01*
X132541334Y-87176984D01*
X132079190Y-87018499D01*
X131591574Y-87048932D01*
X131282426Y-87176984D01*
X131161476Y-87329411D01*
X125931061Y-87329411D01*
X125931161Y-87215625D01*
X125789723Y-86873320D01*
X125528057Y-86611197D01*
X125186000Y-86469162D01*
X124815625Y-86468839D01*
X124473320Y-86610277D01*
X124211197Y-86871943D01*
X124069162Y-87214000D01*
X124068839Y-87584375D01*
X122605839Y-87584375D01*
X122606209Y-87161164D01*
X122422993Y-86717748D01*
X122084036Y-86378199D01*
X121640941Y-86194210D01*
X121161164Y-86193791D01*
X120717748Y-86377007D01*
X120378199Y-86715964D01*
X120194210Y-87159059D01*
X120193791Y-87638836D01*
X120377007Y-88082252D01*
X120659880Y-88365619D01*
X120659880Y-91315074D01*
X120531540Y-91123000D01*
X119536420Y-90127880D01*
X119315488Y-89980258D01*
X119054880Y-89928420D01*
X118298031Y-89928420D01*
X118171445Y-89738972D01*
X117772080Y-89472124D01*
X117300997Y-89378420D01*
X117252763Y-89378420D01*
X116781680Y-89472124D01*
X116382315Y-89738972D01*
X116115467Y-90138337D01*
X116021763Y-90609420D01*
X112314834Y-90609420D01*
X112314834Y-90323670D01*
X112288267Y-90182480D01*
X112204824Y-90052805D01*
X112077504Y-89965811D01*
X111926370Y-89935206D01*
X109927390Y-89935206D01*
X109786200Y-89961773D01*
X109656525Y-90045216D01*
X109569531Y-90172536D01*
X109538926Y-90323670D01*
X108391910Y-90323670D01*
X108233161Y-90114617D01*
X108079727Y-90025000D01*
X108233161Y-89935383D01*
X108405092Y-89708970D01*
X108438746Y-89627670D01*
X108409330Y-89517000D01*
X107877000Y-89517000D01*
X107623000Y-89517000D01*
X107090670Y-89517000D01*
X107061254Y-89627670D01*
X90038880Y-89627670D01*
X90038880Y-88357670D01*
X107061254Y-88357670D01*
X107094908Y-88438970D01*
X107266839Y-88665383D01*
X107420273Y-88755000D01*
X107266839Y-88844617D01*
X107094908Y-89071030D01*
X107061254Y-89152330D01*
X107090670Y-89263000D01*
X107623000Y-89263000D01*
X107623000Y-88247000D01*
X107877000Y-88247000D01*
X107877000Y-89263000D01*
X108409330Y-89263000D01*
X108438746Y-89152330D01*
X108405092Y-89071030D01*
X108233161Y-88844617D01*
X108079727Y-88755000D01*
X108233161Y-88665383D01*
X108405092Y-88438970D01*
X108438746Y-88357670D01*
X108409330Y-88247000D01*
X107877000Y-88247000D01*
X107623000Y-88247000D01*
X107090670Y-88247000D01*
X107061254Y-88357670D01*
X90038880Y-88357670D01*
X90038880Y-87087670D01*
X107061254Y-87087670D01*
X107094908Y-87168970D01*
X107266839Y-87395383D01*
X107420273Y-87485000D01*
X107266839Y-87574617D01*
X107094908Y-87801030D01*
X107061254Y-87882330D01*
X107090670Y-87993000D01*
X107623000Y-87993000D01*
X107623000Y-86977000D01*
X107877000Y-86977000D01*
X107877000Y-87993000D01*
X108409330Y-87993000D01*
X108438746Y-87882330D01*
X108405092Y-87801030D01*
X108233161Y-87574617D01*
X108079727Y-87485000D01*
X108233161Y-87395383D01*
X108323314Y-87276661D01*
X109602758Y-87276661D01*
X109814990Y-87790303D01*
X110207630Y-88183629D01*
X110720900Y-88396757D01*
X111276661Y-88397242D01*
X111624374Y-88253570D01*
X116198280Y-88253570D01*
X116198280Y-88964892D01*
X116233083Y-89048912D01*
X116297389Y-89113218D01*
X116381409Y-89148020D01*
X117092730Y-89148020D01*
X117149880Y-89090870D01*
X117149880Y-88196420D01*
X117403880Y-88196420D01*
X117403880Y-89090870D01*
X117461030Y-89148020D01*
X118172351Y-89148020D01*
X118256371Y-89113218D01*
X118320677Y-89048912D01*
X118355480Y-88964892D01*
X118355480Y-88253570D01*
X118298330Y-88196420D01*
X117403880Y-88196420D01*
X117149880Y-88196420D01*
X116255430Y-88196420D01*
X116198280Y-88253570D01*
X111624374Y-88253570D01*
X111790303Y-88185010D01*
X112183629Y-87792370D01*
X112396757Y-87279100D01*
X112396848Y-87173948D01*
X116198280Y-87173948D01*
X116198280Y-87885270D01*
X116255430Y-87942420D01*
X117149880Y-87942420D01*
X117149880Y-87047970D01*
X117403880Y-87047970D01*
X117403880Y-87942420D01*
X118298330Y-87942420D01*
X118355480Y-87885270D01*
X118355480Y-87173948D01*
X118320677Y-87089928D01*
X118256371Y-87025622D01*
X118172351Y-86990820D01*
X117461030Y-86990820D01*
X117403880Y-87047970D01*
X117149880Y-87047970D01*
X117092730Y-86990820D01*
X116381409Y-86990820D01*
X116297389Y-87025622D01*
X116233083Y-87089928D01*
X116198280Y-87173948D01*
X112396848Y-87173948D01*
X112397242Y-86723339D01*
X112185010Y-86209697D01*
X111792370Y-85816371D01*
X111688873Y-85773395D01*
X130318752Y-85773395D01*
X130536150Y-86299537D01*
X130938345Y-86702435D01*
X131464108Y-86920751D01*
X132033395Y-86921248D01*
X132559537Y-86703850D01*
X132962435Y-86301655D01*
X133180751Y-85775892D01*
X133181248Y-85206605D01*
X132963850Y-84680463D01*
X132561655Y-84277565D01*
X132035892Y-84059249D01*
X131466605Y-84058752D01*
X130940463Y-84276150D01*
X130537565Y-84678345D01*
X130319249Y-85204108D01*
X130318752Y-85773395D01*
X111688873Y-85773395D01*
X111279100Y-85603243D01*
X110723339Y-85602758D01*
X110209697Y-85814990D01*
X109816371Y-86207630D01*
X109603243Y-86720900D01*
X109602758Y-87276661D01*
X108323314Y-87276661D01*
X108405092Y-87168970D01*
X108438746Y-87087670D01*
X108409330Y-86977000D01*
X107877000Y-86977000D01*
X107623000Y-86977000D01*
X107090670Y-86977000D01*
X107061254Y-87087670D01*
X90038880Y-87087670D01*
X90038880Y-85773493D01*
X93618761Y-85773493D01*
X93828563Y-86281251D01*
X94216705Y-86670072D01*
X94724097Y-86880759D01*
X95273493Y-86881239D01*
X95781251Y-86671437D01*
X96022730Y-86430379D01*
X99249226Y-86430379D01*
X99370238Y-86582859D01*
X99832568Y-86741431D01*
X100320388Y-86711006D01*
X100629762Y-86582859D01*
X100750774Y-86430379D01*
X100000000Y-85679605D01*
X99249226Y-86430379D01*
X96022730Y-86430379D01*
X96170072Y-86283295D01*
X96380759Y-85775903D01*
X96381146Y-85332568D01*
X98758569Y-85332568D01*
X98788994Y-85820388D01*
X98917141Y-86129762D01*
X99069621Y-86250774D01*
X99820395Y-85500000D01*
X100179605Y-85500000D01*
X100930379Y-86250774D01*
X101082859Y-86129762D01*
X101189901Y-85817670D01*
X107061254Y-85817670D01*
X107094908Y-85898970D01*
X107266839Y-86125383D01*
X107420273Y-86215000D01*
X107266839Y-86304617D01*
X107094908Y-86531030D01*
X107061254Y-86612330D01*
X107090670Y-86723000D01*
X107623000Y-86723000D01*
X107623000Y-85707000D01*
X107877000Y-85707000D01*
X107877000Y-86723000D01*
X108409330Y-86723000D01*
X108438746Y-86612330D01*
X108405092Y-86531030D01*
X108233161Y-86304617D01*
X108079727Y-86215000D01*
X108233161Y-86125383D01*
X108405092Y-85898970D01*
X108438746Y-85817670D01*
X108409330Y-85707000D01*
X107877000Y-85707000D01*
X107623000Y-85707000D01*
X107090670Y-85707000D01*
X107061254Y-85817670D01*
X101189901Y-85817670D01*
X101241431Y-85667432D01*
X101211006Y-85179612D01*
X101082859Y-84870238D01*
X100930379Y-84749226D01*
X100179605Y-85500000D01*
X99820395Y-85500000D01*
X99069621Y-84749226D01*
X98917141Y-84870238D01*
X98758569Y-85332568D01*
X96381146Y-85332568D01*
X96381239Y-85226507D01*
X96171437Y-84718749D01*
X96022570Y-84569621D01*
X99249226Y-84569621D01*
X100000000Y-85320395D01*
X100750774Y-84569621D01*
X100733354Y-84547670D01*
X107061254Y-84547670D01*
X107094908Y-84628970D01*
X107266839Y-84855383D01*
X107420273Y-84945000D01*
X107266839Y-85034617D01*
X107094908Y-85261030D01*
X107061254Y-85342330D01*
X107090670Y-85453000D01*
X107623000Y-85453000D01*
X107623000Y-84437000D01*
X107877000Y-84437000D01*
X107877000Y-85453000D01*
X108409330Y-85453000D01*
X108438746Y-85342330D01*
X108405092Y-85261030D01*
X108233161Y-85034617D01*
X108079727Y-84945000D01*
X108233161Y-84855383D01*
X108405092Y-84628970D01*
X108438746Y-84547670D01*
X108409330Y-84437000D01*
X107877000Y-84437000D01*
X107623000Y-84437000D01*
X107090670Y-84437000D01*
X107061254Y-84547670D01*
X100733354Y-84547670D01*
X100629762Y-84417141D01*
X100167432Y-84258569D01*
X99679612Y-84288994D01*
X99370238Y-84417141D01*
X99249226Y-84569621D01*
X96022570Y-84569621D01*
X95783295Y-84329928D01*
X95275903Y-84119241D01*
X94726507Y-84118761D01*
X94218749Y-84328563D01*
X93829928Y-84716705D01*
X93619241Y-85224097D01*
X93618761Y-85773493D01*
X90038880Y-85773493D01*
X90038880Y-83277670D01*
X107061254Y-83277670D01*
X107094908Y-83358970D01*
X107266839Y-83585383D01*
X107420273Y-83675000D01*
X107266839Y-83764617D01*
X107094908Y-83991030D01*
X107061254Y-84072330D01*
X107090670Y-84183000D01*
X107623000Y-84183000D01*
X107623000Y-83167000D01*
X107877000Y-83167000D01*
X107877000Y-84183000D01*
X108409330Y-84183000D01*
X108438746Y-84072330D01*
X108405092Y-83991030D01*
X108233161Y-83764617D01*
X108079727Y-83675000D01*
X108233161Y-83585383D01*
X108405092Y-83358970D01*
X108438746Y-83277670D01*
X108409330Y-83167000D01*
X107877000Y-83167000D01*
X107623000Y-83167000D01*
X107090670Y-83167000D01*
X107061254Y-83277670D01*
X90038880Y-83277670D01*
X90038880Y-82930009D01*
X102249596Y-82930009D01*
X102370546Y-83082436D01*
X102832690Y-83240921D01*
X103320306Y-83210488D01*
X103629454Y-83082436D01*
X103750404Y-82930009D01*
X103000000Y-82179605D01*
X102249596Y-82930009D01*
X90038880Y-82930009D01*
X90038880Y-81832690D01*
X101759079Y-81832690D01*
X101789512Y-82320306D01*
X101917564Y-82629454D01*
X102069991Y-82750404D01*
X102820395Y-82000000D01*
X103179605Y-82000000D01*
X103930009Y-82750404D01*
X104082436Y-82629454D01*
X104240921Y-82167310D01*
X104230958Y-82007670D01*
X107061254Y-82007670D01*
X107094908Y-82088970D01*
X107266839Y-82315383D01*
X107420273Y-82405000D01*
X107266839Y-82494617D01*
X107094908Y-82721030D01*
X107061254Y-82802330D01*
X107090670Y-82913000D01*
X107623000Y-82913000D01*
X107623000Y-81897000D01*
X107877000Y-81897000D01*
X107877000Y-82913000D01*
X108409330Y-82913000D01*
X108438746Y-82802330D01*
X108405092Y-82721030D01*
X108233161Y-82494617D01*
X108079727Y-82405000D01*
X108233161Y-82315383D01*
X108405092Y-82088970D01*
X108438746Y-82007670D01*
X108409330Y-81897000D01*
X107877000Y-81897000D01*
X107623000Y-81897000D01*
X107090670Y-81897000D01*
X107061254Y-82007670D01*
X104230958Y-82007670D01*
X104210488Y-81679694D01*
X104082436Y-81370546D01*
X103930009Y-81249596D01*
X103179605Y-82000000D01*
X102820395Y-82000000D01*
X102069991Y-81249596D01*
X101917564Y-81370546D01*
X101759079Y-81832690D01*
X90038880Y-81832690D01*
X90038880Y-81433691D01*
X90281896Y-81069991D01*
X102249596Y-81069991D01*
X103000000Y-81820395D01*
X103750404Y-81069991D01*
X103629454Y-80917564D01*
X103167310Y-80759079D01*
X102679694Y-80789512D01*
X102370546Y-80917564D01*
X102249596Y-81069991D01*
X90281896Y-81069991D01*
X90539707Y-80684150D01*
X107021400Y-80684150D01*
X107021400Y-81045472D01*
X107056203Y-81129492D01*
X107120509Y-81193798D01*
X107204529Y-81228600D01*
X107263814Y-81228600D01*
X107094908Y-81451030D01*
X107061254Y-81532330D01*
X107090670Y-81643000D01*
X107623000Y-81643000D01*
X107623000Y-80627000D01*
X107877000Y-80627000D01*
X107877000Y-81643000D01*
X108409330Y-81643000D01*
X108438746Y-81532330D01*
X108405092Y-81451030D01*
X108236186Y-81228600D01*
X108295471Y-81228600D01*
X108379491Y-81193798D01*
X108443797Y-81129492D01*
X108478600Y-81045472D01*
X108478600Y-80684150D01*
X108421450Y-80627000D01*
X107877000Y-80627000D01*
X107623000Y-80627000D01*
X107078550Y-80627000D01*
X107021400Y-80684150D01*
X90539707Y-80684150D01*
X90597564Y-80597562D01*
X91470409Y-80014345D01*
X92113534Y-79886420D01*
X107049612Y-79886420D01*
X107021400Y-79954528D01*
G36*
X125377000Y-107373000D02*
X125896400Y-107373000D01*
X125896400Y-107627000D01*
X125377000Y-107627000D01*
X125377000Y-107646400D01*
X125123000Y-107646400D01*
X125123000Y-107627000D01*
X125041430Y-107627000D01*
X125081199Y-107567481D01*
X125098600Y-107480000D01*
X125098600Y-107470000D01*
X125081199Y-107382519D01*
X125074839Y-107373000D01*
X125123000Y-107373000D01*
X125123000Y-107353600D01*
X125377000Y-107353600D01*
X125377000Y-107373000D01*
X125377000Y-107373000D01*
G37*
X125377000Y-107373000D02*
X125896400Y-107373000D01*
X125896400Y-107627000D01*
X125377000Y-107627000D01*
X125377000Y-107646400D01*
X125123000Y-107646400D01*
X125123000Y-107627000D01*
X125041430Y-107627000D01*
X125081199Y-107567481D01*
X125098600Y-107480000D01*
X125098600Y-107470000D01*
X125081199Y-107382519D01*
X125074839Y-107373000D01*
X125123000Y-107373000D01*
X125123000Y-107353600D01*
X125377000Y-107353600D01*
X125377000Y-107373000D01*
M02*
