G04 #@! TF.FileFunction,Drawing*
%FSLAX46Y46*%
G04 Gerber Fmt 4.6, Leading zero omitted, Abs format (unit mm)*
G04 Created by KiCad (PCBNEW 4.0.6) date Sunday, March 03, 2019 'PMt' 03:44:16 PM*
%MOMM*%
%LPD*%
G01*
G04 APERTURE LIST*
%ADD10C,0.150000*%
%ADD11C,0.200000*%
%ADD12C,0.127000*%
G04 APERTURE END LIST*
D10*
D11*
X127992691Y-73257372D02*
X127897453Y-73209753D01*
X127849834Y-73162134D01*
X127802215Y-73066896D01*
X127802215Y-73019277D01*
X127849834Y-72924039D01*
X127897453Y-72876420D01*
X127992691Y-72828801D01*
X128183168Y-72828801D01*
X128278406Y-72876420D01*
X128326025Y-72924039D01*
X128373644Y-73019277D01*
X128373644Y-73066896D01*
X128326025Y-73162134D01*
X128278406Y-73209753D01*
X128183168Y-73257372D01*
X127992691Y-73257372D01*
X127897453Y-73304991D01*
X127849834Y-73352610D01*
X127802215Y-73447849D01*
X127802215Y-73638325D01*
X127849834Y-73733563D01*
X127897453Y-73781182D01*
X127992691Y-73828801D01*
X128183168Y-73828801D01*
X128278406Y-73781182D01*
X128326025Y-73733563D01*
X128373644Y-73638325D01*
X128373644Y-73447849D01*
X128326025Y-73352610D01*
X128278406Y-73304991D01*
X128183168Y-73257372D01*
X128802215Y-73733563D02*
X128849834Y-73781182D01*
X128802215Y-73828801D01*
X128754596Y-73781182D01*
X128802215Y-73733563D01*
X128802215Y-73828801D01*
X129183167Y-72828801D02*
X129802215Y-72828801D01*
X129468881Y-73209753D01*
X129611739Y-73209753D01*
X129706977Y-73257372D01*
X129754596Y-73304991D01*
X129802215Y-73400230D01*
X129802215Y-73638325D01*
X129754596Y-73733563D01*
X129706977Y-73781182D01*
X129611739Y-73828801D01*
X129326024Y-73828801D01*
X129230786Y-73781182D01*
X129183167Y-73733563D01*
X130230786Y-73828801D02*
X130230786Y-73162134D01*
X130230786Y-73257372D02*
X130278405Y-73209753D01*
X130373643Y-73162134D01*
X130516501Y-73162134D01*
X130611739Y-73209753D01*
X130659358Y-73304991D01*
X130659358Y-73828801D01*
X130659358Y-73304991D02*
X130706977Y-73209753D01*
X130802215Y-73162134D01*
X130945072Y-73162134D01*
X131040310Y-73209753D01*
X131087929Y-73304991D01*
X131087929Y-73828801D01*
X131564119Y-73828801D02*
X131564119Y-73162134D01*
X131564119Y-73257372D02*
X131611738Y-73209753D01*
X131706976Y-73162134D01*
X131849834Y-73162134D01*
X131945072Y-73209753D01*
X131992691Y-73304991D01*
X131992691Y-73828801D01*
X131992691Y-73304991D02*
X132040310Y-73209753D01*
X132135548Y-73162134D01*
X132278405Y-73162134D01*
X132373643Y-73209753D01*
X132421262Y-73304991D01*
X132421262Y-73828801D01*
X132897452Y-73447849D02*
X133659357Y-73447849D01*
X134135547Y-73162134D02*
X134897452Y-73447849D01*
X134135547Y-73733563D01*
X125159356Y-75481182D02*
X125254594Y-75528801D01*
X125445070Y-75528801D01*
X125540309Y-75481182D01*
X125587928Y-75385944D01*
X125587928Y-75338325D01*
X125540309Y-75243087D01*
X125445070Y-75195468D01*
X125302213Y-75195468D01*
X125206975Y-75147849D01*
X125159356Y-75052610D01*
X125159356Y-75004991D01*
X125206975Y-74909753D01*
X125302213Y-74862134D01*
X125445070Y-74862134D01*
X125540309Y-74909753D01*
X125921261Y-74862134D02*
X126111737Y-75528801D01*
X126302214Y-75052610D01*
X126492690Y-75528801D01*
X126683166Y-74862134D01*
X127064118Y-75528801D02*
X127064118Y-74862134D01*
X127064118Y-74528801D02*
X127016499Y-74576420D01*
X127064118Y-74624039D01*
X127111737Y-74576420D01*
X127064118Y-74528801D01*
X127064118Y-74624039D01*
X127397451Y-74862134D02*
X127778403Y-74862134D01*
X127540308Y-74528801D02*
X127540308Y-75385944D01*
X127587927Y-75481182D01*
X127683165Y-75528801D01*
X127778403Y-75528801D01*
X128540309Y-75481182D02*
X128445071Y-75528801D01*
X128254594Y-75528801D01*
X128159356Y-75481182D01*
X128111737Y-75433563D01*
X128064118Y-75338325D01*
X128064118Y-75052610D01*
X128111737Y-74957372D01*
X128159356Y-74909753D01*
X128254594Y-74862134D01*
X128445071Y-74862134D01*
X128540309Y-74909753D01*
X128968880Y-75528801D02*
X128968880Y-74528801D01*
X129397452Y-75528801D02*
X129397452Y-75004991D01*
X129349833Y-74909753D01*
X129254595Y-74862134D01*
X129111737Y-74862134D01*
X129016499Y-74909753D01*
X128968880Y-74957372D01*
X130587928Y-75481182D02*
X130683166Y-75528801D01*
X130873642Y-75528801D01*
X130968881Y-75481182D01*
X131016500Y-75385944D01*
X131016500Y-75338325D01*
X130968881Y-75243087D01*
X130873642Y-75195468D01*
X130730785Y-75195468D01*
X130635547Y-75147849D01*
X130587928Y-75052610D01*
X130587928Y-75004991D01*
X130635547Y-74909753D01*
X130730785Y-74862134D01*
X130873642Y-74862134D01*
X130968881Y-74909753D01*
X131302214Y-74862134D02*
X131683166Y-74862134D01*
X131445071Y-74528801D02*
X131445071Y-75385944D01*
X131492690Y-75481182D01*
X131587928Y-75528801D01*
X131683166Y-75528801D01*
X132397453Y-75481182D02*
X132302215Y-75528801D01*
X132111738Y-75528801D01*
X132016500Y-75481182D01*
X131968881Y-75385944D01*
X131968881Y-75004991D01*
X132016500Y-74909753D01*
X132111738Y-74862134D01*
X132302215Y-74862134D01*
X132397453Y-74909753D01*
X132445072Y-75004991D01*
X132445072Y-75100230D01*
X131968881Y-75195468D01*
X132873643Y-75528801D02*
X132873643Y-74862134D01*
X132873643Y-74957372D02*
X132921262Y-74909753D01*
X133016500Y-74862134D01*
X133159358Y-74862134D01*
X133254596Y-74909753D01*
X133302215Y-75004991D01*
X133302215Y-75528801D01*
X133302215Y-75004991D02*
X133349834Y-74909753D01*
X133445072Y-74862134D01*
X133587929Y-74862134D01*
X133683167Y-74909753D01*
X133730786Y-75004991D01*
X133730786Y-75528801D01*
D12*
X149700000Y-79500000D02*
X149700000Y-90500000D01*
X149700000Y-90500000D02*
X140700000Y-90500000D01*
X149700000Y-79500000D02*
X148000000Y-79500000D01*
X148000000Y-79500000D02*
X147250000Y-79500000D01*
X147250000Y-79500000D02*
X147250000Y-80800000D01*
X147250000Y-80800000D02*
X142750000Y-80800000D01*
X142750000Y-80800000D02*
X142750000Y-79500000D01*
X142750000Y-79500000D02*
X142000000Y-79500000D01*
X142000000Y-79500000D02*
X140700000Y-79500000D01*
X140700000Y-79500000D02*
X140700000Y-90500000D01*
X148000000Y-79500000D02*
X148000000Y-76500000D01*
X148000000Y-76500000D02*
X142000000Y-76500000D01*
X142000000Y-76500000D02*
X142000000Y-79500000D01*
X150750000Y-109500000D02*
X148250000Y-109500000D01*
X148250000Y-109500000D02*
X142250000Y-109500000D01*
X142250000Y-109500000D02*
X139250000Y-109500000D01*
X139250000Y-109500000D02*
X139250000Y-95500000D01*
X139250000Y-95500000D02*
X150750000Y-95500000D01*
X150750000Y-95500000D02*
X150750000Y-109500000D01*
D11*
X145350000Y-108600000D02*
G75*
G03X145350000Y-108600000I-100000J0D01*
G01*
D12*
X142250000Y-109500000D02*
X142250000Y-113000000D01*
X142250000Y-113000000D02*
X148250000Y-113000000D01*
X148250000Y-113000000D02*
X148250000Y-109500000D01*
X165750000Y-109500000D02*
X163250000Y-109500000D01*
X163250000Y-109500000D02*
X157250000Y-109500000D01*
X157250000Y-109500000D02*
X154250000Y-109500000D01*
X154250000Y-109500000D02*
X154250000Y-95500000D01*
X154250000Y-95500000D02*
X165750000Y-95500000D01*
X165750000Y-95500000D02*
X165750000Y-109500000D01*
D11*
X160350000Y-108600000D02*
G75*
G03X160350000Y-108600000I-100000J0D01*
G01*
D12*
X157250000Y-109500000D02*
X157250000Y-113000000D01*
X157250000Y-113000000D02*
X163250000Y-113000000D01*
X163250000Y-113000000D02*
X163250000Y-109500000D01*
X129700000Y-79500000D02*
X129700000Y-90500000D01*
X129700000Y-90500000D02*
X120700000Y-90500000D01*
X129700000Y-79500000D02*
X128000000Y-79500000D01*
X128000000Y-79500000D02*
X127250000Y-79500000D01*
X127250000Y-79500000D02*
X127250000Y-80800000D01*
X127250000Y-80800000D02*
X122750000Y-80800000D01*
X122750000Y-80800000D02*
X122750000Y-79500000D01*
X122750000Y-79500000D02*
X122000000Y-79500000D01*
X122000000Y-79500000D02*
X120700000Y-79500000D01*
X120700000Y-79500000D02*
X120700000Y-90500000D01*
X128000000Y-79500000D02*
X128000000Y-76500000D01*
X128000000Y-76500000D02*
X122000000Y-76500000D01*
X122000000Y-76500000D02*
X122000000Y-79500000D01*
X130750000Y-109500000D02*
X128250000Y-109500000D01*
X128250000Y-109500000D02*
X122250000Y-109500000D01*
X122250000Y-109500000D02*
X119250000Y-109500000D01*
X119250000Y-109500000D02*
X119250000Y-95500000D01*
X119250000Y-95500000D02*
X130750000Y-95500000D01*
X130750000Y-95500000D02*
X130750000Y-109500000D01*
D11*
X125350000Y-108600000D02*
G75*
G03X125350000Y-108600000I-100000J0D01*
G01*
D12*
X122250000Y-109500000D02*
X122250000Y-113000000D01*
X122250000Y-113000000D02*
X128250000Y-113000000D01*
X128250000Y-113000000D02*
X128250000Y-109500000D01*
X160500000Y-79509420D02*
X160500000Y-89009420D01*
X160500000Y-89009420D02*
X152500000Y-89009420D01*
X152500000Y-89009420D02*
X152500000Y-79509420D01*
X152500000Y-79509420D02*
X154000000Y-79509420D01*
X154000000Y-79509420D02*
X159000000Y-79509420D01*
X159000000Y-79509420D02*
X160500000Y-79509420D01*
X159000000Y-79509420D02*
X159000000Y-77009420D01*
X159000000Y-77009420D02*
X154000000Y-77009420D01*
X154000000Y-77009420D02*
X154000000Y-79509420D01*
D11*
X157235000Y-87188420D02*
G75*
G03X157235000Y-87188420I-100000J0D01*
G01*
M02*
